<svg xmlns="http://www.w3.org/2000/svg" xmlns:xlink="http://www.w3.org/1999/xlink" width="1024" zoomAndPan="magnify" viewBox="0 0 768 767.999994" height="1024" preserveAspectRatio="xMidYMid meet" version="1.0"><defs><clipPath id="fc85df864e"><path d="M 489 367 L 691 367 L 691 652.949219 L 489 652.949219 Z M 489 367 " clip-rule="nonzero"/></clipPath><clipPath id="f7549a9dc9"><path d="M 126 115.199219 L 362 115.199219 L 362 281 L 126 281 Z M 126 115.199219 " clip-rule="nonzero"/></clipPath><clipPath id="971643ef11"><path d="M 76.800781 314 L 163 314 L 163 403 L 76.800781 403 Z M 76.800781 314 " clip-rule="nonzero"/></clipPath></defs><path fill="#fec3aa" d="M 528.03125 583.25 L 489.441406 577.558594 C 489.441406 577.558594 459.535156 570.769531 443.558594 572.59375 C 427.582031 574.417969 416.203125 573.179688 406.867188 580.695312 C 397.53125 588.210938 400.59375 595.949219 400.59375 595.949219 C 400.59375 595.949219 393.226562 603.464844 394.175781 606.605469 C 395.121094 609.742188 393.957031 621.273438 396.945312 624.046875 C 399.9375 626.820312 401.175781 626.96875 401.175781 626.96875 C 402.5625 629.59375 405.1875 631.347656 408.105469 631.566406 C 413.066406 631.929688 429.40625 624.414062 434.367188 624.558594 C 439.328125 624.703125 462.085938 626.601562 473.832031 624.996094 C 485.578125 623.390625 491.851562 619.230469 491.851562 619.230469 L 540.359375 634.484375 C 540.359375 634.484375 538.683594 597.554688 528.03125 583.25 Z M 528.03125 583.25 " fill-opacity="1" fill-rule="nonzero"/><path fill="#fec3aa" d="M 255.5 343.128906 C 252.4375 339.261719 249.082031 335.613281 245.433594 332.257812 C 240.253906 327.875 235.734375 315.90625 241.058594 312.84375 C 246.382812 309.777344 265.421875 326.417969 271.839844 334.664062 C 278.261719 342.910156 294.457031 366.484375 299.269531 379.695312 C 304.085938 392.90625 300.144531 399.695312 301.824219 402.832031 L 315.027344 428.59375 C 315.027344 428.59375 303.648438 436.84375 291.171875 441.953125 C 278.699219 447.0625 273.15625 447.28125 273.15625 447.28125 C 273.15625 447.28125 260.316406 422.464844 258.273438 421.222656 C 256.230469 419.984375 247.625 415.894531 244.488281 410.933594 C 242.515625 407.648438 241.058594 404.144531 240.109375 400.421875 C 240.109375 400.421875 230.40625 398.234375 226.324219 390.496094 C 222.238281 382.761719 219.902344 376.558594 221.363281 371.449219 C 222.820312 366.339844 225.59375 363.492188 229.460938 362.253906 C 230.84375 358.382812 233.398438 355.027344 236.828125 352.691406 C 242.296875 349.1875 242.664062 349.917969 243.246094 350.136719 C 243.828125 350.355469 245.433594 341.671875 255.5 343.128906 Z M 255.5 343.128906 " fill-opacity="1" fill-rule="nonzero"/><path fill="#a3dfbe" d="M 272.9375 447.863281 C 272.132812 447.863281 310.285156 562.085938 327.863281 578.871094 C 345.445312 595.65625 386.078125 576.609375 394.320312 569.820312 C 402.5625 563.03125 437.722656 526.90625 437.722656 526.90625 C 437.722656 526.90625 446.476562 543.035156 449.03125 552.523438 C 451.582031 562.011719 457.785156 570.84375 457.273438 571.644531 C 456.761719 572.449219 500.457031 579.382812 509.210938 580.113281 C 515.558594 580.769531 521.832031 581.863281 528.03125 583.25 C 528.03125 583.25 542.402344 616.605469 540.359375 634.484375 C 540.359375 634.484375 592.734375 648.132812 623.8125 650.394531 C 654.886719 652.65625 677.792969 639.375 683.773438 623.316406 C 689.757812 607.261719 688.296875 578.652344 687.058594 572.082031 C 685.816406 565.515625 671.738281 438.375 671.738281 438.375 C 671.738281 438.375 662.984375 404.730469 637.671875 396.703125 C 612.359375 388.671875 586.753906 372.835938 583.472656 366.851562 C 580.1875 360.867188 583.179688 356.996094 579.679688 355.246094 C 576.175781 353.496094 521.027344 349.261719 521.027344 349.261719 C 521.027344 349.261719 516.214844 349.480469 516.507812 352.984375 C 516.796875 356.488281 514.972656 362.035156 510.960938 363.566406 C 506.949219 365.097656 479.375 368.089844 470.113281 368.089844 C 460.847656 368.089844 436.703125 374.585938 427.65625 387.359375 C 418.613281 400.132812 399.570312 445.089844 393.078125 455.378906 C 386.585938 465.671875 353.90625 503.625 353.90625 503.625 L 315.535156 428.8125 C 315.535156 428.816406 281.691406 447.863281 272.9375 447.863281 Z M 272.9375 447.863281 " fill-opacity="1" fill-rule="nonzero"/><path fill="#fec3aa" d="M 505.710938 227.667969 C 505.710938 227.667969 480.835938 231.246094 475.949219 247.375 C 471.058594 263.503906 476.386719 275.984375 476.386719 282.042969 C 476.386719 288.101562 477.480469 313.207031 479.523438 318.753906 C 481.566406 324.300781 492.945312 343.640625 506.367188 347.4375 C 519.789062 351.230469 529.855469 350.574219 529.855469 350.574219 L 576.613281 354.152344 C 576.613281 354.152344 572.164062 332.183594 574.792969 318.972656 C 574.792969 318.972656 573.695312 318.972656 579.53125 312.914062 C 585.367188 306.855469 589.597656 299.777344 588.941406 291.894531 C 588.285156 284.011719 582.667969 281.167969 578.65625 281.824219 C 574.644531 282.480469 569.683594 286.277344 569.683594 286.277344 C 569.683594 286.277344 555.824219 283.429688 547.726562 259.199219 C 539.628906 234.96875 530.65625 219.058594 517.527344 218.691406 C 508.847656 218.472656 505.710938 227.667969 505.710938 227.667969 Z M 505.710938 227.667969 " fill-opacity="1" fill-rule="nonzero"/><path fill="#734c4c" d="M 475.875 278.246094 C 475.875 278.246094 461.359375 268.101562 465.515625 246.71875 C 469.675781 225.332031 485.210938 206.941406 494.257812 200.8125 C 503.304688 194.679688 521.027344 187.015625 549.699219 187.746094 C 578.367188 188.476562 587.777344 199.863281 593.320312 206.359375 C 598.863281 212.851562 606.304688 222.777344 606.304688 222.777344 C 606.304688 222.777344 613.746094 212.488281 623.519531 215.917969 C 633.292969 219.347656 646.863281 225.84375 653.5 242.339844 C 660.140625 258.832031 655.25 286.859375 650.875 295.910156 C 646.5 304.960938 641.320312 328.386719 643.800781 339.699219 C 646.28125 351.011719 653.5 358.601562 654.085938 358.238281 C 654.667969 357.875 646.863281 363.785156 631.761719 358.601562 C 616.664062 353.421875 604.992188 330.285156 602.65625 320.359375 C 601.269531 314.519531 600.90625 308.535156 601.488281 302.550781 C 601.488281 302.550781 582.230469 320.578125 579.167969 323.644531 C 576.105469 326.710938 574.574219 335.320312 574.574219 335.320312 L 574.792969 318.972656 C 574.792969 318.972656 586.753906 307.734375 588.503906 298.539062 C 590.257812 289.339844 587.921875 283.648438 582.742188 281.898438 C 577.5625 280.144531 569.683594 286.277344 569.683594 286.277344 C 569.683594 286.277344 556.554688 280.582031 549.476562 262.992188 C 542.402344 245.40625 538.390625 228.546875 530.730469 227.378906 C 523.070312 226.210938 513.515625 229.710938 513.515625 229.710938 C 513.515625 229.710938 505.34375 226.0625 500.167969 227.011719 C 494.988281 227.960938 482.003906 233.871094 478.136719 243.652344 C 474.269531 253.433594 473.03125 264.890625 475.875 278.246094 Z M 475.875 278.246094 " fill-opacity="1" fill-rule="nonzero"/><path fill="#000000" d="M 606.011719 450.273438 C 606.230469 485.449219 610.171875 520.628906 613.453125 555.660156 C 614.328125 564.710938 615.203125 573.835938 616.007812 582.957031 C 616.226562 585.4375 620.089844 585.4375 619.871094 582.957031 C 616.882812 547.925781 612.796875 512.894531 610.828125 477.714844 C 610.316406 468.589844 609.953125 459.46875 609.878906 450.273438 C 609.878906 447.789062 606.011719 447.789062 606.011719 450.273438 Z M 606.011719 450.273438 " fill-opacity="1" fill-rule="nonzero"/><path fill="#000000" d="M 273.957031 382.175781 C 269.945312 374.441406 262.429688 369.769531 257.105469 363.203125 C 255.792969 361.597656 254.1875 359.480469 254.335938 357.363281 C 254.480469 355.246094 256.816406 354.078125 258.785156 354.003906 C 260.753906 353.933594 263.597656 354.882812 265.785156 355.757812 C 267.902344 356.558594 269.945312 357.507812 271.914062 358.53125 C 276.511719 360.867188 280.667969 364.078125 284.097656 367.945312 C 285.703125 369.84375 288.402344 367.070312 286.796875 365.171875 C 283.367188 361.230469 279.210938 357.945312 274.613281 355.539062 C 272.28125 354.296875 269.800781 353.203125 267.320312 352.253906 C 264.765625 351.230469 262.140625 350.210938 259.367188 350.136719 C 254.1875 349.917969 249.445312 353.933594 250.6875 359.40625 C 251.925781 364.878906 256.15625 368.164062 259.585938 371.449219 C 263.015625 374.734375 267.976562 379.039062 270.601562 384.148438 C 271.695312 386.335938 275.050781 384.367188 273.957031 382.175781 Z M 273.957031 382.175781 " fill-opacity="1" fill-rule="nonzero"/><path fill="#000000" d="M 260.609375 345.539062 C 257.105469 338.242188 250.101562 334.226562 245.144531 328.167969 C 242.589844 325.101562 239.816406 320.285156 241.058594 316.125 C 241.789062 313.71875 244.121094 314.738281 245.800781 315.542969 C 247.257812 316.273438 248.644531 317.074219 250.03125 317.949219 C 262.503906 325.613281 272.863281 337.582031 280.886719 349.699219 C 286.359375 358.238281 291.171875 367.214844 295.183594 376.558594 C 297.738281 382.324219 300.070312 388.527344 299.5625 394.949219 C 299.269531 396.921875 299.195312 398.964844 299.488281 401.007812 C 299.851562 402.90625 300.949219 404.4375 301.824219 406.117188 C 305.761719 413.488281 309.410156 421.078125 313.347656 428.449219 C 318.382812 438.082031 323.707031 447.5 329.25 456.839844 C 330.492188 459.03125 333.847656 457.058594 332.535156 454.941406 C 327.355469 446.113281 322.320312 437.207031 317.507812 428.15625 C 313.496094 420.640625 309.847656 412.902344 305.835938 405.386719 C 304.886719 403.707031 303.5 401.882812 303.207031 399.984375 C 302.917969 398.089844 303.429688 395.605469 303.5 393.34375 C 303.648438 386.410156 300.800781 379.695312 297.957031 373.417969 C 293.433594 363.273438 288.109375 353.054688 281.617188 344.007812 C 276.949219 337.4375 271.695312 331.308594 265.859375 325.6875 C 260.679688 320.652344 254.84375 315.761719 248.28125 312.476562 C 245.144531 310.945312 240.546875 309.339844 238.214844 313.0625 C 235.878906 316.785156 237.117188 321.890625 238.871094 325.46875 C 243.101562 334.371094 253.019531 338.605469 257.253906 347.4375 C 258.347656 349.699219 261.628906 347.730469 260.609375 345.539062 Z M 260.609375 345.539062 " fill-opacity="1" fill-rule="nonzero"/><path fill="#000000" d="M 229.898438 360.71875 C 224.28125 359.769531 220.851562 365.683594 219.832031 370.425781 C 218.371094 376.777344 220.339844 382.90625 223.332031 388.453125 C 224.644531 390.863281 225.957031 393.707031 227.78125 395.753906 C 228.65625 396.628906 229.53125 397.359375 230.554688 398.089844 C 233.617188 400.421875 237.773438 402.757812 241.714844 401.519531 C 245.652344 400.277344 247.84375 395.753906 246.238281 391.445312 C 245.433594 389.109375 241.640625 390.132812 242.515625 392.46875 C 242.953125 393.5625 243.390625 394.949219 242.882812 396.117188 C 242.371094 397.285156 240.109375 398.160156 238.578125 397.941406 C 235.804688 397.429688 232.523438 395.316406 230.625 393.125 C 228.730469 390.933594 228.074219 389.109375 226.980469 387.140625 C 225.449219 384.511719 224.28125 381.667969 223.550781 378.675781 C 222.894531 375.609375 223.039062 372.46875 224.0625 369.550781 C 224.71875 367.726562 226.46875 364.078125 228.875 364.515625 C 231.28125 364.953125 232.378906 361.15625 229.898438 360.71875 Z M 229.898438 360.71875 " fill-opacity="1" fill-rule="nonzero"/><path fill="#000000" d="M 242.589844 348.75 C 236.898438 349.042969 232.378906 352.546875 230.117188 357.65625 C 227.855469 362.761719 228.511719 369.625 230.992188 375.171875 C 233.542969 380.5 236.828125 385.460938 240.765625 389.914062 C 243.390625 392.980469 246.746094 396.921875 251.125 396.191406 C 254.1875 395.679688 256.886719 394.367188 258.199219 391.300781 C 259.511719 388.234375 259.074219 385.316406 257.179688 383.636719 C 255.28125 381.957031 252.582031 384.660156 254.40625 386.335938 C 256.230469 388.015625 254.042969 391.59375 251.855469 392.175781 C 249.664062 392.761719 249.519531 392.6875 248.132812 391.738281 C 243.828125 388.746094 240.621094 383.78125 237.847656 379.476562 C 235.078125 375.171875 231.355469 368.308594 232.667969 362.179688 C 233.691406 357.214844 237.265625 352.835938 242.589844 352.617188 C 245.070312 352.472656 245.070312 348.605469 242.589844 348.75 Z M 242.589844 348.75 " fill-opacity="1" fill-rule="nonzero"/><path fill="#000000" d="M 265.203125 380.570312 C 265.277344 382.46875 264.691406 384.949219 262.429688 385.097656 C 258.273438 385.460938 254.84375 380.789062 252.800781 377.796875 C 248.28125 371.375 243.609375 363.492188 244.269531 355.390625 C 244.558594 351.960938 246.019531 347.289062 249.445312 345.757812 C 251.707031 344.734375 254.261719 344.957031 256.375 346.195312 C 258.417969 347.65625 260.316406 344.296875 258.347656 342.839844 C 256.375 341.378906 253.019531 341.160156 250.324219 341.523438 C 247.625 341.890625 243.976562 344.734375 242.371094 348.09375 C 239.378906 354.222656 239.964844 361.742188 242.664062 367.800781 C 244.488281 371.886719 246.746094 375.828125 249.300781 379.550781 C 252.292969 383.855469 256.304688 388.820312 261.992188 388.964844 C 267.683594 389.109375 269.214844 384.878906 269.070312 380.570312 C 268.996094 378.089844 265.128906 378.089844 265.203125 380.570312 Z M 265.203125 380.570312 " fill-opacity="1" fill-rule="nonzero"/><path fill="#000000" d="M 239.015625 400.570312 C 242.296875 409.984375 247.113281 420.054688 257.761719 422.464844 L 256.597656 421.589844 C 262.503906 431.734375 268.414062 441.804688 273.007812 452.605469 C 273.957031 454.941406 277.3125 452.972656 276.363281 450.710938 C 271.988281 440.417969 266.445312 430.929688 260.898438 421.296875 C 260.242188 420.054688 259.878906 419.109375 258.492188 418.667969 C 255.9375 417.867188 253.53125 416.554688 251.488281 414.875 C 246.746094 410.859375 244.707031 405.242188 242.734375 399.546875 C 241.933594 397.210938 238.214844 398.234375 239.015625 400.570312 Z M 239.015625 400.570312 " fill-opacity="1" fill-rule="nonzero"/><path fill="#000000" d="M 421.894531 578.285156 C 417.007812 580.183594 412.410156 582.8125 408.179688 585.949219 C 404.3125 589.015625 400.886719 592.519531 397.820312 596.386719 C 394.175781 601.058594 390.308594 607.992188 395.269531 613.246094 C 396.945312 615.070312 399.644531 612.296875 397.96875 610.472656 C 394.320312 606.679688 399.28125 600.839844 401.542969 597.917969 C 407.160156 590.839844 414.527344 585.367188 422.914062 582.007812 C 425.25 581.058594 424.226562 577.339844 421.894531 578.285156 Z M 421.894531 578.285156 " fill-opacity="1" fill-rule="nonzero"/><path fill="#000000" d="M 427.800781 589.160156 C 422.769531 591.203125 418.027344 593.757812 413.652344 596.898438 C 409.347656 599.671875 405.261719 602.738281 401.394531 606.019531 C 397.164062 609.816406 393.007812 615.289062 394.246094 621.421875 C 395.050781 625.289062 398.257812 627.550781 401.980469 628.425781 C 404.386719 628.9375 405.40625 625.214844 403 624.703125 C 400.59375 624.195312 397.75 622.078125 397.894531 618.648438 C 398.039062 616.53125 399.28125 614.195312 400.738281 612.296875 C 404.023438 608.136719 408.691406 605.070312 412.996094 602.078125 C 417.296875 599.085938 423.132812 595.144531 428.824219 592.957031 C 431.085938 592.007812 430.136719 588.285156 427.800781 589.160156 Z M 427.800781 589.160156 " fill-opacity="1" fill-rule="nonzero"/><path fill="#000000" d="M 435.535156 603.320312 C 428.75 604.851562 422.476562 608.066406 416.789062 612.078125 C 413.941406 614.050781 411.171875 616.238281 408.542969 618.5 L 404.605469 621.929688 C 403.511719 622.953125 401.542969 624.195312 400.8125 625.582031 C 400.082031 626.96875 400.667969 629.523438 401.6875 630.761719 C 404.09375 634.046875 408.910156 633.535156 412.484375 632.878906 C 417.882812 631.855469 423.132812 629.8125 428.386719 628.0625 C 430.9375 627.113281 433.636719 626.601562 436.410156 626.601562 C 444.800781 626.53125 453.1875 627.332031 461.648438 627.113281 C 467.414062 627.113281 473.175781 626.53125 478.867188 625.582031 C 483.679688 624.703125 488.714844 623.246094 492.652344 620.253906 C 494.621094 618.792969 492.726562 615.4375 490.683594 616.894531 C 483.898438 622.078125 473.976562 622.734375 465.734375 623.097656 C 457.492188 623.464844 448.8125 623.171875 440.277344 622.808594 C 437.722656 622.660156 435.097656 622.734375 432.542969 623.027344 C 429.773438 623.390625 427.144531 624.414062 424.519531 625.289062 C 419.414062 627.113281 413.503906 629.59375 407.960938 629.523438 C 406.867188 629.523438 405.480469 629.375 404.679688 628.425781 C 404.460938 628.0625 404.3125 627.625 404.386719 627.1875 C 404.3125 626.601562 404.460938 626.96875 404.3125 627.039062 L 404.460938 627.40625 L 405.625 626.3125 L 407.960938 624.195312 C 410.804688 621.640625 413.722656 619.085938 416.789062 616.824219 C 422.769531 612.371094 429.261719 608.722656 436.554688 607.042969 C 439.035156 606.53125 438.015625 602.808594 435.535156 603.320312 Z M 435.535156 603.320312 " fill-opacity="1" fill-rule="nonzero"/><path fill="#000000" d="M 401.980469 593.394531 C 400.519531 590.183594 401.542969 586.460938 403.65625 583.832031 C 405.773438 581.207031 407.160156 581.207031 409.054688 580.332031 C 413.503906 578.214844 418.101562 576.460938 422.84375 575.222656 C 425.542969 574.566406 428.3125 574.273438 431.085938 574.273438 C 435.460938 574.054688 439.839844 574.054688 444.144531 574.199219 C 454.28125 574.417969 464.496094 575.148438 474.5625 576.460938 C 478.71875 576.972656 482.878906 577.777344 486.960938 578.726562 C 488.933594 579.234375 490.828125 580.039062 492.871094 580.332031 C 508.554688 582.375 524.382812 584.199219 540.214844 585.730469 C 562.390625 587.921875 584.710938 588.871094 606.960938 588.578125 C 625.707031 588.285156 644.527344 587.628906 663.277344 586.679688 L 664.296875 586.679688 C 666.777344 586.535156 666.777344 582.664062 664.296875 582.8125 C 647.59375 583.613281 630.816406 584.199219 614.109375 584.5625 C 602.144531 584.855469 590.183594 585.074219 578.21875 584.636719 C 566.257812 584.199219 555.898438 583.324219 544.738281 582.226562 C 527.59375 580.695312 510.453125 578.726562 493.308594 576.535156 L 492.140625 576.390625 C 492.507812 576.460938 491.265625 575.953125 490.976562 575.804688 L 488.421875 575.148438 C 484.191406 574.125 479.886719 573.324219 475.582031 572.738281 C 465.226562 571.351562 454.867188 570.550781 444.433594 570.332031 C 437.214844 570.1875 429.117188 569.601562 422.039062 571.425781 C 417.371094 572.667969 412.847656 574.347656 408.472656 576.316406 C 403.585938 578.503906 399.5 581.207031 397.894531 586.679688 C 397.09375 589.527344 397.382812 592.59375 398.625 595.292969 C 399.644531 597.554688 403 595.585938 401.980469 593.394531 Z M 401.980469 593.394531 " fill-opacity="1" fill-rule="nonzero"/><path fill="#6293f1" d="M 343.914062 471.65625 C 343.914062 471.65625 339.027344 461.730469 336.109375 459.6875 C 333.335938 457.714844 322.757812 456.328125 322.757812 456.328125 C 304.742188 455.890625 89.765625 455.671875 89.765625 455.671875 C 89.765625 455.671875 77.730469 456.039062 80.792969 468.808594 C 83.855469 481.582031 126.457031 612.515625 127.699219 616.605469 C 128.9375 620.691406 135.503906 625.433594 146.882812 624.996094 C 158.261719 624.558594 397.96875 622.003906 397.96875 622.003906 C 382.136719 571.132812 364.121094 521.066406 343.914062 471.65625 Z M 343.914062 471.65625 " fill-opacity="1" fill-rule="nonzero"/><path fill="#000000" d="M 399.863281 621.492188 C 389.871094 589.453125 379.074219 557.707031 367.328125 526.320312 C 361.421875 510.484375 355.292969 494.71875 348.945312 479.027344 C 346.464844 472.824219 344.714844 465.671875 339.828125 460.925781 C 331.878906 453.265625 320.425781 454.359375 310.210938 454.285156 L 273.15625 454.066406 L 222.675781 454.066406 L 169.351562 453.921875 L 94.507812 453.921875 C 88.160156 453.921875 80.71875 454.433594 78.75 462.023438 C 77.582031 466.695312 79.40625 471.582031 80.71875 476.035156 L 85.753906 492.3125 C 90.714844 508.222656 95.820312 524.207031 100.925781 540.117188 C 106.03125 556.027344 111.503906 572.957031 116.828125 589.378906 L 125.65625 616.382812 C 129.15625 627.257812 142.578125 627.039062 152.136719 626.820312 L 180.292969 626.457031 L 224.425781 625.871094 L 276.21875 625.289062 L 327.574219 624.703125 L 369.738281 624.265625 L 394.613281 623.976562 L 397.96875 623.976562 C 400.449219 623.976562 400.449219 620.105469 397.96875 620.105469 L 384.910156 620.253906 L 350.917969 620.617188 L 304.085938 621.203125 L 252.292969 621.785156 L 203.5625 622.371094 L 165.921875 622.878906 L 147.246094 623.171875 C 141.265625 623.316406 131.5625 622.371094 129.375 615.507812 C 128.425781 612.445312 127.40625 609.453125 126.457031 606.386719 C 122.152344 593.03125 117.777344 579.746094 113.472656 566.390625 C 108.074219 549.53125 102.605469 532.597656 97.277344 515.738281 C 93.046875 502.601562 88.890625 489.539062 84.949219 476.402344 C 83.855469 472.75 82.035156 468.445312 82.253906 464.578125 C 82.472656 460.707031 86.410156 457.714844 89.910156 457.644531 C 95.675781 457.570312 101.4375 457.714844 107.199219 457.714844 L 145.863281 457.714844 L 196.269531 457.863281 L 248.570312 457.863281 L 293.070312 458.082031 C 302.113281 458.082031 311.085938 458.082031 320.132812 458.226562 C 326.40625 458.300781 332.679688 459.25 337.347656 463.992188 C 339.316406 465.964844 340.851562 468.300781 341.726562 470.925781 C 343.183594 475.378906 345.082031 479.613281 346.832031 483.917969 C 359.160156 514.644531 370.683594 545.589844 381.261719 576.898438 C 386.441406 592.082031 391.328125 607.261719 396.144531 622.515625 C 396.875 624.851562 400.59375 623.828125 399.863281 621.492188 Z M 399.863281 621.492188 " fill-opacity="1" fill-rule="nonzero"/><path fill="#000000" d="M 447.644531 408.523438 C 452.457031 432.464844 449.832031 457.351562 439.984375 479.683594 C 435.679688 489.390625 430.648438 498.660156 431.523438 509.609375 C 431.816406 514.789062 432.910156 519.828125 434.660156 524.714844 C 436.191406 529.023438 438.378906 533.035156 440.421875 537.050781 C 446.039062 548.363281 451.21875 559.894531 454.429688 572.15625 C 455.085938 574.566406 458.804688 573.542969 458.148438 571.132812 C 455.304688 560.257812 450.925781 549.824219 445.964844 539.679688 C 441.589844 530.628906 436.628906 522.015625 435.535156 511.796875 C 434.878906 506.542969 435.390625 501.289062 437.066406 496.253906 C 438.816406 490.996094 441.445312 486.035156 443.632812 481 C 453.699219 457.863281 456.398438 432.246094 451.363281 407.503906 C 450.855469 405.09375 447.132812 406.117188 447.644531 408.523438 Z M 447.644531 408.523438 " fill-opacity="1" fill-rule="nonzero"/><path fill="#000000" d="M 359.011719 500.921875 C 379.148438 480.269531 395.851562 455.671875 408.691406 429.910156 C 414.453125 418.378906 418.246094 405.75 425.324219 394.949219 C 432.398438 384.148438 441.589844 376.703125 453.117188 372.542969 C 462.308594 369.1875 471.863281 369.914062 481.492188 369.695312 C 487.984375 369.476562 494.402344 368.894531 500.824219 367.945312 C 505.636719 367.214844 511.617188 366.339844 515.414062 363.054688 C 517.382812 361.449219 517.964844 359.261719 518.183594 356.777344 C 518.257812 355.539062 517.746094 352.910156 519.132812 352.398438 C 520.519531 351.890625 523.4375 352.398438 525.113281 352.398438 C 532.992188 352.546875 540.945312 352.910156 548.894531 353.421875 C 556.917969 353.714844 564.941406 354.515625 572.894531 355.683594 C 574.207031 355.828125 575.449219 356.121094 576.6875 356.414062 C 577.417969 356.558594 578.585938 357.144531 578.875 357.144531 C 579.167969 357.144531 578.804688 357.4375 578.875 357.070312 C 578.949219 356.707031 578.511719 356.050781 578.511719 356.050781 C 578.511719 356.050781 578.585938 357.582031 578.585938 357.65625 C 578.730469 359.84375 579.167969 361.960938 579.75 364.078125 C 580.480469 366.558594 581.792969 368.820312 583.542969 370.71875 C 585.296875 372.542969 587.996094 369.769531 586.242188 368.019531 C 583.035156 364.734375 582.960938 360.355469 582.378906 356.121094 C 582.085938 354.003906 580.042969 353.277344 578.148438 352.765625 C 571.363281 350.941406 563.921875 350.648438 556.917969 350.0625 C 548.164062 349.40625 539.410156 348.96875 530.65625 348.675781 L 521.6875 348.53125 C 519.496094 348.53125 516.871094 348.3125 515.414062 350.355469 C 513.953125 352.398438 514.609375 355.171875 514.171875 357.507812 C 513.734375 359.84375 511.617188 361.15625 509.210938 362.035156 C 503.375 364.078125 496.882812 364.734375 490.757812 365.246094 C 480.398438 366.195312 469.675781 364.953125 459.316406 366.851562 C 448.957031 368.75 437.503906 375.097656 429.699219 383.273438 C 421.894531 391.445312 415.984375 403.855469 411.097656 415.457031 C 399.644531 442.753906 382.867188 468.589844 363.246094 490.707031 C 360.984375 493.261719 358.648438 495.742188 356.316406 498.222656 C 353.980469 500.703125 357.261719 502.746094 359.011719 500.921875 Z M 359.011719 500.921875 " fill-opacity="1" fill-rule="nonzero"/><path fill="#000000" d="M 385.203125 575.441406 C 387.683594 580.332031 394.539062 572.011719 396.582031 570.257812 C 401.105469 566.316406 405.699219 562.449219 410.222656 558.363281 C 420.433594 549.238281 430.355469 539.386719 437.722656 527.78125 C 439.035156 525.664062 435.679688 523.695312 434.367188 525.8125 C 427.875 536.101562 419.195312 544.933594 410.222656 553.179688 C 406.066406 556.976562 401.832031 560.625 397.601562 564.273438 L 392.351562 568.871094 L 389.871094 571.0625 L 388.777344 572.082031 L 388.265625 572.59375 C 387.683594 572.957031 387.753906 573.25 388.558594 573.46875 C 387.464844 571.28125 384.105469 573.25 385.203125 575.441406 Z M 385.203125 575.441406 " fill-opacity="1" fill-rule="nonzero"/><g clip-path="url(#fc85df864e)"><path fill="#000000" d="M 585.953125 370.863281 C 595.289062 379.039062 605.722656 385.023438 617.101562 389.769531 C 628.480469 394.511719 641.390625 398.234375 651.09375 406.773438 C 659.628906 414.363281 666.414062 424.945312 668.527344 436.257812 C 668.894531 438.300781 669.113281 440.347656 669.402344 442.390625 C 671.226562 454.578125 672.976562 466.765625 674.65625 478.953125 C 677.0625 496.691406 679.398438 514.351562 681.441406 532.085938 C 683.484375 549.824219 685.234375 565.734375 686.253906 582.59375 C 687.058594 595.585938 687.785156 608.941406 682.679688 621.203125 C 674.875 640.105469 655.179688 646.746094 636.210938 648.207031 C 619.070312 649.519531 602 646.234375 585.222656 642.804688 C 566.257812 638.789062 547.4375 633.972656 528.761719 628.863281 C 517.015625 625.582031 505.273438 622.222656 493.675781 618.71875 L 491.921875 618.136719 C 489.515625 617.40625 488.496094 621.128906 490.902344 621.859375 C 499.4375 624.558594 508.117188 627.039062 516.726562 629.523438 C 535.109375 634.703125 553.636719 639.667969 572.238281 643.898438 C 589.378906 647.769531 607.035156 651.78125 624.6875 652.367188 C 642.339844 652.949219 665.757812 649.59375 678.8125 634.703125 C 688.734375 623.390625 690.996094 608.285156 690.632812 593.6875 C 690.265625 579.089844 688.660156 562.375 686.984375 546.832031 C 685.015625 528.292969 682.679688 509.753906 680.199219 491.289062 C 678.230469 476.765625 676.1875 462.242188 674.070312 447.789062 C 673.5625 444.140625 673.050781 440.566406 672.46875 436.914062 C 671.445312 430.710938 669.257812 424.726562 666.121094 419.253906 C 659.992188 408.378906 650.511719 399.695312 639.128906 394.585938 C 627.679688 389.546875 615.570312 385.753906 604.625 379.550781 C 598.9375 376.265625 593.613281 372.46875 588.652344 368.164062 C 586.828125 366.484375 584.054688 369.257812 585.953125 370.863281 Z M 585.953125 370.863281 " fill-opacity="1" fill-rule="nonzero"/></g><path fill="#000000" d="M 434.074219 498.003906 C 435.828125 481.945312 426.269531 529.3125 420.507812 544.347656 L 437.433594 524.425781 C 437.433594 524.425781 432.617188 511.433594 434.074219 498.003906 Z M 434.074219 498.003906 " fill-opacity="1" fill-rule="nonzero"/><path fill="#000000" d="M 610.390625 498.148438 C 610.390625 498.148438 614.183594 561.136719 603.96875 573.46875 C 597.84375 580.695312 588.941406 585 579.460938 585.21875 C 579.460938 585.21875 577.636719 587.335938 596.601562 586.316406 C 615.570312 585.292969 620.164062 592.957031 616.515625 567.851562 C 612.871094 542.742188 610.390625 498.148438 610.390625 498.148438 Z M 610.390625 498.148438 " fill-opacity="1" fill-rule="nonzero"/><path fill="#000000" d="M 523.289062 367.144531 C 536.273438 368.75 549.40625 368.308594 562.316406 366.046875 C 564.796875 365.609375 563.777344 361.886719 561.296875 362.324219 C 548.75 364.515625 535.910156 364.808594 523.289062 363.273438 C 520.808594 362.984375 520.808594 366.851562 523.289062 367.144531 Z M 523.289062 367.144531 " fill-opacity="1" fill-rule="nonzero"/><path fill="#000000" d="M 504.324219 411.371094 C 533.792969 410.714844 563.265625 408.234375 592.445312 403.925781 C 594.851562 403.5625 593.832031 399.765625 591.421875 400.132812 C 562.609375 404.4375 533.503906 406.917969 504.324219 407.503906 C 501.84375 407.574219 501.84375 411.445312 504.324219 411.371094 Z M 504.324219 411.371094 " fill-opacity="1" fill-rule="nonzero"/><path fill="#000000" d="M 525.988281 584.5625 C 532.117188 599.746094 536.347656 615.582031 538.609375 631.785156 C 538.902344 634.265625 542.621094 633.242188 542.328125 630.761719 C 540.066406 614.558594 535.835938 598.722656 529.710938 583.542969 C 528.835938 581.277344 525.042969 582.226562 525.988281 584.5625 Z M 525.988281 584.5625 " fill-opacity="1" fill-rule="nonzero"/><path fill="#000000" d="M 275.488281 450.929688 C 277.75 448.300781 282.054688 447.9375 285.191406 446.914062 C 288.839844 445.675781 292.484375 444.289062 295.988281 442.679688 C 303.136719 439.398438 309.847656 435.238281 316.046875 430.347656 C 318.015625 428.816406 315.316406 426.113281 313.347656 427.648438 C 307.003906 432.609375 300.144531 436.695312 292.777344 439.90625 C 289.203125 441.441406 285.554688 442.753906 281.835938 443.847656 C 278.554688 444.796875 275.050781 445.453125 272.789062 448.226562 C 270.527344 451 273.882812 452.828125 275.488281 450.929688 Z M 275.488281 450.929688 " fill-opacity="1" fill-rule="nonzero"/><path fill="#000000" d="M 257.179688 392.6875 C 263.308594 392.761719 269.363281 393.929688 275.050781 396.191406 C 276.074219 396.480469 277.167969 395.898438 277.386719 394.804688 C 277.605469 393.707031 277.09375 392.6875 276 392.46875 C 269.945312 390.132812 263.597656 388.890625 257.105469 388.820312 C 254.699219 388.820312 254.699219 392.6875 257.179688 392.6875 Z M 257.179688 392.6875 " fill-opacity="1" fill-rule="nonzero"/><path fill="#000000" d="M 471.351562 260.4375 C 472.738281 268.25 473.6875 276.132812 474.195312 284.085938 C 474.636719 291.824219 474.195312 299.632812 474.855469 307.296875 C 475.65625 317.367188 480.03125 327.730469 487.253906 334.808594 C 494.476562 341.890625 501.042969 348.457031 509.796875 351.085938 C 520.738281 354.371094 531.097656 350.28125 540.214844 344.078125 C 546.050781 340.210938 551.375 335.613281 556.117188 330.429688 C 557.941406 328.535156 559.546875 326.417969 560.859375 324.15625 C 562.027344 322.039062 558.671875 320.066406 557.503906 322.257812 C 554.21875 328.167969 548.3125 333.132812 543.058594 337.21875 C 534.523438 343.859375 524.019531 350.503906 512.714844 347.875 C 504.179688 345.832031 497.101562 339.042969 490.976562 333.058594 C 488.933594 331.089844 487.183594 329.410156 485.796875 327.074219 C 482.292969 321.015625 479.375 314.886719 478.71875 307.734375 C 478.0625 300.582031 478.574219 291.96875 478.0625 284.085938 C 477.554688 275.839844 476.53125 267.589844 475.074219 259.417969 C 474.636719 257.007812 470.914062 258.03125 471.351562 260.4375 Z M 471.351562 260.4375 " fill-opacity="1" fill-rule="nonzero"/><path fill="#000000" d="M 571.289062 288.832031 C 573.695312 285.253906 578.730469 280.144531 583.324219 283.574219 C 587.921875 287.003906 587.777344 292.261719 587.265625 296.566406 C 586.535156 301.382812 584.273438 305.835938 580.847656 309.265625 C 577.417969 312.769531 572.894531 316.785156 567.859375 317.441406 C 565.382812 317.730469 565.382812 321.601562 567.859375 321.308594 C 574.355469 320.503906 580.1875 315.835938 584.421875 311.089844 C 588.652344 306.417969 591.132812 300.433594 591.277344 294.15625 C 591.277344 288.609375 589.015625 281.238281 583.253906 279.195312 C 577.492188 277.152344 571.289062 281.898438 568.007812 286.859375 C 566.621094 288.976562 569.976562 290.875 571.289062 288.832031 Z M 571.289062 288.832031 " fill-opacity="1" fill-rule="nonzero"/><path fill="#000000" d="M 583.105469 288.976562 C 579.53125 287.734375 576.394531 290.945312 574.351562 293.429688 C 572.238281 296.054688 570.632812 298.976562 569.539062 302.113281 C 569.246094 303.136719 569.902344 304.15625 570.851562 304.449219 C 570.851562 304.449219 570.851562 304.449219 570.925781 304.449219 C 571.875 304.742188 572.894531 304.230469 573.1875 303.28125 C 573.1875 303.207031 573.1875 303.207031 573.257812 303.136719 C 573.40625 302.769531 573.476562 302.476562 573.625 302.1875 L 573.84375 301.601562 C 573.769531 301.820312 573.84375 301.601562 573.914062 301.53125 L 574.792969 299.703125 L 575.8125 297.953125 L 576.46875 297.078125 L 576.6875 296.785156 C 576.6875 296.785156 577.050781 296.273438 576.832031 296.492188 C 577.636719 295.472656 578.585938 294.449219 579.53125 293.574219 L 579.96875 293.136719 C 579.824219 293.28125 580.042969 293.136719 580.117188 293.136719 L 580.625 292.769531 L 580.773438 292.769531 L 581.285156 292.625 L 581.867188 292.625 C 581.574219 292.625 582.011719 292.699219 582.085938 292.769531 C 583.105469 293.0625 584.203125 292.480469 584.421875 291.457031 C 584.710938 290.4375 584.128906 289.339844 583.105469 289.050781 Z M 583.105469 288.976562 " fill-opacity="1" fill-rule="nonzero"/><path fill="#000000" d="M 574.28125 298.828125 C 574.644531 298.976562 574.0625 298.683594 574.28125 298.828125 L 574.5 298.976562 C 574.425781 298.828125 574.28125 298.828125 574.5 298.976562 L 574.5 299.121094 C 574.644531 299.195312 574.574219 299.195312 574.425781 298.976562 L 574.792969 299.558594 C 574.792969 299.632812 574.863281 299.777344 574.863281 299.851562 C 574.863281 299.925781 574.9375 300.289062 575.011719 300.507812 L 575.011719 301.457031 C 575.011719 301.53125 574.9375 301.96875 575.011719 301.601562 C 575.082031 301.238281 574.9375 301.75 574.9375 301.820312 C 574.863281 302.257812 574.71875 302.625 574.574219 303.0625 L 574.425781 303.355469 L 574.132812 303.863281 L 573.914062 304.15625 L 573.476562 304.667969 L 573.257812 304.8125 L 573.113281 304.960938 L 572.96875 304.960938 L 572.675781 305.179688 C 571.726562 305.691406 571.4375 306.855469 571.945312 307.734375 C 571.945312 307.734375 571.945312 307.734375 571.945312 307.804688 C 572.53125 308.683594 573.625 308.972656 574.574219 308.535156 C 576.832031 307.222656 578.367188 304.960938 578.730469 302.332031 C 579.167969 299.558594 578.292969 295.910156 575.230469 295.035156 C 574.207031 294.742188 573.1875 295.253906 572.820312 296.273438 C 572.820312 296.273438 572.820312 296.347656 572.820312 296.347656 C 572.53125 297.371094 573.113281 298.464844 574.132812 298.828125 C 574.207031 298.828125 574.207031 298.828125 574.28125 298.828125 Z M 574.28125 298.828125 " fill-opacity="1" fill-rule="nonzero"/><path fill="#000000" d="M 486.304688 267.957031 L 487.328125 267.371094 L 487.621094 267.226562 C 487.839844 267.082031 487.253906 267.371094 487.546875 267.226562 L 488.058594 267.082031 L 489.152344 266.789062 C 489.441406 266.714844 489.152344 266.863281 489.078125 266.789062 L 491.265625 266.789062 L 491.851562 266.933594 L 492.359375 267.152344 C 492.652344 267.226562 492.359375 267.152344 492.289062 267.082031 L 492.578125 267.226562 L 493.675781 267.8125 C 494.550781 268.394531 495.714844 268.101562 496.300781 267.152344 C 496.738281 266.203125 496.445312 265.039062 495.570312 264.453125 C 492.140625 262.265625 487.765625 262.265625 484.410156 264.527344 C 483.460938 265.109375 483.167969 266.277344 483.679688 267.226562 C 484.191406 268.101562 485.359375 268.46875 486.304688 267.957031 C 486.304688 267.882812 486.304688 267.882812 486.304688 267.882812 Z M 486.304688 267.957031 " fill-opacity="1" fill-rule="nonzero"/><path fill="#000000" d="M 490.828125 282.261719 C 491.265625 282.699219 491.558594 283.285156 491.703125 283.867188 C 492.140625 285.109375 492.289062 286.496094 492.214844 287.808594 C 492.214844 288.390625 492.070312 288.976562 491.777344 289.488281 C 491.558594 289.996094 491.046875 290.4375 490.464844 290.507812 C 489.589844 290.507812 488.859375 290.070312 488.421875 289.339844 C 487.839844 288.464844 487.546875 287.371094 487.621094 286.347656 C 487.621094 285.328125 487.839844 284.230469 488.203125 283.285156 C 488.277344 282.917969 488.421875 282.554688 488.714844 282.335938 C 489.003906 282.042969 489.441406 281.824219 489.878906 281.824219 C 490.246094 281.824219 490.539062 282.042969 490.828125 282.261719 Z M 490.828125 282.261719 " fill-opacity="1" fill-rule="nonzero"/><path fill="#000000" d="M 489.808594 283.285156 L 490.246094 284.011719 L 490.171875 284.011719 C 490.246094 284.085938 490.246094 284.160156 490.246094 284.230469 C 490.390625 284.449219 490.464844 284.742188 490.539062 285.035156 C 490.609375 285.328125 490.683594 285.691406 490.683594 285.984375 C 490.757812 286.640625 490.828125 287.296875 490.757812 287.953125 L 490.757812 288.171875 C 490.683594 288.320312 490.683594 288.464844 490.609375 288.609375 L 490.609375 288.832031 C 490.683594 288.609375 490.539062 288.832031 490.539062 288.902344 L 490.539062 289.050781 C 490.464844 289.195312 490.683594 288.976562 490.539062 289.050781 L 490.390625 289.195312 C 490.390625 289.195312 490.609375 289.050781 490.464844 289.121094 L 490.246094 289.269531 C 490.320312 289.195312 490.464844 289.195312 490.320312 289.195312 C 490.171875 289.195312 490.171875 289.121094 490.320312 289.195312 L 490.027344 289.195312 L 489.808594 288.976562 C 489.734375 288.902344 489.808594 288.976562 489.808594 289.050781 C 489.808594 289.121094 489.734375 288.902344 489.734375 288.832031 C 489.589844 288.683594 489.515625 288.539062 489.441406 288.390625 C 489.441406 288.390625 489.371094 288.246094 489.441406 288.320312 C 489.515625 288.390625 489.371094 288.246094 489.371094 288.246094 C 489.371094 288.246094 489.296875 287.953125 489.296875 287.808594 C 489.296875 287.664062 489.222656 287.515625 489.152344 287.371094 L 489.152344 286.203125 C 489.152344 286.128906 489.222656 285.765625 489.152344 285.910156 C 489.078125 286.058594 489.222656 285.546875 489.296875 285.398438 C 489.371094 285.035156 489.441406 284.597656 489.589844 284.230469 C 489.589844 284.085938 489.660156 283.867188 489.734375 283.722656 C 489.808594 283.574219 489.734375 283.722656 489.734375 283.792969 C 489.734375 283.867188 489.808594 283.574219 489.660156 283.722656 C 489.515625 283.867188 489.808594 283.648438 489.808594 283.574219 C 489.808594 283.503906 489.660156 283.792969 489.808594 283.648438 C 489.808594 283.574219 489.808594 283.574219 489.878906 283.574219 C 489.589844 283.722656 489.878906 283.648438 489.953125 283.574219 C 490.027344 283.503906 489.660156 283.648438 489.734375 283.503906 L 490.171875 283.792969 C 490.828125 284.230469 491.703125 284.011719 492.070312 283.355469 C 492.070312 283.355469 492.140625 283.285156 492.140625 283.285156 C 492.507812 282.625 492.289062 281.75 491.632812 281.3125 C 490.757812 280.582031 489.515625 280.511719 488.496094 281.019531 C 487.621094 281.53125 486.960938 282.335938 486.816406 283.355469 C 486.085938 285.179688 486.015625 287.152344 486.597656 288.976562 C 487.183594 290.800781 488.859375 292.699219 491.046875 292.1875 C 493.234375 291.675781 493.746094 289.195312 493.746094 287.296875 C 493.746094 286.203125 493.601562 285.109375 493.308594 284.085938 C 493.089844 283.136719 492.578125 282.261719 491.921875 281.53125 C 491.339844 280.949219 490.464844 280.949219 489.878906 281.53125 C 489.441406 282.042969 489.441406 282.773438 489.808594 283.285156 Z M 489.808594 283.285156 " fill-opacity="1" fill-rule="nonzero"/><path fill="#000000" d="M 529.34375 279.050781 C 529.78125 279.488281 530.074219 280 530.21875 280.582031 C 530.65625 281.824219 530.804688 283.210938 530.730469 284.523438 C 530.730469 285.109375 530.585938 285.691406 530.292969 286.203125 C 530.074219 286.714844 529.5625 287.152344 528.980469 287.222656 C 528.179688 287.296875 527.375 286.859375 526.9375 286.128906 C 526.355469 285.253906 526.136719 284.160156 526.136719 283.136719 C 526.136719 282.042969 526.355469 281.019531 526.71875 280 C 526.792969 279.632812 526.9375 279.269531 527.230469 279.050781 C 527.523438 278.757812 527.960938 278.613281 528.398438 278.613281 C 528.761719 278.613281 529.054688 278.832031 529.34375 279.050781 Z M 529.34375 279.050781 " fill-opacity="1" fill-rule="nonzero"/><path fill="#000000" d="M 528.324219 280.070312 L 528.542969 280.363281 L 528.761719 280.730469 C 528.835938 280.875 528.6875 280.730469 528.6875 280.65625 C 528.761719 280.730469 528.761719 280.800781 528.761719 280.875 C 528.90625 281.167969 528.980469 281.457031 529.054688 281.75 C 529.125 282.042969 529.199219 282.335938 529.199219 282.625 C 529.273438 283.285156 529.34375 283.941406 529.273438 284.597656 L 529.273438 284.816406 C 529.199219 284.960938 529.199219 285.109375 529.125 285.253906 L 529.125 285.472656 C 529.125 285.253906 529.054688 285.472656 529.054688 285.472656 C 529.054688 285.546875 529.054688 285.546875 528.980469 285.617188 C 528.90625 285.835938 529.125 285.546875 528.980469 285.617188 L 528.835938 285.765625 C 528.835938 285.765625 528.980469 285.691406 528.90625 285.765625 L 528.761719 285.765625 L 528.542969 285.617188 C 528.46875 285.617188 528.324219 285.472656 528.46875 285.546875 L 528.25 285.398438 C 528.25 285.328125 528.179688 285.328125 528.179688 285.253906 L 527.886719 284.816406 C 527.886719 284.816406 527.8125 284.597656 527.886719 284.742188 L 527.886719 284.597656 C 527.886719 284.449219 527.8125 284.378906 527.8125 284.230469 C 527.742188 284.085938 527.742188 283.867188 527.667969 283.722656 L 527.667969 282.554688 C 527.667969 282.480469 527.742188 282.117188 527.667969 282.335938 C 527.742188 282.117188 527.742188 281.96875 527.742188 281.75 C 527.886719 281.386719 527.960938 281.019531 528.105469 280.65625 C 528.105469 280.511719 528.179688 280.289062 528.324219 280.070312 C 528.25 280 528.25 280.144531 528.179688 280.144531 C 528.105469 280.144531 528.324219 280 528.179688 280.070312 L 528.324219 280.070312 C 528.46875 279.925781 528.179688 280.21875 528.324219 280.070312 C 528.324219 279.925781 528.398438 280.070312 528.398438 280 C 528.398438 279.925781 528.398438 280.070312 528.46875 280.070312 C 528.542969 280.070312 528.179688 280.070312 528.25 280 L 528.6875 280.289062 C 529.34375 280.65625 530.21875 280.4375 530.65625 279.78125 C 531.023438 279.050781 530.804688 278.175781 530.148438 277.738281 C 529.199219 277.078125 528.03125 277.007812 527.011719 277.515625 C 526.136719 277.957031 525.550781 278.832031 525.332031 279.78125 C 524.675781 281.605469 524.605469 283.574219 525.113281 285.398438 C 525.699219 287.222656 527.375 289.195312 529.5625 288.609375 C 531.753906 288.027344 532.261719 285.691406 532.261719 283.722656 C 532.261719 282.625 532.117188 281.53125 531.753906 280.511719 C 531.605469 279.5625 531.097656 278.683594 530.4375 278.027344 C 529.929688 277.371094 529.054688 277.226562 528.398438 277.738281 C 527.742188 278.246094 527.59375 279.125 528.105469 279.78125 C 528.179688 279.925781 528.25 280 528.398438 280.070312 Z M 528.324219 280.070312 " fill-opacity="1" fill-rule="nonzero"/><path fill="#000000" d="M 531.316406 261.679688 C 527.375 259.929688 522.851562 260 519.058594 261.972656 C 518.183594 262.484375 517.820312 263.652344 518.402344 264.597656 C 518.988281 265.476562 520.152344 265.765625 521.027344 265.257812 L 521.613281 264.964844 C 521.246094 265.183594 521.832031 264.890625 521.90625 264.890625 L 523.144531 264.527344 L 523.945312 264.527344 L 525.113281 264.378906 L 526.355469 264.378906 C 526.425781 264.378906 527.15625 264.453125 526.644531 264.378906 L 527.15625 264.378906 L 528.324219 264.671875 L 528.980469 264.890625 L 529.34375 265.039062 C 530.292969 265.546875 531.460938 265.183594 531.972656 264.308594 C 532.410156 263.503906 532.261719 262.117188 531.316406 261.679688 Z M 531.316406 261.679688 " fill-opacity="1" fill-rule="nonzero"/><path fill="#000000" d="M 500.605469 289.269531 C 499.949219 290.800781 499 292.1875 497.90625 293.429688 C 496.664062 294.816406 495.714844 296.421875 494.988281 298.097656 C 493.457031 301.894531 495.132812 305.398438 497.03125 308.609375 C 498.925781 311.820312 501.699219 308.828125 500.386719 306.710938 C 499.507812 305.398438 498.851562 303.9375 498.34375 302.476562 C 498.050781 301.164062 498.34375 299.703125 499 298.539062 C 500.605469 295.617188 503.15625 293.429688 504.398438 290.289062 C 504.6875 289.269531 504.03125 288.171875 503.011719 287.882812 C 501.988281 287.664062 500.894531 288.246094 500.605469 289.269531 Z M 500.605469 289.269531 " fill-opacity="1" fill-rule="nonzero"/><path fill="#000000" d="M 507.386719 322.988281 C 514.027344 323.351562 520.445312 321.015625 525.40625 316.636719 C 526.136719 315.835938 526.136719 314.667969 525.40625 313.863281 C 524.605469 313.207031 523.507812 313.207031 522.707031 313.863281 C 518.476562 317.585938 513.003906 319.484375 507.386719 319.117188 C 506.292969 319.117188 505.492188 319.921875 505.417969 321.015625 C 505.492188 322.109375 506.292969 322.914062 507.386719 322.988281 Z M 507.386719 322.988281 " fill-opacity="1" fill-rule="nonzero"/><path fill="#000000" d="M 475.363281 260.511719 C 474.78125 243.796875 487.621094 229.640625 504.25 228.546875 C 506.730469 228.398438 506.804688 224.53125 504.25 224.675781 C 485.503906 225.84375 470.988281 241.683594 471.496094 260.511719 C 471.570312 262.992188 475.4375 262.992188 475.363281 260.511719 Z M 475.363281 260.511719 " fill-opacity="1" fill-rule="nonzero"/><path fill="#000000" d="M 509.722656 225.625 C 512.128906 217.160156 523.363281 219.785156 528.324219 223.945312 C 534.816406 229.273438 537.808594 237.8125 540.652344 245.40625 C 543.496094 252.996094 546.5625 261.753906 550.5 269.5625 C 553.78125 276.058594 558.085938 282.625 565.015625 285.691406 C 567.277344 286.714844 569.246094 283.355469 566.984375 282.335938 C 560.566406 279.5625 556.847656 273.578125 553.78125 267.589844 C 550.71875 261.605469 547.65625 253.066406 544.882812 245.625 C 540.507812 234.089844 534.890625 218.398438 520.738281 216.285156 C 514.609375 215.40625 507.753906 218.328125 505.929688 224.605469 C 505.273438 227.011719 508.992188 228.035156 509.722656 225.625 Z M 509.722656 225.625 " fill-opacity="1" fill-rule="nonzero"/><path fill="#000000" d="M 516.140625 230.296875 C 522.125 226.574219 529.929688 227.742188 534.671875 232.925781 C 536.347656 234.820312 539.046875 232.046875 537.441406 230.222656 C 531.753906 223.800781 521.46875 222.339844 514.171875 226.9375 C 512.128906 228.253906 514.027344 231.609375 516.140625 230.296875 Z M 516.140625 230.296875 " fill-opacity="1" fill-rule="nonzero"/><path fill="#000000" d="M 505.125 217.742188 C 511.691406 205.847656 524.457031 199.863281 536.640625 195.335938 C 538.972656 194.460938 537.953125 190.738281 535.617188 191.613281 C 522.488281 196.503906 508.847656 203 501.769531 215.84375 C 500.605469 217.960938 503.960938 219.933594 505.125 217.742188 Z M 505.125 217.742188 " fill-opacity="1" fill-rule="nonzero"/><path fill="#000000" d="M 576.394531 333.496094 C 576.394531 330.285156 576.832031 327 579.09375 324.519531 C 581.355469 322.039062 584.347656 320.652344 586.972656 318.828125 C 597.914062 311.527344 605.429688 300.871094 611.046875 289.050781 C 618.339844 273.722656 617.464844 255.402344 612.871094 239.417969 C 610.242188 230.734375 606.597656 222.414062 601.925781 214.679688 C 598.132812 208.328125 593.832031 201.757812 587.777344 197.308594 C 576.761719 189.132812 561.367188 185.703125 547.875 185.628906 C 545.246094 185.628906 542.695312 185.847656 540.140625 185.847656 C 537.371094 185.777344 534.597656 185.921875 531.824219 186.140625 C 509.941406 188.113281 488.128906 197.453125 476.386719 216.792969 C 472.082031 223.875 468.871094 231.976562 466.464844 239.859375 C 464.714844 245.695312 463.402344 251.898438 463.621094 257.957031 C 463.910156 265.109375 466.390625 271.824219 471.789062 276.570312 C 472.664062 277.371094 473.613281 278.101562 474.636719 278.832031 C 476.605469 280.292969 478.574219 276.933594 476.53125 275.472656 C 472.15625 272.335938 469.164062 267.738281 467.996094 262.484375 C 465.445312 249.929688 471.207031 236.0625 476.386719 224.96875 C 481.636719 213.65625 490.390625 204.460938 501.40625 198.621094 C 509.941406 194.242188 519.277344 191.394531 528.835938 190.375 C 533.210938 189.789062 537.589844 189.863281 541.964844 189.71875 C 548.164062 189.570312 554.074219 189.570312 560.273438 190.667969 C 566.476562 191.761719 574.207031 194.023438 580.480469 197.308594 C 586.753906 200.59375 590.914062 205.117188 594.851562 210.882812 C 599.8125 218.035156 603.898438 225.773438 606.960938 233.945312 C 612.503906 248.90625 615.058594 267.226562 609.660156 282.554688 C 606.816406 290.363281 602.65625 297.660156 597.40625 304.15625 C 594.269531 308.097656 590.546875 311.601562 586.390625 314.519531 C 581.210938 318.171875 574.792969 321.015625 573.113281 327.730469 C 572.675781 329.628906 572.53125 331.527344 572.53125 333.496094 C 572.601562 335.976562 576.46875 335.976562 576.394531 333.496094 Z M 576.394531 333.496094 " fill-opacity="1" fill-rule="nonzero"/><path fill="#000000" d="M 606.085938 225.042969 C 608.417969 220.589844 612.941406 218.035156 617.828125 217.453125 C 622.71875 216.867188 628.625 218.839844 633.148438 221.683594 C 642.921875 227.886719 650.363281 237.667969 652.992188 248.980469 C 658.679688 273.359375 645.839844 296.929688 642.484375 320.578125 C 640.882812 332.035156 640.808594 344.589844 648.90625 353.714844 C 650.582031 355.539062 653.28125 352.835938 651.605469 350.941406 C 643.363281 341.671875 644.964844 327.585938 647.15625 316.273438 C 649.636719 303.0625 654.304688 290.4375 656.710938 277.226562 C 658.753906 265.839844 659.191406 253.652344 655.179688 242.632812 C 650.949219 231.539062 642.851562 222.414062 632.417969 216.792969 C 622.570312 211.6875 608.492188 212.195312 602.730469 223.070312 C 601.636719 225.261719 604.917969 227.230469 606.085938 225.042969 Z M 606.085938 225.042969 " fill-opacity="1" fill-rule="nonzero"/><path fill="#000000" d="M 605.429688 224.605469 C 610.390625 223.945312 614.839844 229.710938 617.246094 233.363281 C 619.652344 237.011719 621.550781 241.316406 621.84375 245.625 C 622.0625 249.273438 621.476562 252.921875 620.164062 256.351562 C 619.144531 259.050781 617.464844 262.773438 614.472656 263.722656 C 611.484375 264.671875 613.089844 268.175781 615.496094 267.445312 C 619.433594 266.203125 621.769531 262.484375 623.226562 258.90625 C 624.6875 255.332031 626.144531 249.710938 625.707031 245.113281 C 625.269531 240.515625 622.789062 234.382812 619.652344 230.003906 C 616.515625 225.625 611.335938 219.933594 605.429688 220.734375 C 603.023438 221.027344 602.949219 224.894531 605.429688 224.605469 Z M 605.429688 224.605469 " fill-opacity="1" fill-rule="nonzero"/><path fill="#000000" d="M 598.863281 305.835938 C 599.082031 319.335938 603.53125 332.476562 611.554688 343.351562 C 619.507812 353.933594 631.398438 363.710938 645.257812 364.003906 C 647.738281 364.078125 647.738281 360.210938 645.257812 360.136719 C 632.417969 359.84375 621.113281 350.136719 614.035156 340.136719 C 606.886719 330.140625 602.949219 318.171875 602.730469 305.835938 C 602.65625 303.355469 598.789062 303.355469 598.863281 305.835938 Z M 598.863281 305.835938 " fill-opacity="1" fill-rule="nonzero"/><path fill="#000000" d="M 623.8125 330.210938 C 626.4375 337.4375 629.867188 344.589844 635.265625 350.210938 C 640.664062 355.828125 647.082031 359.042969 654.449219 359.261719 C 656.929688 359.332031 656.929688 355.464844 654.449219 355.390625 C 640.152344 354.953125 631.910156 341.160156 627.53125 329.191406 C 626.65625 326.929688 622.9375 327.875 623.8125 330.210938 Z M 623.8125 330.210938 " fill-opacity="1" fill-rule="nonzero"/><path fill="#000000" d="M 552.761719 331.234375 C 552.761719 331.234375 536.859375 349.335938 516.871094 357.507812 L 514.753906 350.355469 C 514.753906 350.355469 532.480469 346.925781 534.742188 345.539062 C 540.578125 341.816406 552.761719 331.234375 552.761719 331.234375 Z M 552.761719 331.234375 " fill-opacity="1" fill-rule="nonzero"/><path fill="#000000" d="M 576.105469 318.316406 L 576.105469 318.097656 L 575.15625 319.777344 L 575.375 319.628906 L 573.914062 319.847656 L 574.207031 319.847656 L 573.039062 318.972656 C 572.820312 318.609375 572.75 320.433594 572.675781 320.796875 C 572.675781 321.453125 572.601562 322.109375 572.53125 322.769531 C 572.382812 324.226562 572.238281 325.761719 572.164062 327.21875 C 571.945312 330.066406 571.800781 332.839844 571.800781 335.6875 C 571.726562 341.453125 572.238281 347.289062 573.1875 352.984375 C 573.625 355.464844 577.34375 354.441406 576.90625 351.960938 C 575.738281 344.738281 575.375 337.363281 575.8125 330.066406 C 576.03125 326.417969 576.46875 322.769531 576.761719 319.117188 C 576.832031 317.804688 576.394531 316.34375 574.9375 316.054688 C 573.695312 315.835938 572.53125 316.636719 572.3125 317.804688 C 572.3125 317.949219 572.238281 318.097656 572.238281 318.242188 C 572.09375 320.722656 575.957031 320.722656 576.105469 318.242188 Z M 576.105469 318.316406 " fill-opacity="1" fill-rule="nonzero"/><path fill="#000000" d="M 574.9375 347.144531 C 566.765625 347.144531 560.128906 338.605469 560.128906 328.242188 C 560.128906 320.652344 563.558594 313.863281 568.957031 310.871094 C 569.902344 310.359375 571.070312 310.726562 571.582031 311.601562 C 572.09375 312.476562 571.800781 313.644531 570.925781 314.230469 C 570.925781 314.230469 570.925781 314.230469 570.851562 314.230469 C 566.695312 316.5625 563.996094 322.039062 563.996094 328.242188 C 563.996094 336.488281 568.882812 343.277344 574.9375 343.277344 C 580.992188 343.277344 585.878906 336.488281 585.878906 328.242188 C 585.878906 322.039062 583.179688 316.5625 579.023438 314.230469 C 578.074219 313.71875 577.710938 312.550781 578.21875 311.601562 C 578.804688 310.726562 579.898438 310.433594 580.847656 310.871094 C 586.242188 313.863281 589.746094 320.652344 589.746094 328.242188 C 589.746094 338.605469 583.105469 347.144531 574.9375 347.144531 Z M 574.9375 347.144531 " fill-opacity="1" fill-rule="nonzero"/><path fill="#000000" d="M 483.460938 347.144531 C 475.511719 347.144531 469.019531 338.824219 469.019531 328.679688 C 469.019531 322.550781 471.425781 316.785156 475.4375 313.351562 L 476.824219 314.738281 L 478.0625 316.199219 C 474.78125 318.972656 472.882812 323.644531 472.882812 328.679688 C 472.882812 336.707031 477.625 343.277344 483.460938 343.277344 C 486.890625 343.277344 490.171875 340.941406 492.140625 337 L 495.570312 338.824219 C 492.945312 344.007812 488.421875 347.144531 483.460938 347.144531 Z M 483.460938 347.144531 " fill-opacity="1" fill-rule="nonzero"/><path fill="#000000" d="M 481.492188 545.808594 C 504.105469 544.421875 526.863281 546.246094 548.96875 551.210938 C 551.375 551.792969 552.394531 548.070312 549.988281 547.488281 C 527.519531 542.453125 504.46875 540.554688 481.492188 541.941406 C 479.011719 542.085938 478.9375 545.953125 481.492188 545.808594 Z M 481.492188 545.808594 " fill-opacity="1" fill-rule="nonzero"/><path fill="#ffe397" d="M 422.988281 331.308594 C 422.988281 332.519531 422.929688 333.734375 422.808594 334.941406 C 422.691406 336.148438 422.511719 337.347656 422.277344 338.539062 C 422.039062 339.730469 421.746094 340.90625 421.390625 342.070312 C 421.039062 343.230469 420.632812 344.375 420.167969 345.496094 C 419.703125 346.617188 419.183594 347.714844 418.613281 348.785156 C 418.039062 349.855469 417.417969 350.894531 416.742188 351.90625 C 416.070312 352.914062 415.347656 353.890625 414.578125 354.828125 C 413.804688 355.765625 412.992188 356.664062 412.132812 357.523438 C 411.277344 358.382812 410.378906 359.195312 409.441406 359.96875 C 408.5 360.738281 407.527344 361.460938 406.519531 362.136719 C 405.507812 362.808594 404.46875 363.433594 403.398438 364.003906 C 402.328125 364.578125 401.234375 365.097656 400.113281 365.5625 C 398.992188 366.027344 397.847656 366.433594 396.6875 366.785156 C 395.527344 367.140625 394.351562 367.433594 393.160156 367.671875 C 391.96875 367.90625 390.769531 368.085938 389.5625 368.203125 C 388.355469 368.324219 387.144531 368.382812 385.929688 368.382812 C 384.71875 368.382812 383.507812 368.324219 382.296875 368.203125 C 381.089844 368.085938 379.890625 367.90625 378.703125 367.671875 C 377.511719 367.433594 376.335938 367.140625 375.175781 366.785156 C 374.011719 366.433594 372.871094 366.027344 371.75 365.5625 C 370.628906 365.097656 369.53125 364.578125 368.460938 364.003906 C 367.390625 363.433594 366.351562 362.808594 365.34375 362.136719 C 364.335938 361.460938 363.359375 360.738281 362.421875 359.96875 C 361.484375 359.195312 360.585938 358.382812 359.726562 357.523438 C 358.871094 356.664062 358.054688 355.765625 357.285156 354.828125 C 356.515625 353.890625 355.792969 352.914062 355.117188 351.90625 C 354.445312 350.894531 353.820312 349.855469 353.25 348.785156 C 352.675781 347.714844 352.160156 346.617188 351.695312 345.496094 C 351.230469 344.375 350.820312 343.230469 350.46875 342.070312 C 350.117188 340.90625 349.824219 339.730469 349.585938 338.539062 C 349.347656 337.347656 349.171875 336.148438 349.050781 334.941406 C 348.933594 333.734375 348.875 332.519531 348.875 331.308594 C 348.875 330.09375 348.933594 328.882812 349.050781 327.671875 C 349.171875 326.464844 349.347656 325.265625 349.585938 324.074219 C 349.824219 322.882812 350.117188 321.707031 350.46875 320.542969 C 350.820312 319.382812 351.230469 318.242188 351.695312 317.117188 C 352.160156 315.996094 352.675781 314.902344 353.25 313.828125 C 353.820312 312.757812 354.445312 311.71875 355.117188 310.707031 C 355.792969 309.699219 356.515625 308.726562 357.285156 307.785156 C 358.054688 306.847656 358.871094 305.949219 359.726562 305.089844 C 360.585938 304.230469 361.484375 303.417969 362.421875 302.648438 C 363.359375 301.875 364.335938 301.152344 365.34375 300.480469 C 366.351562 299.804688 367.390625 299.179688 368.460938 298.609375 C 369.53125 298.035156 370.628906 297.519531 371.75 297.054688 C 372.871094 296.589844 374.011719 296.179688 375.175781 295.828125 C 376.335938 295.476562 377.511719 295.179688 378.703125 294.945312 C 379.890625 294.707031 381.089844 294.527344 382.296875 294.410156 C 383.507812 294.289062 384.71875 294.230469 385.929688 294.230469 C 387.144531 294.230469 388.355469 294.289062 389.5625 294.410156 C 390.769531 294.527344 391.96875 294.707031 393.160156 294.945312 C 394.351562 295.179688 395.527344 295.476562 396.6875 295.828125 C 397.847656 296.179688 398.992188 296.589844 400.113281 297.054688 C 401.234375 297.519531 402.328125 298.035156 403.398438 298.609375 C 404.46875 299.179688 405.507812 299.804688 406.519531 300.480469 C 407.527344 301.152344 408.5 301.875 409.441406 302.648438 C 410.378906 303.417969 411.277344 304.230469 412.132812 305.089844 C 412.992188 305.949219 413.804688 306.847656 414.578125 307.785156 C 415.347656 308.726562 416.070312 309.699219 416.742188 310.707031 C 417.417969 311.71875 418.039062 312.757812 418.613281 313.828125 C 419.183594 314.902344 419.703125 315.996094 420.167969 317.117188 C 420.632812 318.242188 421.039062 319.382812 421.390625 320.542969 C 421.746094 321.707031 422.039062 322.882812 422.277344 324.074219 C 422.511719 325.265625 422.691406 326.464844 422.808594 327.671875 C 422.929688 328.882812 422.988281 330.09375 422.988281 331.308594 Z M 422.988281 331.308594 " fill-opacity="1" fill-rule="nonzero"/><path fill="#000000" d="M 385.929688 370.355469 C 364.410156 370.355469 346.902344 352.835938 346.902344 331.308594 C 346.902344 309.777344 364.410156 292.261719 385.929688 292.261719 C 407.449219 292.261719 424.957031 309.777344 424.957031 331.308594 C 424.957031 352.835938 407.449219 370.355469 385.929688 370.355469 Z M 385.929688 296.203125 C 366.527344 296.203125 350.769531 311.964844 350.769531 331.378906 C 350.769531 350.792969 366.527344 366.558594 385.929688 366.558594 C 405.335938 366.558594 421.089844 350.792969 421.089844 331.378906 C 421.089844 331.378906 421.089844 331.308594 421.089844 331.308594 C 421.019531 311.894531 405.335938 296.203125 385.929688 296.203125 Z M 385.929688 296.203125 " fill-opacity="1" fill-rule="nonzero"/><path fill="#000000" d="M 396.144531 317.878906 C 392.351562 314.230469 387.171875 311.746094 382.136719 314.59375 C 377.105469 317.441406 375.792969 322.183594 377.90625 326.488281 C 380.023438 330.796875 385.273438 331.089844 389.433594 332.695312 C 391.257812 333.421875 392.640625 335.101562 392.933594 337.074219 C 393.296875 339.042969 392.421875 340.503906 390.964844 341.890625 C 389.503906 343.277344 387.390625 343.714844 385.054688 343.058594 C 382.503906 342.328125 380.242188 340.796875 378.5625 338.75 C 377.105469 336.78125 373.75 338.679688 375.28125 340.648438 C 378.050781 344.445312 382.574219 347.21875 387.390625 347.289062 C 392.203125 347.363281 396.144531 343.496094 396.800781 339.261719 C 397.382812 334.664062 394.613281 330.359375 390.234375 328.898438 C 386.953125 327.804688 380.242188 327.367188 380.96875 322.332031 C 381.410156 319.921875 383.160156 318.023438 385.492188 317.367188 C 388.628906 316.5625 391.328125 318.535156 393.445312 320.578125 C 395.558594 322.621094 397.96875 319.558594 396.144531 317.878906 Z M 396.144531 317.878906 " fill-opacity="1" fill-rule="nonzero"/><path fill="#000000" d="M 384.835938 309.996094 L 384.835938 313.644531 C 384.835938 314.15625 385.054688 314.667969 385.347656 315.03125 C 385.710938 315.398438 386.222656 315.542969 386.734375 315.542969 C 387.242188 315.542969 387.753906 315.398438 388.121094 315.03125 C 388.484375 314.667969 388.703125 314.15625 388.703125 313.644531 L 388.703125 309.996094 C 388.703125 309.484375 388.484375 308.972656 388.121094 308.609375 C 387.316406 307.953125 386.148438 307.953125 385.347656 308.609375 C 385.054688 308.972656 384.835938 309.484375 384.835938 309.996094 Z M 384.835938 309.996094 " fill-opacity="1" fill-rule="nonzero"/><path fill="#000000" d="M 384.835938 346.34375 L 384.835938 352.691406 C 384.617188 353.785156 385.347656 354.808594 386.367188 355.027344 C 387.464844 355.246094 388.484375 354.515625 388.703125 353.496094 C 388.777344 353.277344 388.777344 352.984375 388.703125 352.765625 L 388.703125 346.414062 C 388.484375 345.320312 387.464844 344.664062 386.367188 344.882812 C 385.640625 344.957031 384.984375 345.539062 384.835938 346.34375 Z M 384.835938 346.34375 " fill-opacity="1" fill-rule="nonzero"/><path fill="#ffe397" d="M 446.84375 201.613281 C 446.84375 202.34375 446.804688 203.070312 446.734375 203.796875 C 446.664062 204.519531 446.554688 205.242188 446.414062 205.957031 C 446.273438 206.671875 446.09375 207.378906 445.882812 208.074219 C 445.671875 208.773438 445.425781 209.457031 445.148438 210.132812 C 444.871094 210.804688 444.558594 211.464844 444.214844 212.105469 C 443.871094 212.75 443.496094 213.375 443.09375 213.980469 C 442.6875 214.585938 442.253906 215.171875 441.792969 215.734375 C 441.328125 216.300781 440.839844 216.839844 440.324219 217.355469 C 439.808594 217.871094 439.269531 218.359375 438.707031 218.820312 C 438.144531 219.285156 437.558594 219.71875 436.953125 220.121094 C 436.347656 220.527344 435.722656 220.902344 435.082031 221.246094 C 434.4375 221.589844 433.78125 221.902344 433.105469 222.179688 C 432.433594 222.457031 431.75 222.703125 431.050781 222.914062 C 430.355469 223.128906 429.648438 223.304688 428.933594 223.445312 C 428.21875 223.589844 427.5 223.695312 426.773438 223.765625 C 426.046875 223.839844 425.320312 223.875 424.59375 223.875 C 423.863281 223.875 423.136719 223.839844 422.414062 223.765625 C 421.6875 223.695312 420.96875 223.589844 420.253906 223.445312 C 419.539062 223.304688 418.832031 223.128906 418.132812 222.914062 C 417.4375 222.703125 416.75 222.457031 416.078125 222.179688 C 415.40625 221.902344 414.746094 221.589844 414.105469 221.246094 C 413.460938 220.902344 412.839844 220.527344 412.230469 220.121094 C 411.625 219.71875 411.042969 219.285156 410.476562 218.820312 C 409.914062 218.359375 409.375 217.871094 408.859375 217.355469 C 408.34375 216.839844 407.855469 216.300781 407.394531 215.734375 C 406.933594 215.171875 406.5 214.585938 406.09375 213.980469 C 405.6875 213.375 405.316406 212.75 404.972656 212.105469 C 404.628906 211.464844 404.316406 210.804688 404.039062 210.132812 C 403.757812 209.457031 403.511719 208.773438 403.300781 208.074219 C 403.089844 207.378906 402.914062 206.671875 402.773438 205.957031 C 402.628906 205.242188 402.523438 204.519531 402.453125 203.796875 C 402.378906 203.070312 402.34375 202.34375 402.34375 201.613281 C 402.34375 200.882812 402.378906 200.15625 402.453125 199.433594 C 402.523438 198.707031 402.628906 197.984375 402.773438 197.269531 C 402.914062 196.554688 403.089844 195.847656 403.300781 195.152344 C 403.511719 194.453125 403.757812 193.769531 404.039062 193.09375 C 404.316406 192.421875 404.628906 191.761719 404.972656 191.121094 C 405.316406 190.476562 405.6875 189.851562 406.09375 189.246094 C 406.5 188.640625 406.933594 188.054688 407.394531 187.492188 C 407.855469 186.929688 408.34375 186.390625 408.859375 185.875 C 409.375 185.359375 409.914062 184.867188 410.476562 184.40625 C 411.042969 183.945312 411.625 183.511719 412.230469 183.105469 C 412.839844 182.699219 413.460938 182.324219 414.105469 181.980469 C 414.746094 181.636719 415.40625 181.328125 416.078125 181.046875 C 416.75 180.769531 417.4375 180.523438 418.132812 180.3125 C 418.832031 180.101562 419.539062 179.921875 420.253906 179.78125 C 420.96875 179.640625 421.6875 179.53125 422.414062 179.460938 C 423.136719 179.390625 423.863281 179.351562 424.59375 179.351562 C 425.320312 179.351562 426.046875 179.390625 426.773438 179.460938 C 427.5 179.53125 428.21875 179.640625 428.933594 179.78125 C 429.648438 179.921875 430.355469 180.101562 431.050781 180.3125 C 431.75 180.523438 432.433594 180.769531 433.105469 181.046875 C 433.78125 181.328125 434.4375 181.636719 435.082031 181.980469 C 435.722656 182.324219 436.347656 182.699219 436.953125 183.105469 C 437.558594 183.511719 438.144531 183.945312 438.707031 184.40625 C 439.269531 184.867188 439.808594 185.359375 440.324219 185.875 C 440.839844 186.390625 441.328125 186.929688 441.792969 187.492188 C 442.253906 188.054688 442.6875 188.640625 443.09375 189.246094 C 443.496094 189.851562 443.871094 190.476562 444.214844 191.121094 C 444.558594 191.761719 444.871094 192.421875 445.148438 193.09375 C 445.425781 193.769531 445.671875 194.453125 445.882812 195.152344 C 446.09375 195.847656 446.273438 196.554688 446.414062 197.269531 C 446.554688 197.984375 446.664062 198.707031 446.734375 199.433594 C 446.804688 200.15625 446.84375 200.882812 446.84375 201.613281 Z M 446.84375 201.613281 " fill-opacity="1" fill-rule="nonzero"/><path fill="#000000" d="M 424.59375 225.773438 C 411.242188 225.773438 400.375 214.898438 400.375 201.539062 C 400.375 188.183594 411.242188 177.308594 424.59375 177.308594 C 437.941406 177.308594 448.8125 188.183594 448.8125 201.539062 C 448.8125 201.539062 448.8125 201.613281 448.8125 201.613281 C 448.738281 214.96875 437.941406 225.773438 424.59375 225.773438 Z M 424.59375 181.25 C 413.359375 181.25 404.242188 190.375 404.242188 201.613281 C 404.242188 212.851562 413.359375 221.976562 424.59375 221.976562 C 435.828125 221.976562 444.945312 212.851562 444.945312 201.613281 C 444.945312 190.375 435.828125 181.25 424.59375 181.25 Z M 424.59375 181.25 " fill-opacity="1" fill-rule="nonzero"/><path fill="#000000" d="M 431.304688 192.929688 C 428.75 190.519531 425.25 188.988281 421.894531 190.886719 C 418.539062 192.78125 417.664062 196.140625 419.121094 199.058594 C 419.851562 200.445312 421.089844 201.46875 422.550781 201.980469 C 423.863281 202.488281 425.25 202.636719 426.488281 203.144531 C 427.292969 203.585938 427.949219 204.3125 428.09375 205.261719 C 428.167969 205.554688 428.09375 204.972656 428.09375 205.335938 L 428.09375 205.773438 C 428.09375 206.066406 428.167969 205.480469 428.09375 205.847656 C 428.023438 206.210938 428.023438 206.066406 428.023438 206.210938 C 427.949219 206.359375 427.875 206.503906 427.730469 206.648438 L 427.074219 207.378906 L 426.417969 207.890625 L 426.269531 207.890625 C 426.199219 207.964844 425.613281 208.035156 425.980469 208.035156 C 425.394531 208.109375 424.8125 208.035156 424.300781 207.816406 C 422.914062 207.453125 421.75 206.648438 420.871094 205.554688 C 420.289062 204.679688 419.121094 204.386719 418.246094 204.898438 C 417.296875 205.410156 417.007812 206.578125 417.515625 207.453125 C 417.515625 207.453125 417.515625 207.453125 417.515625 207.527344 C 419.414062 210.152344 422.332031 211.757812 425.542969 211.90625 C 428.386719 211.90625 431.449219 209.351562 431.886719 206.503906 C 432.324219 203.367188 430.429688 200.300781 427.4375 199.277344 C 426.125 198.984375 424.886719 198.621094 423.644531 198.183594 C 423.28125 198.039062 422.914062 197.820312 422.695312 197.453125 C 422.550781 197.308594 422.40625 197.089844 422.40625 196.871094 L 422.40625 196.359375 C 422.550781 195.191406 423.425781 194.167969 424.59375 193.878906 C 426.125 193.511719 427.511719 194.535156 428.53125 195.628906 C 429.554688 196.722656 433.128906 194.605469 431.304688 192.929688 Z M 431.304688 192.929688 " fill-opacity="1" fill-rule="nonzero"/><path fill="#000000" d="M 423.132812 188.769531 L 423.132812 190.957031 C 423.132812 191.25 423.207031 191.46875 423.351562 191.6875 C 423.425781 191.90625 423.570312 192.199219 423.71875 192.34375 C 423.863281 192.5625 424.15625 192.636719 424.375 192.710938 C 424.59375 192.855469 424.8125 192.929688 425.105469 192.929688 C 425.613281 192.855469 426.125 192.710938 426.488281 192.34375 C 426.78125 191.980469 427 191.46875 427 190.957031 L 427 188.769531 C 427.074219 188.550781 427 188.257812 426.855469 188.039062 C 426.78125 187.820312 426.636719 187.601562 426.488281 187.453125 C 426.269531 187.234375 426.050781 187.089844 425.832031 187.015625 C 425.613281 186.871094 425.324219 186.871094 425.105469 186.871094 C 424.59375 186.871094 424.082031 187.089844 423.71875 187.453125 C 423.351562 187.820312 423.132812 188.257812 423.132812 188.769531 Z M 423.132812 188.769531 " fill-opacity="1" fill-rule="nonzero"/><path fill="#000000" d="M 423.132812 210.589844 L 423.132812 214.386719 C 423.132812 215.480469 424.007812 216.355469 425.105469 216.355469 C 425.613281 216.355469 426.125 216.136719 426.488281 215.773438 C 426.855469 215.40625 427 214.898438 427 214.386719 L 427 210.589844 C 426.925781 209.496094 426.050781 208.691406 424.957031 208.691406 C 424.519531 208.691406 424.082031 208.914062 423.71875 209.203125 C 423.351562 209.570312 423.132812 210.078125 423.132812 210.589844 Z M 423.132812 210.589844 " fill-opacity="1" fill-rule="nonzero"/><g clip-path="url(#f7549a9dc9)"><path fill="#000000" d="M 353.03125 280.730469 L 135.503906 280.730469 C 130.617188 280.730469 126.675781 276.789062 126.675781 271.898438 L 126.675781 124.03125 C 126.75 119.140625 130.617188 115.273438 135.503906 115.199219 L 353.03125 115.199219 C 357.917969 115.273438 361.785156 119.140625 361.859375 124.03125 L 361.859375 271.898438 C 361.859375 276.789062 357.917969 280.730469 353.03125 280.730469 Z M 135.503906 119.066406 C 132.804688 119.140625 130.617188 121.332031 130.542969 124.03125 L 130.542969 271.898438 C 130.542969 274.671875 132.730469 276.859375 135.503906 276.859375 L 353.03125 276.859375 C 355.804688 276.859375 357.992188 274.671875 357.992188 271.898438 L 357.992188 124.03125 C 357.917969 121.332031 355.730469 119.140625 353.03125 119.066406 Z M 135.503906 119.066406 " fill-opacity="1" fill-rule="nonzero"/></g><path fill="#6293f1" d="M 161.179688 167.09375 L 175.113281 167.09375 L 175.113281 196.722656 L 161.179688 196.722656 Z M 161.179688 167.09375 " fill-opacity="1" fill-rule="nonzero"/><path fill="#000000" d="M 177.011719 198.621094 L 159.210938 198.621094 L 159.210938 165.121094 L 177.011719 165.121094 Z M 163.078125 194.753906 L 173.144531 194.753906 L 173.144531 168.988281 L 163.078125 168.988281 Z M 163.078125 194.753906 " fill-opacity="1" fill-rule="nonzero"/><path fill="#6293f1" d="M 189.777344 152.785156 L 203.710938 152.785156 L 203.710938 196.722656 L 189.777344 196.722656 Z M 189.777344 152.785156 " fill-opacity="1" fill-rule="nonzero"/><path fill="#000000" d="M 205.679688 198.621094 L 187.878906 198.621094 L 187.878906 150.890625 L 205.679688 150.890625 Z M 191.746094 194.753906 L 201.8125 194.753906 L 201.8125 154.757812 L 191.746094 154.757812 Z M 191.746094 194.753906 " fill-opacity="1" fill-rule="nonzero"/><path fill="#6293f1" d="M 218.445312 142.933594 L 232.378906 142.933594 L 232.378906 196.722656 L 218.445312 196.722656 Z M 218.445312 142.933594 " fill-opacity="1" fill-rule="nonzero"/><path fill="#000000" d="M 234.273438 198.621094 L 216.476562 198.621094 L 216.476562 141.035156 L 234.273438 141.035156 Z M 220.339844 194.753906 L 230.40625 194.753906 L 230.40625 144.90625 L 220.339844 144.90625 Z M 220.339844 194.753906 " fill-opacity="1" fill-rule="nonzero"/><path fill="#6293f1" d="M 247.039062 166.800781 L 260.972656 166.800781 L 260.972656 196.722656 L 247.039062 196.722656 Z M 247.039062 166.800781 " fill-opacity="1" fill-rule="nonzero"/><path fill="#000000" d="M 262.941406 198.621094 L 245.070312 198.621094 L 245.070312 164.828125 L 262.941406 164.828125 Z M 248.9375 194.753906 L 259.074219 194.753906 L 259.074219 168.699219 L 248.9375 168.699219 Z M 248.9375 194.753906 " fill-opacity="1" fill-rule="nonzero"/><path fill="#000000" d="M 287.671875 162.054688 L 335.523438 162.054688 L 335.523438 165.925781 L 287.671875 165.925781 Z M 287.671875 162.054688 " fill-opacity="1" fill-rule="nonzero"/><path fill="#000000" d="M 287.671875 174.972656 L 335.523438 174.972656 L 335.523438 178.84375 L 287.671875 178.84375 Z M 287.671875 174.972656 " fill-opacity="1" fill-rule="nonzero"/><path fill="#000000" d="M 287.671875 187.894531 L 335.523438 187.894531 L 335.523438 191.761719 L 287.671875 191.761719 Z M 287.671875 187.894531 " fill-opacity="1" fill-rule="nonzero"/><path fill="#a3dfbe" d="M 311.160156 225.625 L 282.785156 228.105469 L 242.515625 242.121094 L 200.9375 235.40625 L 167.453125 250.585938 L 159.210938 253.871094 L 334.648438 253.871094 L 334.648438 216.429688 Z M 311.160156 225.625 " fill-opacity="1" fill-rule="nonzero"/><path fill="#000000" d="M 334.648438 255.839844 L 159.210938 255.839844 C 158.261719 255.839844 157.460938 255.183594 157.316406 254.234375 C 157.097656 253.359375 157.605469 252.410156 158.480469 252.117188 L 166.726562 248.835938 L 200.132812 233.652344 C 200.5 233.507812 200.9375 233.433594 201.300781 233.507812 L 242.371094 240.148438 L 282.128906 226.28125 L 282.566406 226.28125 L 310.648438 223.800781 L 333.917969 214.679688 C 334.503906 214.457031 335.234375 214.53125 335.742188 214.898438 C 336.253906 215.261719 336.546875 215.84375 336.546875 216.503906 L 336.546875 253.945312 C 336.472656 254.964844 335.671875 255.769531 334.648438 255.839844 Z M 169.132812 251.972656 L 332.679688 251.972656 L 332.679688 219.277344 L 311.816406 227.449219 L 311.304688 227.597656 L 283.148438 230.003906 L 243.171875 243.945312 C 242.882812 244.089844 242.515625 244.089844 242.226562 244.019531 L 201.230469 237.449219 Z M 169.132812 251.972656 " fill-opacity="1" fill-rule="nonzero"/><path fill="#000000" d="M 159.574219 253.726562 C 158.554688 253.726562 157.679688 252.847656 157.679688 251.828125 L 157.679688 217.523438 C 157.460938 216.429688 158.191406 215.40625 159.210938 215.1875 C 160.304688 214.96875 161.328125 215.699219 161.546875 216.722656 C 161.617188 216.941406 161.617188 217.230469 161.546875 217.453125 L 161.546875 251.753906 C 161.472656 252.921875 160.671875 253.726562 159.574219 253.726562 Z M 159.574219 253.726562 " fill-opacity="1" fill-rule="nonzero"/><path fill="#a3dfbe" d="M 120.695312 316.273438 C 117.777344 316.273438 114.785156 316.5625 111.941406 317.148438 L 120.914062 358.3125 L 79.699219 349.335938 C 79.117188 352.253906 78.75 355.171875 78.75 358.164062 C 78.675781 381.375 97.425781 400.132812 120.621094 400.203125 C 143.820312 400.277344 162.566406 381.519531 162.640625 358.3125 C 162.710938 335.101562 143.964844 316.34375 120.695312 316.273438 C 120.769531 316.273438 120.695312 316.273438 120.695312 316.273438 Z M 120.695312 316.273438 " fill-opacity="1" fill-rule="nonzero"/><g clip-path="url(#971643ef11)"><path fill="#000000" d="M 120.695312 402.101562 C 96.476562 402.027344 76.855469 382.394531 76.855469 358.164062 C 76.855469 355.027344 77.144531 351.960938 77.875 348.894531 C 77.949219 348.386719 78.238281 347.949219 78.675781 347.65625 C 79.117188 347.4375 79.625 347.289062 80.136719 347.4375 L 118.359375 355.757812 L 110.117188 317.585938 C 109.972656 317.074219 110.042969 316.5625 110.335938 316.125 C 110.628906 315.6875 111.066406 315.398438 111.578125 315.324219 C 114.566406 314.667969 117.632812 314.300781 120.695312 314.300781 C 144.914062 315.324219 163.808594 335.757812 162.785156 359.988281 C 161.835938 382.835938 143.527344 401.152344 120.695312 402.101562 Z M 81.230469 351.742188 C 80.867188 353.859375 80.71875 355.976562 80.71875 358.164062 C 80.71875 379.769531 98.226562 397.210938 119.746094 397.210938 C 141.265625 397.210938 158.773438 379.695312 158.773438 358.164062 C 158.773438 336.5625 141.265625 319.117188 119.746094 319.117188 C 117.632812 319.117188 115.589844 319.335938 113.472656 319.628906 L 121.789062 357.875 C 122.007812 358.894531 121.425781 359.84375 120.402344 360.0625 C 120.113281 360.136719 119.820312 360.136719 119.527344 360.0625 Z M 81.230469 351.742188 " fill-opacity="1" fill-rule="nonzero"/></g><path fill="#6293f1" d="M 111.941406 317.074219 C 95.820312 320.503906 83.128906 333.132812 79.625 349.261719 L 120.914062 358.3125 Z M 111.941406 317.074219 " fill-opacity="1" fill-rule="nonzero"/><path fill="#000000" d="M 120.914062 360.210938 L 120.476562 360.210938 L 79.1875 351.160156 C 78.167969 350.941406 77.511719 349.917969 77.730469 348.894531 C 81.375 331.964844 94.652344 318.753906 111.578125 315.175781 C 112.597656 314.957031 113.621094 315.617188 113.839844 316.636719 L 122.8125 357.875 C 122.957031 358.53125 122.738281 359.1875 122.300781 359.625 C 121.933594 359.988281 121.425781 360.210938 120.914062 360.210938 Z M 81.960938 347.800781 L 118.359375 355.757812 L 110.484375 319.410156 C 96.550781 323.058594 85.679688 333.933594 81.960938 347.800781 Z M 81.960938 347.800781 " fill-opacity="1" fill-rule="nonzero"/><path fill="#000000" d="M 79.699219 349.335938 L 78.96875 355.320312 C 78.96875 355.320312 113.253906 357.800781 117.703125 358.382812 Z M 79.699219 349.335938 " fill-opacity="1" fill-rule="nonzero"/><path fill="#000000" d="M 117.703125 358.382812 L 118.140625 358.53125 C 118.140625 358.53125 117.996094 358.457031 117.703125 358.382812 Z M 117.703125 358.382812 " fill-opacity="1" fill-rule="nonzero"/><path fill="#ffffff" d="M 242.113281 520.058594 C 242.746094 520.496094 243.359375 520.957031 243.953125 521.449219 C 244.546875 521.9375 245.117188 522.449219 245.664062 522.984375 C 246.210938 523.519531 246.730469 524.078125 247.226562 524.652344 C 247.722656 525.230469 248.191406 525.828125 248.632812 526.441406 C 249.074219 527.054688 249.480469 527.683594 249.863281 528.328125 C 250.242188 528.972656 250.589844 529.628906 250.90625 530.296875 C 251.222656 530.964844 251.507812 531.644531 251.753906 532.328125 C 252.003906 533.015625 252.21875 533.707031 252.398438 534.402344 C 252.578125 535.101562 252.722656 535.800781 252.832031 536.503906 C 252.941406 537.203125 253.015625 537.90625 253.054688 538.605469 C 253.089844 539.304688 253.089844 539.996094 253.054688 540.6875 C 253.019531 541.378906 252.949219 542.058594 252.839844 542.734375 C 252.734375 543.410156 252.589844 544.074219 252.414062 544.726562 C 252.234375 545.375 252.023438 546.015625 251.773438 546.636719 C 251.527344 547.261719 251.246094 547.867188 250.929688 548.457031 C 250.617188 549.046875 250.269531 549.617188 249.890625 550.164062 C 249.511719 550.714844 249.105469 551.238281 248.664062 551.742188 C 248.226562 552.246094 247.757812 552.726562 247.265625 553.179688 C 246.769531 553.632812 246.25 554.058594 245.703125 554.457031 C 245.15625 554.855469 244.589844 555.222656 243.996094 555.5625 C 243.40625 555.902344 242.792969 556.210938 242.160156 556.492188 C 241.527344 556.769531 240.878906 557.015625 240.210938 557.226562 C 239.546875 557.441406 238.863281 557.621094 238.171875 557.769531 C 237.476562 557.917969 236.773438 558.03125 236.054688 558.109375 C 235.339844 558.1875 234.617188 558.230469 233.886719 558.242188 C 233.160156 558.253906 232.425781 558.230469 231.6875 558.171875 C 230.953125 558.113281 230.214844 558.019531 229.476562 557.894531 C 228.742188 557.765625 228.007812 557.605469 227.277344 557.414062 C 226.546875 557.21875 225.824219 556.992188 225.109375 556.734375 C 224.394531 556.476562 223.6875 556.183594 222.992188 555.863281 C 222.296875 555.542969 221.617188 555.191406 220.949219 554.808594 C 220.28125 554.429688 219.632812 554.019531 219 553.582031 C 218.367188 553.144531 217.753906 552.683594 217.160156 552.191406 C 216.566406 551.703125 215.996094 551.191406 215.449219 550.65625 C 214.902344 550.121094 214.378906 549.5625 213.882812 548.984375 C 213.386719 548.410156 212.921875 547.8125 212.480469 547.199219 C 212.039062 546.585938 211.628906 545.957031 211.25 545.3125 C 210.871094 544.667969 210.519531 544.011719 210.207031 543.34375 C 209.890625 542.675781 209.605469 541.996094 209.355469 541.3125 C 209.105469 540.625 208.894531 539.933594 208.710938 539.238281 C 208.53125 538.539062 208.386719 537.839844 208.277344 537.136719 C 208.167969 536.4375 208.097656 535.734375 208.058594 535.035156 C 208.023438 534.335938 208.019531 533.644531 208.054688 532.953125 C 208.09375 532.261719 208.164062 531.582031 208.269531 530.90625 C 208.378906 530.230469 208.519531 529.566406 208.699219 528.914062 C 208.878906 528.265625 209.089844 527.625 209.339844 527.003906 C 209.585938 526.378906 209.867188 525.773438 210.179688 525.183594 C 210.496094 524.59375 210.84375 524.023438 211.222656 523.476562 C 211.601562 522.925781 212.007812 522.402344 212.445312 521.898438 C 212.886719 521.394531 213.351562 520.914062 213.847656 520.460938 C 214.34375 520.007812 214.863281 519.582031 215.410156 519.183594 C 215.953125 518.785156 216.523438 518.417969 217.117188 518.078125 C 217.707031 517.738281 218.320312 517.429688 218.953125 517.148438 C 219.585938 516.871094 220.234375 516.625 220.898438 516.414062 C 221.566406 516.199219 222.246094 516.019531 222.941406 515.871094 C 223.636719 515.722656 224.339844 515.609375 225.054688 515.53125 C 225.769531 515.453125 226.492188 515.40625 227.222656 515.398438 C 227.953125 515.386719 228.6875 515.410156 229.421875 515.46875 C 230.160156 515.527344 230.898438 515.621094 231.632812 515.746094 C 232.371094 515.875 233.105469 516.035156 233.832031 516.226562 C 234.5625 516.421875 235.285156 516.648438 236.003906 516.90625 C 236.71875 517.164062 237.421875 517.457031 238.117188 517.777344 C 238.8125 518.097656 239.496094 518.449219 240.160156 518.832031 C 240.828125 519.210938 241.480469 519.621094 242.113281 520.058594 Z M 242.113281 520.058594 " fill-opacity="1" fill-rule="nonzero"/><path fill="#000000" d="M 233.472656 560.625 C 220.195312 560.625 208.011719 550.1875 206.1875 537.488281 C 205.386719 531.285156 206.992188 525.445312 210.859375 520.992188 C 215.089844 516.324219 221.144531 513.695312 227.488281 513.839844 C 240.765625 513.839844 252.949219 524.207031 254.699219 536.976562 C 255.648438 542.890625 253.898438 548.875 250.03125 553.398438 C 246.019531 558.070312 240.109375 560.625 233.472656 560.625 Z M 227.488281 517.710938 C 221.945312 517.710938 217.058594 519.753906 213.777344 523.546875 C 210.640625 527.269531 209.253906 532.160156 210.054688 536.976562 C 211.585938 547.851562 222.089844 556.757812 233.472656 556.757812 C 239.015625 556.757812 243.828125 554.640625 247.113281 550.84375 C 250.324219 547.195312 251.707031 542.304688 250.90625 537.488281 C 249.375 526.539062 238.871094 517.710938 227.488281 517.710938 Z M 227.488281 517.710938 " fill-opacity="1" fill-rule="nonzero"/></svg>