<svg xmlns="http://www.w3.org/2000/svg" xmlns:xlink="http://www.w3.org/1999/xlink" width="1024" zoomAndPan="magnify" viewBox="0 0 768 767.999994" height="1024" preserveAspectRatio="xMidYMid meet" version="1.0"><defs><clipPath id="66558a5f43"><path d="M 244 105.078125 L 341 105.078125 L 341 189 L 244 189 Z M 244 105.078125 " clip-rule="nonzero"/></clipPath><clipPath id="974496bdb5"><path d="M 243 105.078125 L 342 105.078125 L 342 189 L 243 189 Z M 243 105.078125 " clip-rule="nonzero"/></clipPath><clipPath id="d36a1124e2"><path d="M 568 472 L 666.535156 472 L 666.535156 557 L 568 557 Z M 568 472 " clip-rule="nonzero"/></clipPath><clipPath id="18009f36c0"><path d="M 343 510 L 579 510 L 579 663.078125 L 343 663.078125 Z M 343 510 " clip-rule="nonzero"/></clipPath><clipPath id="cf9da25b90"><path d="M 397 580 L 525 580 L 525 663.078125 L 397 663.078125 Z M 397 580 " clip-rule="nonzero"/></clipPath><clipPath id="0339c82e93"><path d="M 332 661 L 353 661 L 353 663.078125 L 332 663.078125 Z M 332 661 " clip-rule="nonzero"/></clipPath><clipPath id="c4d1419e31"><path d="M 363 661 L 387 661 L 387 663.078125 L 363 663.078125 Z M 363 661 " clip-rule="nonzero"/></clipPath><clipPath id="b09cf9f1c0"><path d="M 557 661 L 593 661 L 593 663.078125 L 557 663.078125 Z M 557 661 " clip-rule="nonzero"/></clipPath><clipPath id="88af1ac5aa"><path d="M 603 661 L 620 661 L 620 663.078125 L 603 663.078125 Z M 603 661 " clip-rule="nonzero"/></clipPath></defs><path fill="#eef4ff" d="M 640.984375 443.640625 C 635.980469 475.625 621.179688 508.046875 593.429688 524.800781 C 573.1875 537.09375 548.484375 539.488281 524.761719 539.488281 C 501.039062 539.488281 477.203125 537.3125 453.808594 541.554688 C 438.136719 544.382812 419.855469 548.300781 410.277344 560.921875 C 394.28125 582.027344 373.496094 601.390625 347.484375 606.179688 C 321.476562 610.964844 294.597656 607.15625 268.589844 602.480469 C 243.777344 598.128906 218.421875 592.796875 197.089844 579.414062 C 175.761719 566.035156 158.785156 542.859375 159.65625 517.730469 C 160.742188 483.242188 193.5 455.5 193.71875 421.011719 C 194.042969 386.089844 162.15625 360.632812 144.964844 330.277344 C 125.703125 296.007812 125.703125 252.058594 144.746094 217.894531 C 163.789062 183.734375 201.335938 160.78125 240.402344 159.257812 C 299.929688 156.972656 351.402344 200.054688 409.625 213 C 434.980469 218.65625 461.207031 218.441406 486.671875 223.335938 C 535.316406 232.800781 579.824219 261.738281 608.339844 302.320312 C 636.742188 342.898438 648.710938 394.683594 640.984375 443.640625 Z M 640.984375 443.640625 " fill-opacity="1" fill-rule="nonzero"/><path stroke-linecap="round" transform="matrix(1.088244, 0, 0, 1.087931, 5.995198, 3.35583)" fill-opacity="1" fill="#ffffff" fill-rule="nonzero" stroke-linejoin="round" d="M 368.398313 381.299603 C 354.80129 381.299603 343.799475 370.201275 343.799475 356.700882 L 343.799475 157.200257 C 343.799475 143.599329 354.898207 132.601535 368.398313 132.601535 L 567.798588 132.601535 C 581.399201 132.601535 592.401016 143.699864 592.401016 157.200257 L 592.401016 356.600347 C 592.401016 370.201275 581.298695 381.199069 567.798588 381.199069 L 368.398313 381.199069 Z M 368.398313 381.299603 " stroke="#112544" stroke-width="1.5" stroke-opacity="1" stroke-miterlimit="10"/><path stroke-linecap="round" transform="matrix(1.088244, 0, 0, 1.087931, 5.995198, 3.35583)" fill-opacity="1" fill="#e1e5ff" fill-rule="nonzero" stroke-linejoin="round" d="M 580.40132 157.200257 L 580.40132 356.600347 C 580.40132 363.59829 574.701195 369.199517 567.798588 369.199517 L 368.398313 369.199517 C 361.39879 369.199517 355.799171 363.501346 355.799171 356.600347 L 355.799171 157.200257 C 355.799171 150.198723 361.499296 144.601087 368.398313 144.601087 L 567.798588 144.601087 C 574.801701 144.500552 580.40132 150.198723 580.40132 157.200257 Z M 580.40132 157.200257 " stroke="#112544" stroke-width="1.5" stroke-opacity="1" stroke-miterlimit="10"/><path fill="#ccd2ff" d="M 614.433594 348.664062 L 614.433594 381.085938 C 614.433594 384.132812 611.929688 386.632812 608.882812 386.632812 L 416.589844 386.632812 C 413.542969 386.632812 411.039062 384.132812 411.039062 381.085938 L 411.039062 348.664062 C 411.039062 345.617188 413.542969 343.117188 416.589844 343.117188 L 608.882812 343.117188 C 611.929688 343.226562 614.433594 345.617188 614.433594 348.664062 Z M 614.433594 348.664062 " fill-opacity="1" fill-rule="nonzero"/><path stroke-linecap="round" transform="matrix(1.088244, 0, 0, 1.087931, 5.995198, 3.35583)" fill-opacity="1" fill="#ffffff" fill-rule="nonzero" stroke-linejoin="round" d="M 562.898921 313.298554 L 562.898921 343.099954 C 562.898921 345.900567 560.601642 348.198506 557.801832 348.198506 L 381.101551 348.198506 C 378.301742 348.198506 376.000873 345.900567 376.000873 343.099954 L 376.000873 313.298554 C 376.000873 310.501531 378.301742 308.200001 381.101551 308.200001 L 557.798243 308.200001 C 560.601642 308.200001 562.898921 310.501531 562.898921 313.298554 Z M 562.898921 313.298554 " stroke="#112544" stroke-width="1.5" stroke-opacity="1" stroke-miterlimit="10"/><path fill="#ccd2ff" d="M 614.433594 284.914062 L 614.433594 317.332031 C 614.433594 320.378906 611.929688 322.882812 608.882812 322.882812 L 416.589844 322.882812 C 413.542969 322.882812 411.039062 320.378906 411.039062 317.332031 L 411.039062 284.914062 C 411.039062 281.867188 413.542969 279.363281 416.589844 279.363281 L 608.882812 279.363281 C 611.929688 279.363281 614.433594 281.757812 614.433594 284.914062 Z M 614.433594 284.914062 " fill-opacity="1" fill-rule="nonzero"/><path stroke-linecap="round" transform="matrix(1.088244, 0, 0, 1.087931, 5.995198, 3.35583)" fill-opacity="1" fill="#ffffff" fill-rule="nonzero" stroke-linejoin="round" d="M 562.898921 254.600567 L 562.898921 284.398377 C 562.898921 287.19899 560.601642 289.50052 557.801832 289.50052 L 381.101551 289.50052 C 378.301742 289.50052 376.000873 287.19899 376.000873 284.398377 L 376.000873 254.600567 C 376.000873 251.799954 378.301742 249.498424 381.101551 249.498424 L 557.798243 249.498424 C 560.601642 249.498424 562.898921 251.799954 562.898921 254.600567 Z M 562.898921 254.600567 " stroke="#112544" stroke-width="1.5" stroke-opacity="1" stroke-miterlimit="10"/><path fill="#ccd2ff" d="M 551.207031 221.269531 C 551.207031 243.570312 533.140625 261.738281 510.722656 261.738281 C 488.414062 261.738281 470.238281 243.679688 470.238281 221.269531 C 470.238281 198.855469 488.304688 180.796875 510.722656 180.796875 C 533.03125 180.796875 551.207031 198.964844 551.207031 221.269531 Z M 551.207031 221.269531 " fill-opacity="1" fill-rule="nonzero"/><path stroke-linecap="round" transform="matrix(1.088244, 0, 0, 1.087931, 5.995198, 3.35583)" fill-opacity="1" fill="#ffffff" fill-rule="nonzero" stroke-linejoin="round" d="M 505.298226 196.200595 C 505.298226 216.698931 488.700382 233.398487 468.100245 233.398487 C 447.500109 233.398487 430.898675 216.799466 430.898675 196.200595 C 430.898675 175.601724 447.500109 158.999113 468.100245 158.999113 C 488.700382 158.999113 505.298226 175.601724 505.298226 196.200595 Z M 505.298226 196.200595 " stroke="#112544" stroke-width="1.5" stroke-opacity="1" stroke-miterlimit="10"/><path fill="#efa130" d="M 524.652344 201.578125 C 524.652344 206.691406 520.515625 210.824219 515.402344 210.824219 C 512.464844 210.824219 509.851562 209.410156 508.109375 207.34375 C 506.804688 205.820312 506.042969 203.753906 506.042969 201.578125 C 506.042969 196.464844 510.179688 192.328125 515.292969 192.328125 C 516.273438 192.328125 517.253906 192.4375 518.121094 192.765625 C 521.929688 193.960938 524.652344 197.441406 524.652344 201.578125 Z M 524.652344 201.578125 " fill-opacity="1" fill-rule="nonzero"/><path fill="#ffc25e" d="M 520.191406 198.53125 C 520.191406 203.644531 516.054688 207.777344 510.941406 207.777344 C 509.960938 207.777344 508.980469 207.667969 508.109375 207.34375 C 506.804688 205.820312 506.042969 203.753906 506.042969 201.578125 C 506.042969 196.464844 510.179688 192.328125 515.292969 192.328125 C 516.273438 192.328125 517.253906 192.4375 518.121094 192.765625 C 519.429688 194.398438 520.191406 196.355469 520.191406 198.53125 Z M 520.191406 198.53125 " fill-opacity="1" fill-rule="nonzero"/><path stroke-linecap="round" transform="matrix(1.088244, 0, 0, 1.087931, 5.995198, 3.35583)" fill="none" stroke-linejoin="round" d="M 476.60018 182.201118 C 476.60018 186.901122 472.7989 190.699903 468.100245 190.699903 C 463.401591 190.699903 459.600311 186.901122 459.600311 182.201118 C 459.600311 177.501114 463.401591 173.698743 468.100245 173.698743 C 472.7989 173.698743 476.60018 177.501114 476.60018 182.201118 Z M 476.60018 182.201118 " stroke="#112544" stroke-width="1.5" stroke-opacity="1" stroke-miterlimit="10"/><path fill="#efa130" d="M 536.078125 237.914062 L 494.617188 237.914062 C 493.203125 237.914062 492.113281 236.71875 492.222656 235.304688 C 492.222656 234.867188 492.332031 234.433594 492.441406 234.105469 C 494.289062 223.226562 503.867188 214.851562 515.292969 214.851562 C 518.121094 214.851562 520.84375 215.394531 523.347656 216.265625 C 531.398438 219.203125 537.382812 226.492188 538.363281 235.304688 C 538.582031 236.609375 537.492188 237.914062 536.078125 237.914062 Z M 536.078125 237.914062 " fill-opacity="1" fill-rule="nonzero"/><path fill="#ffc25e" d="M 529.332031 233.996094 L 492.441406 233.996094 C 494.289062 223.117188 503.867188 214.742188 515.292969 214.742188 C 518.121094 214.742188 520.84375 215.285156 523.347656 216.15625 C 527.808594 219.855469 530.855469 225.183594 531.617188 231.277344 C 531.835938 232.800781 530.746094 233.996094 529.332031 233.996094 Z M 529.332031 233.996094 " fill-opacity="1" fill-rule="nonzero"/><path stroke-linecap="round" transform="matrix(1.088244, 0, 0, 1.087931, 5.995198, 3.35583)" fill="none" stroke-linejoin="round" d="M 487.099465 215.600229 C 488.398864 215.600229 489.400334 214.501527 489.299828 213.201755 C 488.000429 202.59892 479.001555 194.401739 468.100245 194.401739 C 457.198936 194.401739 448.200061 202.59892 446.900663 213.201755 C 446.699651 214.501527 447.801627 215.600229 449.101026 215.600229 Z M 487.099465 215.600229 " stroke="#112544" stroke-width="1.5" stroke-opacity="1" stroke-miterlimit="10"/><path fill="#757bff" d="M 448.039062 296.554688 C 448.039062 301.773438 443.796875 305.910156 438.679688 305.910156 C 435.742188 305.910156 433.023438 304.496094 431.28125 302.320312 C 429.976562 300.6875 429.214844 298.621094 429.214844 296.445312 C 429.214844 291.222656 433.457031 286.980469 438.679688 286.980469 C 439.660156 286.980469 440.640625 287.089844 441.511719 287.414062 C 445.320312 288.828125 448.039062 292.417969 448.039062 296.554688 Z M 448.039062 296.554688 " fill-opacity="1" fill-rule="nonzero"/><path fill="#8d95ff" d="M 443.578125 293.507812 C 443.578125 298.730469 439.332031 302.972656 434.21875 302.972656 C 433.238281 302.972656 432.261719 302.863281 431.390625 302.535156 C 430.082031 300.90625 429.320312 298.839844 429.320312 296.664062 C 429.320312 291.441406 433.566406 287.195312 438.789062 287.195312 C 439.769531 287.195312 440.75 287.304688 441.621094 287.632812 C 442.816406 289.15625 443.578125 291.222656 443.578125 293.507812 Z M 443.578125 293.507812 " fill-opacity="1" fill-rule="nonzero"/><path stroke-linecap="round" transform="matrix(1.088244, 0, 0, 1.087931, 5.995198, 3.35583)" fill="none" stroke-linejoin="round" d="M 406.19933 269.501267 C 406.19933 274.298216 402.301134 278.201122 397.59889 278.201122 C 392.799729 278.201122 388.99845 274.301806 388.99845 269.501267 C 388.99845 264.700729 392.900235 260.898357 397.59889 260.898357 C 402.301134 260.898357 406.19933 264.700729 406.19933 269.501267 Z M 406.19933 269.501267 " stroke="#112544" stroke-width="1.5" stroke-opacity="1" stroke-miterlimit="10"/><path fill="#757bff" d="M 479.382812 296.554688 C 479.382812 301.773438 475.136719 305.910156 470.023438 305.910156 C 467.085938 305.910156 464.363281 304.496094 462.621094 302.320312 C 461.316406 300.6875 460.554688 298.621094 460.554688 296.445312 C 460.554688 291.222656 464.796875 286.980469 470.023438 286.980469 C 471 286.980469 471.980469 287.089844 472.851562 287.414062 C 476.660156 288.828125 479.382812 292.417969 479.382812 296.554688 Z M 479.382812 296.554688 " fill-opacity="1" fill-rule="nonzero"/><path fill="#8d95ff" d="M 474.917969 293.507812 C 474.917969 298.730469 470.675781 302.972656 465.558594 302.972656 C 464.582031 302.972656 463.601562 302.863281 462.730469 302.535156 C 461.425781 300.90625 460.664062 298.839844 460.664062 296.664062 C 460.664062 291.441406 464.90625 287.195312 470.132812 287.195312 C 471.109375 287.195312 472.089844 287.304688 472.960938 287.632812 C 474.15625 289.15625 474.917969 291.222656 474.917969 293.507812 Z M 474.917969 293.507812 " fill-opacity="1" fill-rule="nonzero"/><path stroke-linecap="round" transform="matrix(1.088244, 0, 0, 1.087931, 5.995198, 3.35583)" fill="none" stroke-linejoin="round" d="M 435.001472 269.501267 C 435.001472 274.298216 431.099687 278.201122 426.401032 278.201122 C 421.598282 278.201122 417.800592 274.301806 417.800592 269.501267 C 417.800592 264.700729 421.698788 260.898357 426.401032 260.898357 C 431.200193 260.898357 435.001472 264.700729 435.001472 269.501267 Z M 435.001472 269.501267 " stroke="#112544" stroke-width="1.5" stroke-opacity="1" stroke-miterlimit="10"/><path fill="#757bff" d="M 510.832031 296.554688 C 510.832031 301.773438 506.585938 305.910156 501.472656 305.910156 C 498.535156 305.910156 495.8125 304.496094 494.074219 302.320312 C 492.765625 300.6875 492.003906 298.621094 492.003906 296.445312 C 492.003906 291.222656 496.25 286.980469 501.472656 286.980469 C 502.453125 286.980469 503.429688 287.089844 504.300781 287.414062 C 508.109375 288.828125 510.832031 292.417969 510.832031 296.554688 Z M 510.832031 296.554688 " fill-opacity="1" fill-rule="nonzero"/><path fill="#8d95ff" d="M 506.261719 293.507812 C 506.261719 298.730469 502.015625 302.972656 496.902344 302.972656 C 495.921875 302.972656 494.941406 302.863281 494.074219 302.535156 C 492.765625 300.90625 492.003906 298.839844 492.003906 296.664062 C 492.003906 291.441406 496.25 287.195312 501.472656 287.195312 C 502.453125 287.195312 503.429688 287.304688 504.300781 287.632812 C 505.5 289.15625 506.261719 291.222656 506.261719 293.507812 Z M 506.261719 293.507812 " fill-opacity="1" fill-rule="nonzero"/><path stroke-linecap="round" transform="matrix(1.088244, 0, 0, 1.087931, 5.995198, 3.35583)" fill="none" stroke-linejoin="round" d="M 463.900531 269.501267 C 463.900531 274.298216 459.998745 278.201122 455.300091 278.201122 C 450.50093 278.201122 446.699651 274.301806 446.699651 269.501267 C 446.699651 264.700729 450.601436 260.898357 455.300091 260.898357 C 459.998745 260.898357 463.900531 264.700729 463.900531 269.501267 Z M 463.900531 269.501267 " stroke="#112544" stroke-width="1.5" stroke-opacity="1" stroke-miterlimit="10"/><path fill="#757bff" d="M 542.171875 296.554688 C 542.171875 301.773438 537.929688 305.910156 532.8125 305.910156 C 529.875 305.910156 527.15625 304.496094 525.414062 302.320312 C 524.109375 300.6875 523.347656 298.621094 523.347656 296.445312 C 523.347656 291.222656 527.589844 286.980469 532.8125 286.980469 C 533.792969 286.980469 534.773438 287.089844 535.644531 287.414062 C 539.453125 288.828125 542.171875 292.417969 542.171875 296.554688 Z M 542.171875 296.554688 " fill-opacity="1" fill-rule="nonzero"/><path fill="#8d95ff" d="M 537.710938 293.507812 C 537.710938 298.730469 533.46875 302.972656 528.351562 302.972656 C 527.371094 302.972656 526.394531 302.863281 525.523438 302.535156 C 524.21875 300.90625 523.457031 298.839844 523.457031 296.664062 C 523.457031 291.441406 527.699219 287.195312 532.921875 287.195312 C 533.902344 287.195312 534.882812 287.304688 535.753906 287.632812 C 536.949219 289.15625 537.710938 291.222656 537.710938 293.507812 Z M 537.710938 293.507812 " fill-opacity="1" fill-rule="nonzero"/><path stroke-linecap="round" transform="matrix(1.088244, 0, 0, 1.087931, 5.995198, 3.35583)" fill="none" stroke-linejoin="round" d="M 492.699084 269.501267 C 492.699084 274.298216 488.800888 278.201122 484.098644 278.201122 C 479.299483 278.201122 475.501793 274.301806 475.501793 269.501267 C 475.501793 264.700729 479.399989 260.898357 484.098644 260.898357 C 488.901394 260.898357 492.699084 264.700729 492.699084 269.501267 Z M 492.699084 269.501267 " stroke="#112544" stroke-width="1.5" stroke-opacity="1" stroke-miterlimit="10"/><path fill="#757bff" d="M 573.625 296.554688 C 573.625 301.773438 569.378906 305.910156 564.265625 305.910156 C 561.324219 305.910156 558.605469 304.496094 556.863281 302.320312 C 555.558594 300.6875 554.796875 298.621094 554.796875 296.445312 C 554.796875 291.222656 559.039062 286.980469 564.265625 286.980469 C 565.242188 286.980469 566.222656 287.089844 567.09375 287.414062 C 570.792969 288.828125 573.625 292.417969 573.625 296.554688 Z M 573.625 296.554688 " fill-opacity="1" fill-rule="nonzero"/><path fill="#8d95ff" d="M 569.050781 293.507812 C 569.050781 298.730469 564.808594 302.972656 559.695312 302.972656 C 558.714844 302.972656 557.734375 302.863281 556.863281 302.535156 C 555.558594 300.90625 554.796875 298.839844 554.796875 296.664062 C 554.796875 291.441406 559.039062 287.195312 564.265625 287.195312 C 565.242188 287.195312 566.222656 287.304688 567.09375 287.632812 C 568.289062 289.15625 569.050781 291.222656 569.050781 293.507812 Z M 569.050781 293.507812 " fill-opacity="1" fill-rule="nonzero"/><path stroke-linecap="round" transform="matrix(1.088244, 0, 0, 1.087931, 5.995198, 3.35583)" fill="none" stroke-linejoin="round" d="M 521.601732 269.501267 C 521.601732 274.298216 517.699946 278.201122 513.001292 278.201122 C 508.198542 278.201122 504.400852 274.301806 504.400852 269.501267 C 504.400852 264.700729 508.299048 260.898357 513.001292 260.898357 C 517.699946 260.898357 521.601732 264.700729 521.601732 269.501267 Z M 521.601732 269.501267 " stroke="#112544" stroke-width="1.5" stroke-opacity="1" stroke-miterlimit="10"/><path fill="#757bff" d="M 448.039062 360.414062 C 448.039062 365.636719 443.796875 369.769531 438.679688 369.769531 C 435.742188 369.769531 433.023438 368.355469 431.28125 366.179688 C 429.976562 364.550781 429.214844 362.480469 429.214844 360.304688 C 429.214844 355.085938 433.457031 350.839844 438.679688 350.839844 C 439.660156 350.839844 440.640625 350.949219 441.511719 351.277344 C 445.320312 352.691406 448.039062 356.171875 448.039062 360.414062 Z M 448.039062 360.414062 " fill-opacity="1" fill-rule="nonzero"/><path fill="#8d95ff" d="M 443.578125 357.261719 C 443.578125 362.480469 439.332031 366.726562 434.21875 366.726562 C 433.238281 366.726562 432.261719 366.617188 431.390625 366.289062 C 430.082031 364.65625 429.320312 362.589844 429.320312 360.414062 C 429.320312 355.191406 433.566406 350.949219 438.789062 350.949219 C 439.769531 350.949219 440.75 351.058594 441.621094 351.386719 C 442.816406 353.015625 443.578125 355.085938 443.578125 357.261719 Z M 443.578125 357.261719 " fill-opacity="1" fill-rule="nonzero"/><path stroke-linecap="round" transform="matrix(1.088244, 0, 0, 1.087931, 5.995198, 3.35583)" fill="none" stroke-linejoin="round" d="M 406.19933 328.199254 C 406.19933 332.999792 402.301134 336.899108 397.59889 336.899108 C 392.799729 336.899108 388.99845 332.999792 388.99845 328.199254 C 388.99845 323.398715 392.900235 319.599934 397.59889 319.599934 C 402.301134 319.599934 406.19933 323.398715 406.19933 328.199254 Z M 406.19933 328.199254 " stroke="#112544" stroke-width="1.5" stroke-opacity="1" stroke-miterlimit="10"/><path fill="#757bff" d="M 479.382812 360.414062 C 479.382812 365.636719 475.136719 369.769531 470.023438 369.769531 C 467.085938 369.769531 464.363281 368.355469 462.621094 366.179688 C 461.316406 364.550781 460.554688 362.480469 460.554688 360.304688 C 460.554688 355.085938 464.796875 350.839844 470.023438 350.839844 C 471 350.839844 471.980469 350.949219 472.851562 351.277344 C 476.660156 352.691406 479.382812 356.171875 479.382812 360.414062 Z M 479.382812 360.414062 " fill-opacity="1" fill-rule="nonzero"/><path fill="#8d95ff" d="M 474.917969 357.261719 C 474.917969 362.480469 470.675781 366.726562 465.558594 366.726562 C 464.582031 366.726562 463.601562 366.617188 462.730469 366.289062 C 461.425781 364.65625 460.664062 362.589844 460.664062 360.414062 C 460.664062 355.191406 464.90625 350.949219 470.132812 350.949219 C 471.109375 350.949219 472.089844 351.058594 472.960938 351.386719 C 474.15625 353.015625 474.917969 355.085938 474.917969 357.261719 Z M 474.917969 357.261719 " fill-opacity="1" fill-rule="nonzero"/><path stroke-linecap="round" transform="matrix(1.088244, 0, 0, 1.087931, 5.995198, 3.35583)" fill="none" stroke-linejoin="round" d="M 435.001472 328.199254 C 435.001472 332.999792 431.099687 336.899108 426.401032 336.899108 C 421.598282 336.899108 417.800592 332.999792 417.800592 328.199254 C 417.800592 323.398715 421.698788 319.599934 426.401032 319.599934 C 431.200193 319.599934 435.001472 323.398715 435.001472 328.199254 Z M 435.001472 328.199254 " stroke="#112544" stroke-width="1.5" stroke-opacity="1" stroke-miterlimit="10"/><path fill="#757bff" d="M 510.832031 360.414062 C 510.832031 365.636719 506.585938 369.769531 501.472656 369.769531 C 498.535156 369.769531 495.8125 368.355469 494.074219 366.179688 C 492.765625 364.550781 492.003906 362.480469 492.003906 360.304688 C 492.003906 355.085938 496.25 350.839844 501.472656 350.839844 C 502.453125 350.839844 503.429688 350.949219 504.300781 351.277344 C 508.109375 352.691406 510.832031 356.171875 510.832031 360.414062 Z M 510.832031 360.414062 " fill-opacity="1" fill-rule="nonzero"/><path fill="#8d95ff" d="M 506.261719 357.261719 C 506.261719 362.480469 502.015625 366.726562 496.902344 366.726562 C 495.921875 366.726562 494.941406 366.617188 494.074219 366.289062 C 492.765625 364.65625 492.003906 362.589844 492.003906 360.414062 C 492.003906 355.191406 496.25 350.949219 501.472656 350.949219 C 502.453125 350.949219 503.429688 351.058594 504.300781 351.386719 C 505.5 353.015625 506.261719 355.085938 506.261719 357.261719 Z M 506.261719 357.261719 " fill-opacity="1" fill-rule="nonzero"/><path stroke-linecap="round" transform="matrix(1.088244, 0, 0, 1.087931, 5.995198, 3.35583)" fill="none" stroke-linejoin="round" d="M 463.900531 328.199254 C 463.900531 332.999792 459.998745 336.899108 455.300091 336.899108 C 450.50093 336.899108 446.699651 332.999792 446.699651 328.199254 C 446.699651 323.398715 450.601436 319.599934 455.300091 319.599934 C 459.998745 319.599934 463.900531 323.398715 463.900531 328.199254 Z M 463.900531 328.199254 " stroke="#112544" stroke-width="1.5" stroke-opacity="1" stroke-miterlimit="10"/><path fill="#757bff" d="M 542.171875 360.414062 C 542.171875 365.636719 537.929688 369.769531 532.8125 369.769531 C 529.875 369.769531 527.15625 368.355469 525.414062 366.179688 C 524.109375 364.550781 523.347656 362.480469 523.347656 360.304688 C 523.347656 355.085938 527.589844 350.839844 532.8125 350.839844 C 533.792969 350.839844 534.773438 350.949219 535.644531 351.277344 C 539.453125 352.691406 542.171875 356.171875 542.171875 360.414062 Z M 542.171875 360.414062 " fill-opacity="1" fill-rule="nonzero"/><path fill="#8d95ff" d="M 537.710938 357.261719 C 537.710938 362.480469 533.46875 366.726562 528.351562 366.726562 C 527.371094 366.726562 526.394531 366.617188 525.523438 366.289062 C 524.21875 364.65625 523.457031 362.589844 523.457031 360.414062 C 523.457031 355.191406 527.699219 350.949219 532.921875 350.949219 C 533.902344 350.949219 534.882812 351.058594 535.753906 351.386719 C 536.949219 353.015625 537.710938 355.085938 537.710938 357.261719 Z M 537.710938 357.261719 " fill-opacity="1" fill-rule="nonzero"/><path stroke-linecap="round" transform="matrix(1.088244, 0, 0, 1.087931, 5.995198, 3.35583)" fill="none" stroke-linejoin="round" d="M 492.699084 328.199254 C 492.699084 332.999792 488.800888 336.899108 484.098644 336.899108 C 479.299483 336.899108 475.501793 332.999792 475.501793 328.199254 C 475.501793 323.398715 479.399989 319.599934 484.098644 319.599934 C 488.901394 319.599934 492.699084 323.398715 492.699084 328.199254 Z M 492.699084 328.199254 " stroke="#112544" stroke-width="1.5" stroke-opacity="1" stroke-miterlimit="10"/><path fill="#757bff" d="M 573.625 360.414062 C 573.625 365.636719 569.378906 369.769531 564.265625 369.769531 C 561.324219 369.769531 558.605469 368.355469 556.863281 366.179688 C 555.558594 364.550781 554.796875 362.480469 554.796875 360.304688 C 554.796875 355.085938 559.039062 350.839844 564.265625 350.839844 C 565.242188 350.839844 566.222656 350.949219 567.09375 351.277344 C 570.792969 352.691406 573.625 356.171875 573.625 360.414062 Z M 573.625 360.414062 " fill-opacity="1" fill-rule="nonzero"/><path fill="#8d95ff" d="M 569.050781 357.261719 C 569.050781 362.480469 564.808594 366.726562 559.695312 366.726562 C 558.714844 366.726562 557.734375 366.617188 556.863281 366.289062 C 555.558594 364.65625 554.796875 362.589844 554.796875 360.414062 C 554.796875 355.191406 559.039062 350.949219 564.265625 350.949219 C 565.242188 350.949219 566.222656 351.058594 567.09375 351.386719 C 568.289062 353.015625 569.050781 355.085938 569.050781 357.261719 Z M 569.050781 357.261719 " fill-opacity="1" fill-rule="nonzero"/><path stroke-linecap="round" transform="matrix(1.088244, 0, 0, 1.087931, 5.995198, 3.35583)" fill="none" stroke-linejoin="round" d="M 521.601732 328.199254 C 521.601732 332.999792 517.699946 336.899108 513.001292 336.899108 C 508.198542 336.899108 504.400852 332.999792 504.400852 328.199254 C 504.400852 323.398715 508.299048 319.599934 513.001292 319.599934 C 517.699946 319.599934 521.601732 323.398715 521.601732 328.199254 Z M 521.601732 328.199254 " stroke="#112544" stroke-width="1.5" stroke-opacity="1" stroke-miterlimit="10"/><g clip-path="url(#66558a5f43)"><path fill="#ffffff" d="M 340.738281 116.609375 L 340.738281 177.425781 C 340.738281 183.300781 335.949219 188.085938 330.074219 188.085938 L 254.769531 188.085938 C 248.890625 188.085938 244.101562 183.300781 244.101562 177.425781 L 244.101562 116.609375 C 244.101562 110.734375 248.890625 105.949219 254.769531 105.949219 L 330.074219 105.949219 C 336.058594 105.949219 340.738281 110.734375 340.738281 116.609375 Z M 340.738281 116.609375 " fill-opacity="1" fill-rule="nonzero"/></g><path fill="#ccd2ff" d="M 340.738281 116.609375 L 340.738281 177.425781 C 340.738281 183.300781 335.949219 188.085938 330.074219 188.085938 L 254.769531 188.085938 C 250.742188 188.085938 247.148438 185.800781 245.410156 182.429688 C 246.824219 183.082031 248.347656 183.410156 249.871094 183.410156 L 325.175781 183.410156 C 331.054688 183.410156 335.84375 178.621094 335.84375 172.746094 L 335.84375 112.039062 C 335.84375 110.191406 335.40625 108.558594 334.535156 107.035156 C 338.234375 108.667969 340.738281 112.367188 340.738281 116.609375 Z M 340.738281 116.609375 " fill-opacity="1" fill-rule="nonzero"/><g clip-path="url(#974496bdb5)"><path stroke-linecap="round" transform="matrix(1.088244, 0, 0, 1.087931, 5.995198, 3.35583)" fill="none" stroke-linejoin="round" d="M 307.599375 104.099907 L 307.599375 160.00087 C 307.599375 165.401028 303.198648 169.799427 297.800041 169.799427 L 228.601674 169.799427 C 223.199478 169.799427 218.798752 165.401028 218.798752 160.00087 L 218.798752 104.099907 C 218.798752 98.69975 223.199478 94.30135 228.601674 94.30135 L 297.800041 94.30135 C 303.299154 94.30135 307.599375 98.69975 307.599375 104.099907 Z M 307.599375 104.099907 " stroke="#112544" stroke-width="1.5" stroke-opacity="1" stroke-miterlimit="10"/></g><path fill="#ffffff" d="M 665.472656 484.332031 L 665.472656 545.144531 C 665.472656 551.019531 660.683594 555.808594 654.804688 555.808594 L 579.5 555.808594 C 573.625 555.808594 568.835938 551.019531 568.835938 545.144531 L 568.835938 484.332031 C 568.835938 478.457031 573.625 473.667969 579.5 473.667969 L 654.804688 473.667969 C 660.683594 473.777344 665.472656 478.457031 665.472656 484.332031 Z M 665.472656 484.332031 " fill-opacity="1" fill-rule="nonzero"/><path fill="#ccd2ff" d="M 665.472656 484.332031 L 665.472656 545.144531 C 665.472656 551.019531 660.683594 555.808594 654.804688 555.808594 L 579.5 555.808594 C 575.472656 555.808594 571.882812 553.523438 570.140625 550.148438 C 571.554688 550.804688 573.078125 551.128906 574.601562 551.128906 L 649.910156 551.128906 C 655.785156 551.128906 660.574219 546.34375 660.574219 540.46875 L 660.574219 479.652344 C 660.574219 477.800781 660.136719 476.171875 659.269531 474.648438 C 662.96875 476.386719 665.472656 480.085938 665.472656 484.332031 Z M 665.472656 484.332031 " fill-opacity="1" fill-rule="nonzero"/><g clip-path="url(#d36a1124e2)"><path stroke-linecap="round" transform="matrix(1.088244, 0, 0, 1.087931, 5.995198, 3.35583)" fill="none" stroke-linejoin="round" d="M 606.001629 442.10164 L 606.001629 497.999013 C 606.001629 503.39917 601.600903 507.80116 596.198706 507.80116 L 527.000339 507.80116 C 521.601732 507.80116 517.201006 503.39917 517.201006 497.999013 L 517.201006 442.10164 C 517.201006 436.701483 521.601732 432.299493 527.000339 432.299493 L 596.198706 432.299493 C 601.600903 432.400028 606.001629 436.701483 606.001629 442.10164 Z M 606.001629 442.10164 " stroke="#112544" stroke-width="1.5" stroke-opacity="1" stroke-miterlimit="10"/></g><path stroke-linecap="round" transform="matrix(1.088244, 0, 0, 1.087931, 5.995198, 3.35583)" fill="none" stroke-linejoin="round" d="M 263.301364 169.799427 L 263.301364 227.301767 L 343.698969 227.301767 " stroke="#112544" stroke-width="1.5" stroke-opacity="1" stroke-miterlimit="10"/><path stroke-linecap="round" transform="matrix(1.088244, 0, 0, 1.087931, 5.995198, 3.35583)" fill="none" stroke-linejoin="round" d="M 517.301512 470.499143 L 461.800674 470.499143 L 461.800674 381.999757 " stroke="#112544" stroke-width="1.5" stroke-opacity="1" stroke-miterlimit="10"/><path fill="#e1e5ff" d="M 280.777344 166.4375 C 277.730469 164.585938 275.445312 162.195312 273.703125 159.257812 C 272.070312 156.210938 271.199219 153.054688 271.199219 149.574219 C 271.199219 145.332031 272.289062 141.304688 274.464844 137.605469 C 276.640625 133.90625 279.578125 130.96875 283.28125 128.683594 C 286.980469 126.507812 291.007812 125.3125 295.25 125.3125 C 299.167969 125.3125 302.757812 126.183594 306.023438 127.816406 C 309.289062 129.445312 312.007812 131.839844 313.96875 134.777344 C 315.925781 137.714844 316.90625 141.089844 316.90625 144.894531 C 316.90625 147.289062 316.578125 149.574219 315.816406 151.640625 C 315.054688 153.816406 313.96875 155.558594 312.335938 156.863281 C 310.8125 158.277344 308.746094 158.929688 306.351562 158.929688 C 304.5 158.929688 302.976562 158.496094 301.886719 157.734375 C 300.800781 156.863281 300.148438 155.882812 299.929688 154.796875 C 298.734375 156.210938 297.316406 157.296875 295.6875 158.058594 C 294.054688 158.710938 292.3125 159.148438 290.460938 159.148438 C 287.414062 159.148438 285.019531 158.167969 283.386719 156.320312 C 281.648438 154.46875 280.777344 152.074219 280.777344 149.136719 C 280.777344 146.308594 281.429688 143.808594 282.734375 141.742188 C 284.042969 139.671875 285.675781 138.042969 287.742188 136.953125 C 289.808594 135.867188 291.984375 135.320312 294.269531 135.320312 C 297.101562 135.320312 299.496094 136.300781 301.5625 138.257812 L 301.78125 137.28125 C 301.890625 136.734375 302.105469 136.410156 302.542969 136.082031 C 302.976562 135.757812 303.414062 135.539062 303.957031 135.539062 C 304.5 135.539062 305.042969 135.757812 305.371094 136.082031 C 305.804688 136.519531 305.914062 136.953125 305.914062 137.605469 L 305.804688 138.257812 L 303.957031 149.03125 C 303.738281 150.445312 303.519531 151.640625 303.519531 152.730469 C 303.519531 153.816406 303.738281 154.6875 304.28125 155.339844 C 304.71875 155.992188 305.480469 156.425781 306.460938 156.425781 C 308.851562 156.425781 310.59375 155.449219 311.902344 153.382812 C 313.207031 151.3125 313.859375 148.59375 313.859375 145.113281 C 313.859375 141.632812 312.988281 138.585938 311.140625 136.082031 C 309.398438 133.582031 307.003906 131.621094 304.175781 130.425781 C 301.34375 129.121094 298.296875 128.46875 295.25 128.46875 C 291.550781 128.46875 287.960938 129.445312 284.804688 131.40625 C 281.539062 133.363281 278.925781 135.972656 277.078125 139.238281 C 275.117188 142.503906 274.136719 145.984375 274.136719 149.792969 C 274.136719 152.621094 274.792969 155.230469 276.207031 157.84375 C 277.511719 160.453125 279.472656 162.519531 282.082031 164.042969 C 284.695312 165.675781 287.632812 166.4375 291.222656 166.4375 C 293.507812 166.4375 295.578125 166.21875 297.210938 165.785156 C 298.949219 165.347656 300.910156 164.695312 303.085938 163.824219 C 303.304688 163.71875 303.519531 163.71875 303.738281 163.71875 C 304.175781 163.71875 304.5 163.824219 304.71875 164.152344 C 304.9375 164.371094 305.152344 164.695312 305.152344 165.132812 C 305.152344 165.347656 305.042969 165.675781 304.9375 165.894531 C 304.828125 166.109375 304.609375 166.328125 304.390625 166.4375 C 300.363281 168.394531 296.011719 169.484375 291.222656 169.484375 C 287.304688 169.15625 283.824219 168.285156 280.777344 166.4375 Z M 300.257812 147.289062 L 301.125 141.957031 C 299.496094 140.21875 297.316406 139.347656 294.707031 139.347656 C 293.074219 139.347656 291.550781 139.671875 290.136719 140.433594 C 288.722656 141.195312 287.523438 142.175781 286.652344 143.589844 C 285.78125 145.003906 285.347656 146.636719 285.347656 148.59375 C 285.347656 150.769531 286 152.402344 287.199219 153.597656 C 288.394531 154.6875 290.027344 155.230469 291.875 155.230469 C 296.664062 155.230469 299.386719 152.511719 300.257812 147.289062 Z M 300.257812 147.289062 " fill-opacity="1" fill-rule="nonzero"/><path fill="#8d95ff" d="M 279.253906 165.023438 C 276.207031 163.171875 273.921875 160.78125 272.179688 157.84375 C 270.546875 154.796875 269.675781 151.640625 269.675781 148.160156 C 269.675781 143.917969 270.765625 139.890625 272.941406 136.191406 C 275.117188 132.492188 278.054688 129.554688 281.757812 127.269531 C 285.457031 125.09375 289.484375 123.898438 293.726562 123.898438 C 297.644531 123.898438 301.234375 124.769531 304.5 126.402344 C 307.765625 128.03125 310.484375 130.425781 312.445312 133.363281 C 314.402344 136.300781 315.382812 139.671875 315.382812 143.480469 C 315.382812 145.875 315.054688 148.160156 314.292969 150.226562 C 313.53125 152.402344 312.445312 154.144531 310.8125 155.449219 C 309.289062 156.863281 307.222656 157.515625 304.828125 157.515625 C 302.976562 157.515625 301.453125 157.082031 300.363281 156.320312 C 299.277344 155.449219 298.625 154.46875 298.40625 153.382812 C 297.210938 154.796875 295.792969 155.882812 294.164062 156.644531 C 292.53125 157.296875 290.789062 157.734375 288.9375 157.734375 C 285.890625 157.734375 283.496094 156.753906 281.863281 154.90625 C 280.125 153.054688 279.253906 150.660156 279.253906 147.722656 C 279.253906 144.894531 279.90625 142.394531 281.210938 140.328125 C 282.519531 138.257812 284.148438 136.628906 286.21875 135.539062 C 288.285156 134.453125 290.460938 133.90625 292.746094 133.90625 C 295.578125 133.90625 297.972656 134.886719 300.039062 136.84375 L 300.257812 135.867188 C 300.363281 135.320312 300.582031 134.996094 301.019531 134.667969 C 301.453125 134.34375 301.890625 134.125 302.433594 134.125 C 302.976562 134.125 303.519531 134.34375 303.847656 134.667969 C 304.28125 135.105469 304.390625 135.539062 304.390625 136.191406 L 304.28125 136.84375 L 302.433594 147.617188 C 302.214844 149.03125 301.996094 150.226562 301.996094 151.316406 C 301.996094 152.402344 302.214844 153.273438 302.757812 153.925781 C 303.195312 154.578125 303.957031 155.011719 304.9375 155.011719 C 307.328125 155.011719 309.070312 154.035156 310.378906 151.96875 C 311.683594 149.898438 312.335938 147.179688 312.335938 143.699219 C 312.335938 140.21875 311.464844 137.171875 309.613281 134.667969 C 307.875 132.167969 305.480469 130.207031 302.652344 129.011719 C 299.820312 127.707031 296.773438 127.054688 293.726562 127.054688 C 290.027344 127.054688 286.4375 128.03125 283.28125 129.992188 C 280.015625 131.949219 277.402344 134.558594 275.554688 137.824219 C 273.59375 141.085938 272.613281 144.570312 272.613281 148.378906 C 272.613281 151.207031 273.269531 153.816406 274.683594 156.425781 C 275.988281 159.039062 277.949219 161.105469 280.558594 162.628906 C 283.171875 164.261719 286.109375 165.023438 289.699219 165.023438 C 291.984375 165.023438 294.054688 164.804688 295.6875 164.371094 C 297.425781 163.933594 299.386719 163.28125 301.5625 162.410156 C 301.78125 162.300781 301.996094 162.300781 302.214844 162.300781 C 302.652344 162.300781 302.976562 162.410156 303.195312 162.738281 C 303.414062 162.957031 303.628906 163.28125 303.628906 163.71875 C 303.628906 163.933594 303.519531 164.261719 303.414062 164.476562 C 303.304688 164.695312 303.085938 164.914062 302.867188 165.023438 C 298.839844 166.980469 294.488281 168.070312 289.699219 168.070312 C 285.78125 167.742188 282.300781 166.871094 279.253906 165.023438 Z M 298.734375 145.765625 L 299.601562 140.433594 C 297.972656 138.695312 295.792969 137.824219 293.183594 137.824219 C 291.550781 137.824219 290.027344 138.152344 288.613281 138.910156 C 287.199219 139.671875 286 140.652344 285.128906 142.066406 C 284.257812 143.480469 283.824219 145.113281 283.824219 147.070312 C 283.824219 149.246094 284.476562 150.878906 285.671875 152.074219 C 286.871094 153.164062 288.503906 153.707031 290.351562 153.707031 C 295.140625 153.707031 297.863281 151.097656 298.734375 145.765625 Z M 298.734375 145.765625 " fill-opacity="1" fill-rule="nonzero"/><path fill="#e1e5ff" d="M 634.566406 510.222656 L 630.757812 510.222656 L 630.757812 505.652344 C 630.757812 499.234375 625.53125 493.902344 619.003906 493.902344 C 612.582031 493.902344 607.25 499.125 607.25 505.652344 L 607.25 510.222656 L 604.421875 510.222656 C 603.003906 510.222656 601.917969 511.3125 601.917969 512.726562 L 601.917969 537.964844 C 601.917969 539.378906 603.003906 540.46875 604.421875 540.46875 L 634.566406 540.46875 C 635.980469 540.46875 637.066406 539.378906 637.066406 537.964844 L 637.066406 512.726562 C 637.066406 511.3125 635.980469 510.222656 634.566406 510.222656 Z M 626.730469 510.222656 L 611.277344 510.222656 L 611.277344 505.652344 C 611.277344 501.410156 614.757812 497.929688 619.003906 497.929688 C 623.246094 497.929688 626.730469 501.410156 626.730469 505.652344 Z M 626.730469 510.222656 " fill-opacity="1" fill-rule="nonzero"/><path fill="#fc6054" d="M 632.28125 507.722656 L 628.46875 507.722656 L 628.46875 503.152344 C 628.46875 496.734375 623.246094 491.402344 616.71875 491.402344 C 610.296875 491.402344 604.964844 496.625 604.964844 503.152344 L 604.964844 507.722656 L 602.136719 507.722656 C 600.71875 507.722656 599.632812 508.808594 599.632812 510.222656 L 599.632812 535.464844 C 599.632812 536.878906 600.71875 537.964844 602.136719 537.964844 L 632.28125 537.964844 C 633.695312 537.964844 634.78125 536.878906 634.78125 535.464844 L 634.78125 510.222656 C 634.78125 508.917969 633.695312 507.722656 632.28125 507.722656 Z M 624.445312 507.722656 L 608.992188 507.722656 L 608.992188 503.152344 C 608.992188 498.910156 612.472656 495.425781 616.71875 495.425781 C 620.960938 495.425781 624.445312 498.910156 624.445312 503.152344 Z M 624.445312 507.722656 " fill-opacity="1" fill-rule="nonzero"/><path fill="#ffffff" d="M 619.875 528.609375 L 614.542969 528.609375 C 614.214844 528.609375 613.996094 528.28125 614.105469 528.066406 L 615.519531 522.625 C 614.757812 522.082031 614.324219 521.210938 614.324219 520.230469 C 614.324219 518.601562 615.628906 517.292969 617.261719 517.292969 C 618.894531 517.292969 620.199219 518.601562 620.199219 520.230469 C 620.199219 521.210938 619.65625 522.082031 619.003906 522.625 L 620.417969 528.066406 C 620.417969 528.28125 620.199219 528.609375 619.875 528.609375 Z M 619.875 528.609375 " fill-opacity="1" fill-rule="nonzero"/><path fill="#fcbba4" d="M 256.617188 635.988281 C 256.617188 635.988281 248.671875 648.171875 229.085938 637.835938 L 228.976562 636.3125 L 227.996094 623.367188 L 255.421875 623.367188 L 255.964844 628.589844 Z M 256.617188 635.988281 " fill-opacity="1" fill-rule="nonzero"/><path fill="#f2a07c" d="M 255.964844 628.589844 C 255.636719 628.480469 255.203125 628.480469 254.875 628.371094 C 252.480469 627.828125 250.089844 626.957031 247.585938 626.847656 C 245.082031 626.742188 242.363281 627.609375 241.164062 629.785156 C 240.402344 631.199219 240.402344 632.941406 239.53125 634.246094 C 238.445312 636.207031 235.941406 637.074219 233.65625 637.183594 C 232.023438 637.183594 230.5 636.859375 228.976562 636.3125 L 227.996094 623.367188 L 255.421875 623.367188 Z M 255.964844 628.589844 " fill-opacity="1" fill-rule="nonzero"/><path fill="#fcbba4" d="M 153.125 617.601562 L 152.039062 627.828125 L 151.820312 630.222656 C 151.820312 630.222656 142.894531 639.144531 127.878906 629.023438 C 126.789062 628.261719 125.59375 627.394531 124.503906 626.523438 L 126.464844 612.164062 Z M 153.125 617.601562 " fill-opacity="1" fill-rule="nonzero"/><path fill="#f2a07c" d="M 153.125 617.601562 L 152.039062 627.828125 C 149.316406 627.503906 146.707031 626.414062 144.09375 625.433594 C 140.503906 624.238281 136.476562 623.257812 133.101562 625 C 131.144531 625.980469 129.621094 627.71875 127.878906 628.917969 C 126.789062 628.15625 125.59375 627.285156 124.503906 626.414062 L 126.464844 612.054688 Z M 153.125 617.601562 " fill-opacity="1" fill-rule="nonzero"/><path stroke-linecap="round" transform="matrix(1.088244, 0, 0, 1.087931, 5.995198, 3.35583)" fill="none" stroke-linejoin="round" d="M 230.299508 581.500381 C 230.299508 581.500381 222.998466 592.699245 205.000717 583.198702 L 203.999246 569.899379 L 229.201121 569.899379 Z M 230.299508 581.500381 " stroke="#112544" stroke-width="1.5" stroke-opacity="1" stroke-miterlimit="10"/><path fill="#112544" d="M 289.375 660.359375 L 289.375 660.464844 C 289.375 661.445312 288.613281 662.207031 287.632812 662.207031 L 225.277344 662.207031 C 224.296875 662.207031 223.535156 661.445312 223.535156 660.464844 C 223.644531 658.835938 223.644531 655.898438 223.316406 650.566406 C 222.773438 640.558594 228.976562 637.835938 228.976562 637.835938 C 248.566406 648.171875 256.507812 635.988281 256.507812 635.988281 L 264.671875 643.929688 L 280.015625 648.390625 C 285.566406 649.804688 289.375 654.808594 289.375 660.359375 Z M 289.375 660.359375 " fill-opacity="1" fill-rule="nonzero"/><path fill="#66d3d8" d="M 282.191406 524.476562 L 272.941406 614.445312 C 272.398438 619.34375 269.023438 623.257812 264.453125 624.671875 C 263.363281 625 262.277344 625.109375 261.078125 625.109375 L 222.882812 625.109375 C 215.265625 625.109375 209.496094 617.929688 211.347656 610.53125 L 232.894531 519.253906 C 233.980469 514.792969 233.65625 510.113281 232.023438 505.871094 C 215.046875 461.917969 207.429688 423.296875 209.714844 390.441406 L 263.472656 390.441406 L 266.519531 409.480469 L 281.757812 503.261719 C 282.953125 510.222656 283.0625 517.292969 282.191406 524.476562 Z M 282.191406 524.476562 " fill-opacity="1" fill-rule="nonzero"/><path fill="#47b6c3" d="M 261.839844 620.539062 C 263.039062 621.628906 263.910156 623.042969 264.453125 624.457031 C 263.363281 624.78125 262.277344 624.890625 261.078125 624.890625 L 222.882812 624.890625 C 215.265625 624.890625 209.496094 617.710938 211.347656 610.3125 L 232.894531 519.035156 C 233.980469 514.574219 233.65625 509.898438 232.023438 505.652344 C 215.046875 461.703125 207.429688 423.078125 209.714844 390.222656 L 263.472656 390.222656 L 266.519531 409.261719 C 256.945312 415.789062 245.519531 419.816406 238.226562 428.847656 C 227.015625 442.554688 229.628906 463.007812 236.484375 479.433594 C 243.339844 495.753906 253.679688 510.984375 256.945312 528.390625 C 259.992188 545.253906 255.636719 563.421875 245.191406 577.023438 C 241.164062 582.351562 236.160156 587.03125 233.328125 593.015625 C 230.390625 599 230.171875 607.050781 235.070312 611.617188 C 242.035156 618.144531 254.875 613.902344 261.839844 620.539062 Z M 261.839844 620.539062 " fill-opacity="1" fill-rule="nonzero"/><path stroke-linecap="round" transform="matrix(1.088244, 0, 0, 1.087931, 5.995198, 3.35583)" fill="none" stroke-linejoin="round" d="M 208.500478 474.100445 L 188.7008 558.000362 C 187.099884 564.901361 192.301068 571.40022 199.300592 571.40022 L 234.398716 571.40022 C 239.998335 571.40022 244.700579 567.1993 245.300025 561.601664 L 253.799959 478.900983 C 254.600418 472.398533 254.499912 465.799139 253.498441 459.30028 L 236.699585 355.598589 L 187.300896 355.598589 C 185.100533 385.798538 192.200562 421.301699 207.800526 461.698754 C 209.200431 465.698604 209.498359 470.000059 208.500478 474.100445 Z M 208.500478 474.100445 " stroke="#112544" stroke-width="1.5" stroke-opacity="1" stroke-miterlimit="10"/><path stroke-linecap="round" transform="matrix(1.088244, 0, 0, 1.087931, 5.995198, 3.35583)" fill="none" stroke-linejoin="round" d="M 133.899915 576.200759 C 133.899915 576.200759 124.499016 585.701302 108.798546 572.699992 L 110.600475 559.400669 L 135.199314 564.499221 Z M 133.899915 576.200759 " stroke="#112544" stroke-width="1.5" stroke-opacity="1" stroke-miterlimit="10"/><path fill="#112544" d="M 178.699219 660.792969 L 178.699219 660.902344 C 178.480469 661.773438 177.609375 662.425781 176.742188 662.207031 L 115.691406 649.585938 C 114.710938 649.371094 114.167969 648.390625 114.382812 647.519531 C 114.820312 645.996094 115.472656 643.058594 116.234375 637.835938 C 117.648438 627.9375 124.394531 626.523438 124.394531 626.523438 C 141.480469 640.664062 151.710938 630.332031 151.710938 630.332031 L 158.132812 639.796875 L 172.277344 647.300781 C 177.175781 649.695312 179.898438 655.246094 178.699219 660.792969 Z M 178.699219 660.792969 " fill-opacity="1" fill-rule="nonzero"/><path fill="#66d3d8" d="M 233.328125 390.332031 L 231.914062 401.863281 L 219.074219 505.4375 C 217.984375 513.8125 215.808594 522.082031 212.542969 529.914062 L 176.742188 613.03125 C 175 617.058594 171.191406 619.777344 166.730469 620.210938 C 166.402344 620.210938 166.074219 620.210938 165.75 620.210938 L 120.152344 620.210938 C 111.011719 620.210938 105.351562 610.3125 109.8125 602.480469 L 158.457031 517.621094 C 160.960938 513.160156 162.15625 508.046875 162.050781 502.824219 C 160.851562 468.121094 163.027344 433.632812 180.332031 390.441406 L 233.328125 390.441406 Z M 233.328125 390.332031 " fill-opacity="1" fill-rule="nonzero"/><path fill="#47b6c3" d="M 233.328125 390.332031 L 231.914062 401.863281 C 224.625 398.601562 216.898438 397.40625 207.972656 399.90625 C 194.914062 403.386719 184.140625 414.160156 180.441406 427.214844 C 175.871094 443.640625 182.398438 460.832031 185.121094 477.695312 C 190.886719 513.488281 178.046875 551.671875 151.820312 576.695312 C 143.875 584.3125 126.789062 596.0625 134.84375 603.566406 C 139.742188 608.136719 148.445312 604.113281 154.648438 606.832031 C 160.417969 609.332031 165.421875 614.230469 166.835938 620.320312 C 166.511719 620.320312 166.183594 620.320312 165.859375 620.320312 L 120.261719 620.320312 C 111.121094 620.320312 105.460938 610.421875 109.921875 602.589844 L 158.566406 517.730469 C 161.070312 513.269531 162.265625 508.15625 162.15625 502.933594 C 160.960938 468.230469 163.136719 433.742188 180.441406 390.550781 L 233.328125 390.550781 Z M 233.328125 390.332031 " fill-opacity="1" fill-rule="nonzero"/><path stroke-linecap="round" transform="matrix(1.088244, 0, 0, 1.087931, 5.995198, 3.35583)" fill="none" stroke-linejoin="round" d="M 104.90035 566.99823 L 146.800575 566.99823 C 151.201301 566.99823 155.099498 564.398686 156.80092 560.398836 L 189.698681 483.999536 C 192.699503 476.800523 194.698854 469.299906 195.700324 461.501275 L 208.798407 355.699124 L 160.09967 355.699124 C 144.201778 395.399615 142.198837 427.20094 143.300813 458.998675 C 143.498236 463.698679 142.299343 468.398683 139.998474 472.599603 L 95.29844 550.600279 C 91.299737 557.899827 96.601428 566.99823 104.90035 566.99823 Z M 104.90035 566.99823 " stroke="#112544" stroke-width="1.5" stroke-opacity="1" stroke-miterlimit="10"/><path fill="#8d95ff" d="M 309.070312 395.988281 L 308.199219 396.535156 C 304.066406 398.820312 298.734375 397.511719 296.230469 393.488281 L 264.019531 342.574219 L 263.800781 369.664062 L 263.582031 390.441406 L 180.332031 390.441406 C 179.136719 380.542969 177.503906 366.726562 176.957031 352.90625 C 176.195312 333.109375 177.503906 313.199219 185.445312 304.386719 C 187.515625 302.101562 189.800781 300.035156 192.085938 298.402344 C 208.082031 286.652344 228.648438 287.632812 228.648438 287.632812 L 244.539062 291.332031 L 248.128906 292.203125 C 256.617188 294.160156 264.5625 297.75 271.636719 302.753906 C 274.792969 305.039062 279.472656 310.804688 284.804688 318.53125 C 295.46875 333.652344 308.527344 355.953125 316.472656 371.292969 C 321.257812 379.996094 317.886719 391.09375 309.070312 395.988281 Z M 309.070312 395.988281 " fill-opacity="1" fill-rule="nonzero"/><path fill="#757bff" d="M 284.910156 318.3125 C 281.320312 315.484375 277.621094 312.761719 273.703125 310.261719 C 267.5 306.34375 260.753906 303.082031 253.679688 300.6875 C 241.054688 296.445312 227.671875 294.703125 214.394531 295.792969 C 208.082031 296.335938 202.097656 298.183594 195.894531 298.945312 C 194.042969 299.164062 192.957031 298.839844 192.195312 298.183594 C 208.191406 286.4375 228.757812 287.414062 228.757812 287.414062 L 244.648438 291.113281 L 248.238281 291.984375 C 256.726562 293.941406 264.671875 297.53125 271.746094 302.535156 C 274.898438 304.820312 279.578125 310.695312 284.910156 318.3125 Z M 284.910156 318.3125 " fill-opacity="1" fill-rule="nonzero"/><path stroke-linecap="round" transform="matrix(1.088244, 0, 0, 1.087931, 5.995198, 3.35583)" fill-opacity="1" fill="#ffffff" fill-rule="nonzero" stroke-linejoin="round" d="M 220.500174 264.801263 L 220.399669 265.300347 C 218.698246 271.300123 213.098627 275.501043 206.799056 275.501043 C 205.499657 275.501043 204.099752 275.299973 202.800354 274.901425 C 199.200086 273.899667 196.199264 271.501193 194.400925 268.201495 C 193.399455 266.399049 192.800009 264.399124 192.699503 262.399199 C 199.501604 261.199962 204.699199 261.199962 204.699199 261.199962 L 219.301282 264.600194 Z M 220.500174 264.801263 " stroke="#112544" stroke-width="1.5" stroke-opacity="1" stroke-miterlimit="10"/><path fill="#757bff" d="M 263.691406 369.554688 L 263.472656 390.332031 L 180.222656 390.332031 C 179.027344 380.433594 177.394531 366.617188 176.847656 352.800781 C 179.679688 350.839844 183.160156 349.753906 186.535156 349.101562 C 191.648438 348.011719 197.089844 347.25 201.117188 343.878906 C 204.273438 341.265625 204.816406 340.070312 206.558594 336.371094 C 207.429688 334.414062 202.097656 327.996094 204.925781 328.429688 C 207.648438 328.863281 214.066406 337.242188 214.503906 339.199219 C 216.027344 346.054688 220.054688 347.578125 224.625 353.015625 C 231.480469 361.285156 241.601562 366.941406 252.265625 368.355469 C 256.074219 368.902344 259.992188 369.007812 263.691406 369.554688 Z M 263.691406 369.554688 " fill-opacity="1" fill-rule="nonzero"/><path stroke-linecap="round" transform="matrix(1.088244, 0, 0, 1.087931, 5.995198, 3.35583)" fill-opacity="1" fill="#fcbba4" fill-rule="nonzero" stroke-linejoin="round" d="M 285.398321 338.001401 C 279.60128 326.899482 271.298768 312.199851 263.100352 299.500146 C 254.000971 300.2003 245.300025 304.40122 237.001103 311.801303 L 266.499608 358.600272 C 268.800477 362.298518 273.700143 363.59829 277.501423 361.400886 L 278.398798 360.898211 C 286.600804 356.399277 289.698542 346.198581 285.398321 338.001401 Z M 285.398321 338.001401 " stroke="#112544" stroke-width="1.5" stroke-opacity="1" stroke-miterlimit="10"/><path stroke-linecap="round" transform="matrix(1.088244, 0, 0, 1.087931, 5.995198, 3.35583)" fill="none" stroke-linejoin="round" d="M 278.499304 360.898211 L 277.698846 361.400886 C 273.901155 363.501346 269.001489 362.298518 266.70062 358.600272 L 237.101609 311.801303 L 236.699585 355.799659 L 160.200176 355.799659 C 157.601379 333.599411 153.800099 291.60098 164.999337 276.70028 C 171.600426 267.899891 183.600122 264.10111 192.699503 262.499734 C 199.501604 261.300497 204.699199 261.300497 204.699199 261.300497 L 219.301282 264.700729 L 220.500174 264.998743 L 222.600032 265.501417 C 230.400014 267.300272 237.701055 270.59997 244.201638 275.199439 C 252.798489 281.400284 274.400096 317.00039 285.398321 338.098345 C 289.698542 346.198581 286.600804 356.399277 278.499304 360.898211 Z M 278.499304 360.898211 " stroke="#112544" stroke-width="1.5" stroke-opacity="1" stroke-miterlimit="10"/><path fill="#efa130" d="M 373.820312 340.503906 C 373.710938 340.289062 373.605469 340.070312 373.605469 339.960938 C 370.230469 333 361.851562 330.171875 354.996094 333.542969 L 202.75 407.632812 C 187.949219 390.769531 162.484375 385.4375 140.394531 396.207031 C 123.199219 404.585938 112.425781 420.6875 110.464844 437.875 C 109.488281 446.796875 110.902344 456.042969 115.039062 464.640625 C 127.226562 489.660156 158.457031 499.671875 184.574219 486.941406 C 205.46875 476.824219 216.898438 455.28125 214.503906 434.285156 C 214.503906 433.851562 214.394531 433.414062 214.394531 432.980469 L 214.71875 432.871094 L 268.152344 406.871094 L 277.730469 426.453125 C 278.925781 428.953125 281.972656 430.042969 284.585938 428.847656 L 298.625 421.992188 C 301.125 420.796875 302.214844 417.640625 301.019531 415.136719 L 298.949219 410.785156 L 291.550781 395.445312 L 295.902344 393.378906 L 326.484375 378.472656 L 343.675781 413.613281 C 344.875 416.117188 347.921875 417.203125 350.425781 416.007812 L 364.460938 409.152344 C 366.964844 407.957031 368.054688 404.910156 366.855469 402.300781 L 364.789062 397.949219 L 349.769531 367.050781 L 354.125 364.984375 L 367.511719 358.457031 C 373.820312 355.410156 376.761719 347.359375 373.820312 340.503906 Z M 133.644531 433.632812 C 134.300781 432.980469 135.0625 432.4375 135.929688 432 C 137.78125 431.128906 139.847656 431.023438 141.699219 431.675781 C 143.550781 432.328125 145.074219 433.632812 146.050781 435.480469 L 156.171875 456.371094 L 157.480469 458.980469 C 159.328125 462.789062 157.695312 467.25 153.996094 469.097656 C 150.1875 470.949219 145.726562 469.316406 143.875 465.617188 L 132.449219 442.226562 C 130.925781 439.179688 131.578125 435.808594 133.644531 433.632812 Z M 133.644531 433.632812 " fill-opacity="1" fill-rule="nonzero"/><path fill="#ffc25e" d="M 373.605469 339.960938 C 370.230469 333 361.851562 330.171875 354.996094 333.542969 L 202.75 407.632812 C 187.949219 390.769531 162.484375 385.4375 140.394531 396.207031 C 123.199219 404.585938 112.425781 420.6875 110.464844 437.875 C 111.121094 443.207031 112.535156 448.539062 115.039062 453.652344 C 127.226562 478.671875 158.457031 488.683594 184.574219 475.953125 C 201.769531 467.574219 212.652344 451.476562 214.503906 434.285156 C 214.613281 433.851562 214.613281 433.304688 214.613281 432.871094 C 214.9375 429.28125 214.828125 425.582031 214.285156 421.992188 L 268.042969 395.773438 L 277.621094 415.355469 C 278.816406 417.859375 281.863281 418.945312 284.476562 417.75 L 298.515625 410.894531 C 298.625 410.894531 298.625 410.785156 298.734375 410.785156 L 291.332031 395.445312 L 286.980469 386.523438 L 326.15625 367.378906 L 343.351562 402.519531 C 344.546875 405.019531 347.59375 406.109375 350.097656 404.910156 L 364.136719 398.058594 C 364.246094 398.058594 364.246094 397.949219 364.355469 397.949219 L 349.335938 367.050781 L 344.984375 358.128906 L 367.074219 347.359375 C 370.230469 345.835938 372.515625 343.335938 373.820312 340.289062 C 373.710938 340.398438 373.605469 340.179688 373.605469 339.960938 Z M 156.0625 467.25 C 155.410156 467.902344 154.757812 468.445312 153.886719 468.882812 C 150.078125 470.730469 145.617188 469.097656 143.765625 465.398438 L 133.644531 444.511719 L 132.339844 441.902344 C 130.492188 438.203125 132.015625 433.632812 135.824219 431.78125 C 137.671875 430.914062 139.742188 430.804688 141.589844 431.457031 C 143.441406 432.109375 144.964844 433.414062 145.941406 435.265625 L 157.371094 458.65625 C 158.785156 461.703125 158.132812 465.074219 156.0625 467.25 Z M 156.0625 467.25 " fill-opacity="1" fill-rule="nonzero"/><path stroke-linecap="round" transform="matrix(1.088244, 0, 0, 1.087931, 5.995198, 3.35583)" fill="none" stroke-linejoin="round" d="M 331.300838 366.801043 L 315.499862 334.500634 L 331.799779 326.601468 C 338.09935 323.49925 340.798653 315.801153 337.700915 309.499773 C 334.599588 303.101448 326.900112 300.498314 320.600541 303.600532 L 180.699806 371.698526 C 167.099194 356.201798 143.699248 351.300724 123.400629 361.199816 C 99.401237 372.800819 88.998868 401.000842 100.201696 424.001778 C 111.400933 446.999123 140.09898 456.201652 164.098372 444.500114 C 183.700628 434.999572 194.199913 414.60177 191.50061 394.900531 L 240.899299 370.800893 L 249.700751 388.800221 C 250.799138 391.101751 253.598947 392.099918 256.000322 391.001216 L 268.900983 384.699835 C 271.198262 383.601133 272.199733 380.699985 271.101346 378.398455 L 262.299894 360.399128 L 294.30028 344.798274 L 310.101256 377.098683 C 311.199642 379.400213 313.999452 380.39838 316.300321 379.299678 L 329.200981 372.998298 C 331.498261 372.00013 332.499731 369.199517 331.300838 366.801043 Z M 135.899266 428.001629 C 132.399504 429.699949 128.300296 428.199108 126.598873 424.798876 L 116.099588 403.298781 C 114.401755 399.898549 115.898576 395.70122 119.301421 393.999308 C 120.999254 393.19862 122.901689 393.101676 124.599522 393.701294 C 126.300945 394.300913 127.70085 395.50015 128.598224 397.198471 L 139.101099 418.698565 C 140.798932 422.098797 139.298522 426.299717 135.899266 428.001629 Z M 135.899266 428.001629 " stroke="#112544" stroke-width="1.5" stroke-opacity="1" stroke-miterlimit="10"/><path fill="#fc6054" d="M 256.617188 259.671875 C 251.503906 261.085938 246.28125 258.148438 244.863281 253.035156 C 244.539062 251.839844 244.429688 250.535156 244.539062 249.335938 C 243.667969 249.226562 242.90625 249.121094 242.035156 248.902344 C 240.511719 253.578125 237.03125 257.496094 232.351562 259.238281 C 232.785156 263.804688 229.957031 268.160156 225.386719 269.464844 C 220.269531 270.878906 215.046875 267.941406 213.632812 262.828125 C 212.871094 260.214844 213.304688 257.605469 214.613281 255.429688 C 212.761719 253.472656 211.347656 251.078125 210.585938 248.359375 C 208.191406 239.546875 213.304688 230.515625 222.011719 228.121094 C 226.582031 226.816406 231.152344 227.578125 234.851562 229.863281 C 236.484375 227.253906 239.097656 225.183594 242.363281 224.207031 C 249.21875 222.355469 256.292969 226.273438 258.140625 233.125 C 258.902344 236.0625 258.683594 239 257.597656 241.613281 C 260.316406 242.699219 262.386719 244.984375 263.257812 247.921875 C 264.671875 253.035156 261.734375 258.257812 256.617188 259.671875 Z M 256.617188 259.671875 " fill-opacity="1" fill-rule="nonzero"/><path fill="#e64b38" d="M 236.265625 245.09375 C 236.265625 245.09375 236.160156 250.425781 242.144531 253.578125 L 243.777344 248.902344 C 240.621094 248.683594 238.335938 247.160156 236.265625 245.09375 Z M 236.265625 245.09375 " fill-opacity="1" fill-rule="nonzero"/><path fill="#e64b38" d="M 258.03125 232.582031 C 254.875 228.882812 249.761719 227.144531 244.757812 228.558594 C 241.492188 229.429688 238.878906 231.496094 237.246094 234.214844 C 233.546875 231.929688 228.867188 231.167969 224.40625 232.472656 C 215.589844 234.867188 210.476562 243.898438 212.980469 252.710938 C 213.089844 253.144531 213.195312 253.578125 213.414062 254.015625 C 212.109375 252.382812 211.128906 250.425781 210.585938 248.359375 C 208.191406 239.546875 213.304688 230.515625 222.011719 228.121094 C 226.582031 226.816406 231.152344 227.578125 234.851562 229.863281 C 236.484375 227.253906 239.097656 225.183594 242.363281 224.207031 C 249 222.355469 255.855469 226.054688 258.03125 232.582031 Z M 258.03125 232.582031 " fill-opacity="1" fill-rule="nonzero"/><path stroke-linecap="round" transform="matrix(1.088244, 0, 0, 1.087931, 5.995198, 3.35583)" fill="none" stroke-linejoin="round" d="M 230.299508 235.599482 C 225.600853 236.899254 220.801692 234.199175 219.498704 229.499171 C 219.200776 228.400469 219.10027 227.201232 219.200776 226.098939 C 218.400317 225.998404 217.700365 225.90146 216.899907 225.70039 C 215.500002 229.998255 212.301758 233.599557 208.001538 235.200933 C 208.399972 239.398263 205.801175 243.401704 201.601461 244.600941 C 196.899217 245.900713 192.100056 243.200634 190.800657 238.50063 C 190.100705 236.098566 190.49914 233.700092 191.701622 231.700166 C 190.000199 229.901311 188.7008 227.700316 188.000848 225.201307 C 185.800485 217.101071 190.49914 208.799765 198.500133 206.59877 C 202.699848 205.399533 206.899562 206.099687 210.298818 208.200147 C 211.799228 205.801673 214.200603 203.898692 217.201425 203.001059 C 223.500996 201.299148 230.001579 204.90045 231.699412 211.198239 C 232.399365 213.898318 232.198353 216.598397 231.200472 219.000461 C 233.698763 219.998629 235.601198 222.099089 236.401656 224.799167 C 237.701055 229.499171 235.001752 234.29971 230.299508 235.599482 Z M 230.299508 235.599482 " stroke="#112544" stroke-width="1.5" stroke-opacity="1" stroke-miterlimit="10"/><path fill="#fcbba4" d="M 263.363281 261.085938 C 262.496094 262.390625 261.078125 263.152344 259.554688 263.046875 C 261.296875 272.074219 255.855469 280.996094 246.824219 283.5 C 245.300781 283.933594 243.777344 284.152344 242.253906 284.152344 L 242.144531 284.152344 L 241.601562 285.890625 L 240.730469 288.9375 L 240.292969 290.242188 C 238.769531 295.355469 233.4375 298.402344 228.214844 296.878906 C 225.601562 296.117188 223.644531 294.378906 222.339844 292.203125 C 221.140625 290.027344 220.816406 287.414062 221.578125 284.804688 L 223.863281 276.753906 L 224.40625 275.011719 L 225.167969 272.511719 C 223.96875 273.273438 222.445312 273.378906 221.140625 272.726562 C 219.074219 271.640625 218.203125 269.136719 219.183594 266.960938 C 219.945312 265.4375 221.46875 264.566406 223.101562 264.566406 L 222.664062 263.046875 C 222.339844 261.957031 222.121094 260.761719 222.121094 259.671875 C 224.839844 260.433594 227.886719 260.433594 230.828125 259.671875 C 236.375 258.148438 240.511719 253.90625 242.144531 248.792969 C 244.429688 249.445312 246.824219 249.554688 249.21875 248.902344 C 250.742188 248.46875 252.15625 247.8125 253.460938 246.835938 C 254.660156 248.25 255.746094 249.988281 256.398438 251.839844 C 256.617188 252.382812 256.835938 253.035156 257.054688 253.6875 L 257.378906 255.320312 C 258.792969 254.449219 260.644531 254.339844 262.058594 255.320312 C 264.019531 256.515625 264.5625 259.128906 263.363281 261.085938 Z M 263.363281 261.085938 " fill-opacity="1" fill-rule="nonzero"/><path fill="#f2a07c" d="M 242.253906 284.152344 L 241.707031 285.890625 L 240.839844 288.9375 C 236.59375 287.851562 234.636719 282.410156 234.636719 282.410156 C 237.574219 283.390625 240.183594 284.042969 242.253906 284.152344 Z M 242.253906 284.152344 " fill-opacity="1" fill-rule="nonzero"/><path fill="#f2a07c" d="M 256.398438 251.839844 C 255.53125 253.253906 254.113281 254.339844 252.808594 255.210938 C 249.871094 256.84375 246.386719 257.386719 243.015625 257.714844 C 239.640625 258.039062 236.265625 258.257812 233.113281 259.5625 C 231.152344 260.324219 229.085938 261.847656 228.867188 264.023438 C 228.757812 265.113281 229.195312 266.199219 229.410156 267.398438 C 230.066406 270.226562 229.085938 273.488281 226.910156 275.449219 C 226.039062 276.210938 225.058594 276.753906 223.96875 276.96875 L 224.515625 275.230469 L 225.277344 272.726562 C 224.078125 273.488281 222.554688 273.597656 221.25 272.945312 C 219.183594 271.855469 218.3125 269.355469 219.289062 267.179688 C 220.054688 265.65625 221.578125 264.785156 223.207031 264.785156 L 222.773438 263.261719 C 222.445312 262.175781 222.230469 260.976562 222.230469 259.890625 C 224.949219 260.652344 227.996094 260.652344 230.933594 259.890625 C 236.484375 258.367188 240.621094 254.125 242.253906 249.011719 C 244.539062 249.664062 246.933594 249.773438 249.328125 249.121094 C 250.851562 248.683594 252.265625 248.03125 253.570312 247.050781 C 254.660156 248.359375 255.636719 249.988281 256.398438 251.839844 Z M 256.398438 251.839844 " fill-opacity="1" fill-rule="nonzero"/><path stroke-linecap="round" transform="matrix(1.088244, 0, 0, 1.087931, 5.995198, 3.35583)" fill="none" stroke-linejoin="round" d="M 236.498573 236.899254 C 235.701704 238.098491 234.398716 238.798644 232.998811 238.7017 C 234.599728 246.999415 229.599555 255.200186 221.300633 257.501716 C 219.900728 257.900265 218.500823 258.101334 217.100919 258.101334 L 216.598389 259.69912 L 215.399496 263.799505 C 213.999591 268.499509 209.099925 271.300123 204.300764 269.899816 C 201.899389 269.199663 200.10105 267.598286 198.898568 265.598361 C 197.800181 263.598436 197.498663 261.199962 198.198615 258.801488 L 200.801002 249.800029 L 201.500955 247.498499 C 200.398979 248.198652 198.999074 248.299187 197.800181 247.699568 C 195.901336 246.701401 195.100878 244.399871 195.998252 242.399946 C 196.701794 240.999639 198.101699 240.198951 199.59852 240.198951 L 199.200086 238.798644 C 198.898568 237.800477 198.701145 236.701775 198.701145 235.700017 C 201.199437 236.40017 203.999246 236.40017 206.69855 235.700017 C 211.799228 234.29971 215.600508 230.400394 217.100919 225.70039 C 219.200776 226.300009 221.401139 226.400544 223.601502 225.800925 C 225.001407 225.398786 226.300805 224.799167 227.499698 223.901535 C 229.000109 225.70039 230.098496 227.700316 230.798448 230.09879 L 231.099966 231.599631 C 232.399365 230.798943 234.100787 230.698408 235.400186 231.599631 C 237.101609 232.698334 237.600549 235.100398 236.498573 236.899254 Z M 236.498573 236.899254 " stroke="#112544" stroke-width="1.5" stroke-opacity="1" stroke-miterlimit="10"/><path stroke-linecap="round" transform="matrix(1.088244, 0, 0, 1.087931, 5.995198, 3.35583)" fill="none" stroke-linejoin="round" d="M 236.498573 236.899254 C 235.701704 238.098491 234.398716 238.798644 232.998811 238.7017 C 234.599728 246.999415 229.599555 255.200186 221.300633 257.501716 C 219.900728 257.900265 218.500823 258.101334 217.100919 258.101334 L 216.598389 259.69912 L 215.399496 263.799505 C 213.999591 268.499509 209.099925 271.300123 204.300764 269.899816 C 201.899389 269.199663 200.10105 267.598286 198.898568 265.598361 C 197.800181 263.598436 197.498663 261.199962 198.198615 258.801488 L 200.801002 249.800029 L 201.500955 247.498499 C 200.398979 248.198652 198.999074 248.299187 197.800181 247.699568 C 195.901336 246.701401 195.100878 244.399871 195.998252 242.399946 C 196.701794 240.999639 198.101699 240.198951 199.59852 240.198951 L 199.200086 238.798644 C 198.898568 237.800477 198.701145 236.701775 198.701145 235.700017 C 201.199437 236.40017 203.999246 236.40017 206.69855 235.700017 C 211.799228 234.29971 215.600508 230.400394 217.100919 225.70039 C 219.200776 226.300009 221.401139 226.400544 223.601502 225.800925 C 225.001407 225.398786 226.300805 224.799167 227.499698 223.901535 C 229.000109 225.70039 230.098496 227.700316 230.798448 230.09879 L 231.099966 231.599631 C 232.399365 230.798943 234.100787 230.698408 235.400186 231.599631 C 237.101609 232.698334 237.600549 235.100398 236.498573 236.899254 Z M 236.498573 236.899254 " stroke="#112544" stroke-width="1.5" stroke-opacity="1" stroke-miterlimit="10"/><path stroke-linecap="round" transform="matrix(1.088244, 0, 0, 1.087931, 5.995198, 3.35583)" fill="none" stroke-linejoin="round" d="M 217.100919 258.101334 C 214.200603 258.101334 211.400794 257.401181 208.898913 256.000874 " stroke="#112544" stroke-width="1.5" stroke-opacity="1" stroke-miterlimit="10"/><path stroke-linecap="round" transform="matrix(1.088244, 0, 0, 1.087931, 5.995198, 3.35583)" fill="none" stroke-linejoin="round" d="M 217.000413 225.70039 C 214.301109 224.899702 211.899734 223.100847 210.399324 220.698782 " stroke="#112544" stroke-width="1.5" stroke-opacity="1" stroke-miterlimit="10"/><path fill="#112544" d="M 252.480469 259.890625 C 252.699219 260.652344 252.265625 261.304688 251.503906 261.523438 C 250.742188 261.738281 249.980469 261.304688 249.871094 260.652344 C 249.652344 259.890625 250.089844 259.128906 250.851562 259.019531 C 251.613281 258.910156 252.265625 259.128906 252.480469 259.890625 Z M 252.480469 259.890625 " fill-opacity="1" fill-rule="nonzero"/><path fill="#112544" d="M 252.480469 254.777344 C 252.699219 255.429688 250.957031 256.300781 249.328125 256.734375 C 247.695312 257.171875 245.410156 257.605469 245.300781 256.953125 C 245.082031 256.300781 247.148438 254.996094 248.671875 254.558594 C 250.304688 254.125 252.265625 254.234375 252.480469 254.777344 Z M 252.480469 254.777344 " fill-opacity="1" fill-rule="nonzero"/><path fill="#112544" d="M 238.988281 258.910156 C 239.207031 259.5625 237.464844 260.433594 235.832031 260.871094 C 234.199219 261.304688 231.914062 261.738281 231.804688 261.085938 C 231.589844 260.433594 233.65625 259.128906 235.179688 258.691406 C 236.703125 258.257812 238.769531 258.257812 238.988281 258.910156 Z M 238.988281 258.910156 " fill-opacity="1" fill-rule="nonzero"/><path fill="#112544" d="M 238.007812 264.351562 C 238.226562 265.113281 237.792969 265.765625 237.03125 265.984375 C 236.265625 266.199219 235.503906 265.765625 235.398438 265.113281 C 235.179688 264.351562 235.613281 263.589844 236.375 263.480469 C 237.03125 263.261719 237.898438 263.699219 238.007812 264.351562 Z M 238.007812 264.351562 " fill-opacity="1" fill-rule="nonzero"/><path stroke-linecap="round" transform="matrix(1.088244, 0, 0, 1.087931, 5.995198, 3.35583)" fill="none" stroke-linejoin="round" d="M 218.500823 236.999789 C 218.500823 236.999789 223.199478 242.500481 221.598561 242.399946 C 221.099621 242.399946 219.59921 242.601016 219.59921 242.601016 " stroke="#112544" stroke-width="1.5" stroke-opacity="1" stroke-miterlimit="10"/><path stroke-linecap="round" transform="matrix(1.088244, 0, 0, 1.087931, 5.995198, 3.35583)" fill="none" stroke-linejoin="round" d="M 233.199823 234.798794 L 234.000281 234.601315 " stroke="#112544" stroke-width="1.5" stroke-opacity="1" stroke-miterlimit="10"/><path stroke-linecap="round" transform="matrix(1.088244, 0, 0, 1.087931, 5.995198, 3.35583)" fill="none" stroke-linejoin="round" d="M 198.101699 244.500406 L 198.898568 244.299336 " stroke="#112544" stroke-width="1.5" stroke-opacity="1" stroke-miterlimit="10"/><path fill="#112544" d="M 241.382812 271.421875 C 241.382812 271.640625 241.925781 275.449219 243.992188 277.625 C 244.648438 278.386719 245.625 278.929688 246.714844 279.144531 C 246.824219 279.144531 246.933594 279.144531 247.042969 279.144531 C 248.457031 279.144531 249.542969 278.167969 250.414062 276.96875 C 252.046875 274.578125 252.699219 271.203125 252.699219 270.878906 C 252.699219 270.769531 252.699219 270.660156 252.589844 270.660156 C 252.480469 270.660156 252.375 270.660156 252.375 270.660156 C 252.375 270.660156 251.828125 270.988281 250.851562 271.3125 C 249.328125 271.855469 246.605469 272.292969 243.339844 271.640625 C 242.796875 271.53125 242.253906 271.421875 241.816406 271.203125 C 241.707031 271.203125 241.601562 271.203125 241.601562 271.203125 C 241.382812 271.3125 241.382812 271.3125 241.382812 271.421875 Z M 241.382812 271.421875 " fill-opacity="1" fill-rule="nonzero"/><path fill="#fc6054" d="M 244.863281 277.078125 C 245.410156 277.625 246.0625 278.058594 246.824219 278.167969 C 246.933594 278.167969 247.042969 278.167969 247.042969 278.167969 C 248.128906 278.167969 248.890625 277.515625 249.542969 276.535156 C 249 275.992188 248.347656 275.554688 247.585938 275.449219 C 247.476562 275.449219 247.367188 275.449219 247.367188 275.449219 C 246.28125 275.449219 245.410156 276.101562 244.863281 277.078125 Z M 244.863281 277.078125 " fill-opacity="1" fill-rule="nonzero"/><path fill="#ffffff" d="M 243.339844 271.53125 C 243.886719 273.054688 245.300781 274.03125 247.042969 274.03125 C 248.78125 274.03125 250.304688 272.835938 250.851562 271.203125 C 249.21875 271.75 246.605469 272.292969 243.339844 271.53125 Z M 243.339844 271.53125 " fill-opacity="1" fill-rule="nonzero"/><path stroke-linecap="round" transform="matrix(1.088244, 0, 0, 1.087931, 5.995198, 3.35583)" fill="none" stroke-linejoin="round" d="M 237.101609 311.700768 L 237.101609 303.898546 " stroke="#112544" stroke-width="1.5" stroke-opacity="1" stroke-miterlimit="10"/><path fill="#fcbba4" d="M 285.128906 383.914062 C 287.960938 385.546875 290.136719 387.070312 290.570312 388.808594 C 291.222656 391.421875 286.652344 388.699219 283.0625 387.503906 C 285.347656 388.917969 286.871094 390.007812 287.304688 391.421875 C 288.066406 394.140625 283.28125 391.53125 279.578125 390.222656 C 281.429688 391.421875 283.171875 391.421875 283.496094 392.726562 C 284.367188 395.882812 274.464844 393.378906 270.113281 392.183594 C 268.804688 391.855469 268.042969 391.53125 268.042969 391.53125 L 229.195312 387.285156 C 224.949219 386.851562 220.816406 386.089844 216.679688 384.894531 C 208.410156 382.5 200.789062 378.691406 194.480469 373.253906 C 188.386719 368.03125 183.597656 361.394531 180.765625 353.234375 C 180.660156 353.015625 180.550781 352.691406 180.550781 352.472656 C 178.15625 344.964844 177.285156 337.132812 178.265625 329.300781 C 178.371094 328.101562 178.589844 327.125 178.808594 326.253906 L 203.945312 322.882812 L 206.230469 333.652344 C 209.605469 349.753906 221.792969 362.480469 237.683594 366.507812 L 270.65625 374.882812 C 270.65625 374.882812 277.730469 369.007812 280.015625 371.183594 C 281.539062 372.707031 277.621094 377.058594 277.621094 377.058594 C 277.621094 377.058594 290.351562 380.542969 291.441406 384.675781 C 291.875 386.960938 288.394531 384.894531 285.128906 383.914062 Z M 285.128906 383.914062 " fill-opacity="1" fill-rule="nonzero"/><path fill="#f2a07c" d="M 270.328125 391.421875 C 270.328125 391.746094 270.222656 391.964844 270.003906 392.183594 C 268.695312 391.855469 267.933594 391.53125 267.933594 391.53125 L 229.085938 387.285156 C 224.839844 386.851562 220.707031 386.089844 216.570312 384.894531 C 208.300781 382.5 200.683594 378.691406 194.371094 373.253906 C 188.277344 368.03125 183.488281 361.394531 180.660156 353.234375 C 180.984375 350.839844 182.183594 348.773438 184.902344 348.339844 C 188.386719 347.792969 188.820312 352.363281 189.363281 354.757812 C 191.105469 361.9375 195.242188 368.574219 201.007812 373.253906 C 204.273438 375.863281 207.972656 377.929688 212 379.128906 C 220.707031 381.628906 229.957031 380.433594 238.988281 380.976562 C 249.109375 381.519531 259.011719 384.242188 268.042969 388.808594 C 269.351562 389.246094 270.546875 390.222656 270.328125 391.421875 Z M 270.328125 391.421875 " fill-opacity="1" fill-rule="nonzero"/><path stroke-linecap="round" transform="matrix(1.088244, 0, 0, 1.087931, 5.995198, 3.35583)" fill="none" stroke-linejoin="round" d="M 181.801783 293.70144 L 183.90164 303.600532 C 186.999378 318.400697 198.198615 330.098644 212.800699 333.800481 L 243.099662 341.498577 C 243.099662 341.498577 249.600245 336.09842 251.700102 338.098345 C 253.100007 339.498652 249.499739 343.498502 249.499739 343.498502 C 249.499739 343.498502 261.201507 346.701255 262.199388 350.500036 C 262.798834 352.600496 259.60059 350.701106 256.599769 349.799883 C 259.198566 351.300724 261.201507 352.701031 261.599941 354.298817 C 262.199388 356.700882 257.999673 354.198282 254.700924 353.09958 C 256.800781 354.399352 258.200685 355.40111 258.59912 356.700882 C 259.299072 359.199891 254.898346 356.801416 251.49909 355.598589 C 253.200513 356.700882 254.80143 356.700882 255.099358 357.900119 C 256.100828 361.6989 240.899299 356.801416 240.899299 356.801416 L 205.201729 352.89851 C 201.299943 352.499961 197.498663 351.799808 193.700973 350.701106 C 186.098413 348.500111 179.09889 344.999344 173.298259 340.001326 C 167.501218 335.100252 163.100492 328.798872 160.501694 320.899706 C 158.301331 313.998707 157.500873 306.799694 158.398247 299.600681 C 158.498753 298.498388 158.699765 297.600756 158.900777 296.800068 " stroke="#112544" stroke-width="1.5" stroke-opacity="1" stroke-miterlimit="10"/><path stroke-linecap="round" transform="matrix(1.088244, 0, 0, 1.087931, 5.995198, 3.35583)" fill-opacity="1" fill="#8d95ff" fill-rule="nonzero" stroke-linejoin="round" d="M 158.800271 296.800068 C 158.599259 297.600756 158.498753 298.498388 158.301331 299.600681 C 157.400367 306.799694 158.200825 313.998707 160.401188 320.899706 C 160.900128 322.601617 161.600081 324.199403 162.300033 325.700245 C 171.898354 318.698711 183.298604 318.099092 197.100229 325.700245 C 190.49914 320.099018 185.800485 312.400921 183.998556 303.600532 L 181.898699 293.70144 " stroke="#112544" stroke-width="1.5" stroke-opacity="1" stroke-miterlimit="10"/><path stroke-linecap="round" transform="matrix(1.088244, 0, 0, 1.087931, 5.995198, 3.35583)" fill-opacity="1" fill="#fcbba4" fill-rule="nonzero" stroke-linejoin="round" d="M 285.200899 355.099505 C 282.598512 357.598514 275.401566 360.801267 272.698673 358.600272 C 271.298768 357.50157 266.801126 350.101487 269.399923 349.498278 C 270.598816 349.300799 271.700792 351.099655 272.899685 352.600496 C 271.49978 349.498278 269.399923 346.701255 270.900334 345.800032 C 271.998721 345.200414 273.599637 347.498353 274.999542 349.300799 C 273.599637 346.299116 271.600286 343.301023 272.799179 342.999419 C 274.29959 342.60087 276.198435 344.898809 277.799352 347.200339 C 276.700965 344.50026 275.100048 342.101786 276.399447 341.498577 C 278.998244 340.29934 283.101042 350.801641 283.101042 350.801641 C 283.101042 350.801641 286.500298 346.999269 287.900202 348.198506 C 290.00006 350.000952 286.798226 353.598664 285.200899 355.099505 Z M 285.200899 355.099505 " stroke="#112544" stroke-width="1.5" stroke-opacity="1" stroke-miterlimit="10"/><path fill="#8d95ff" d="M 385.464844 662.316406 L 557.84375 662.316406 C 564.589844 651.328125 584.722656 616.40625 575.582031 605.742188 C 564.699219 593.015625 535.535156 625.871094 535.535156 625.871094 C 535.535156 625.871094 558.0625 580.066406 541.957031 571.148438 C 523.019531 560.8125 497.335938 592.035156 497.335938 592.035156 C 497.335938 592.035156 506.152344 520.449219 478.511719 520.992188 C 452.285156 521.429688 447.820312 598.34375 447.820312 598.34375 C 447.820312 598.34375 412.128906 502.824219 387.75 512.289062 C 361.308594 522.625 403.09375 625 403.09375 625 C 403.09375 625 368.273438 574.738281 350.097656 589.640625 C 328.222656 607.59375 375.453125 653.070312 385.464844 662.316406 Z M 385.464844 662.316406 " fill-opacity="1" fill-rule="nonzero"/><path fill="#757bff" d="M 508.871094 580.613281 C 508.765625 592.6875 507.566406 602.152344 507.566406 602.152344 C 507.566406 602.152344 529.222656 575.714844 547.394531 579.523438 C 546.742188 575.714844 545.003906 572.777344 541.957031 571.148438 C 531.074219 565.273438 518.015625 572.996094 508.871094 580.613281 Z M 508.871094 580.613281 " fill-opacity="1" fill-rule="nonzero"/><path fill="#757bff" d="M 448.910156 586.488281 C 454.460938 599.105469 457.941406 608.464844 457.941406 608.464844 C 457.941406 608.464844 462.40625 531.546875 488.632812 531.109375 C 490.261719 531.109375 491.679688 531.328125 493.09375 531.765625 C 490.046875 525.238281 485.367188 520.882812 478.511719 520.992188 C 458.8125 521.320312 451.414062 564.945312 448.910156 586.488281 Z M 448.910156 586.488281 " fill-opacity="1" fill-rule="nonzero"/><path fill="#757bff" d="M 401.027344 619.886719 C 407.882812 627.71875 412.78125 634.574219 413.214844 635.226562 C 412.238281 632.832031 371.753906 532.742188 397.871094 522.515625 C 401.789062 520.992188 405.925781 522.191406 410.277344 525.128906 C 402.550781 515.445312 394.714844 509.570312 387.75 512.289062 C 364.898438 521.210938 392.976562 598.890625 401.027344 619.886719 Z M 401.027344 619.886719 " fill-opacity="1" fill-rule="nonzero"/><path fill="#757bff" d="M 383.179688 660.03125 C 366.640625 642.515625 343.675781 613.359375 360.21875 599.757812 C 368.273438 593.230469 379.589844 599.324219 389.710938 608.246094 C 377.957031 595.191406 360.980469 580.722656 350.097656 589.640625 C 329.640625 606.394531 369.6875 647.410156 383.179688 660.03125 Z M 383.179688 660.03125 " fill-opacity="1" fill-rule="nonzero"/><g clip-path="url(#18009f36c0)"><path stroke-linecap="round" transform="matrix(1.088244, 0, 0, 1.087931, 5.995198, 3.35583)" fill="none" stroke-linejoin="round" d="M 348.699141 605.700554 L 507.100155 605.700554 C 513.29922 595.600393 531.7995 563.501054 523.400071 553.698907 C 513.399726 542.00096 486.600525 572.200908 486.600525 572.200908 C 486.600525 572.200908 507.301167 530.098352 492.501661 521.901172 C 475.099769 512.400629 451.498811 541.099737 451.498811 541.099737 C 451.498811 541.099737 459.600311 475.299682 434.201014 475.798765 C 410.101116 476.200905 405.998318 546.898443 405.998318 546.898443 C 405.998318 546.898443 373.201063 459.09921 350.798998 467.799064 C 326.501678 477.299607 364.898552 571.40022 364.898552 571.40022 C 364.898552 571.40022 332.901755 525.200869 316.199815 538.898742 C 296.098619 555.400818 339.499255 597.20177 348.699141 605.700554 Z M 348.699141 605.700554 " stroke="#112544" stroke-width="1.5" stroke-opacity="1" stroke-miterlimit="10"/></g><path fill="#b9c3fc" d="M 420.617188 662.316406 L 513.117188 662.316406 C 516.707031 656.441406 527.589844 637.730469 522.691406 631.960938 C 516.816406 625.109375 501.144531 642.84375 501.144531 642.84375 C 501.144531 642.84375 513.226562 618.253906 504.519531 613.46875 C 494.289062 607.917969 480.578125 624.671875 480.578125 624.671875 C 480.578125 624.671875 485.257812 586.269531 470.457031 586.488281 C 456.417969 586.703125 454.023438 628.046875 454.023438 628.046875 C 454.023438 628.046875 434.871094 576.804688 421.8125 581.917969 C 407.558594 587.464844 430.082031 642.40625 430.082031 642.40625 C 430.082031 642.40625 411.367188 615.425781 401.570312 623.476562 C 389.820312 632.941406 415.175781 657.3125 420.617188 662.316406 Z M 420.617188 662.316406 " fill-opacity="1" fill-rule="nonzero"/><path fill="#e1e5ff" d="M 480.578125 637.945312 C 480.578125 637.945312 494.289062 621.191406 504.519531 626.742188 C 505.28125 627.175781 505.933594 627.828125 506.476562 628.589844 C 508.109375 622.28125 508.65625 615.753906 504.519531 613.46875 C 495.703125 608.679688 484.277344 620.539062 481.339844 623.804688 C 481.449219 631.417969 480.578125 637.945312 480.578125 637.945312 Z M 480.578125 637.945312 " fill-opacity="1" fill-rule="nonzero"/><path fill="#e1e5ff" d="M 454.023438 641.210938 C 454.023438 641.210938 456.417969 599.976562 470.457031 599.652344 C 477.859375 599.542969 480.359375 609.007812 481.121094 618.582031 C 481.773438 607.808594 481.667969 586.160156 470.457031 586.378906 C 456.417969 586.597656 454.023438 627.9375 454.023438 627.9375 C 454.023438 627.9375 434.871094 576.585938 421.8125 581.808594 C 417.023438 583.660156 416.371094 591.273438 417.679688 600.519531 C 418.332031 597.910156 419.636719 595.953125 421.8125 595.082031 C 434.871094 589.96875 454.023438 641.210938 454.023438 641.210938 Z M 454.023438 641.210938 " fill-opacity="1" fill-rule="nonzero"/><path fill="#e1e5ff" d="M 400.484375 637.621094 C 400.808594 637.292969 401.136719 636.96875 401.464844 636.640625 C 411.039062 628.808594 429.214844 654.589844 429.867188 655.570312 C 429.648438 655.027344 425.40625 644.472656 421.8125 632.398438 C 415.5 625.652344 407.011719 618.691406 401.355469 623.367188 C 397.328125 626.742188 397.871094 631.960938 400.484375 637.621094 Z M 400.484375 637.621094 " fill-opacity="1" fill-rule="nonzero"/><g clip-path="url(#cf9da25b90)"><path stroke-linecap="round" transform="matrix(1.088244, 0, 0, 1.087931, 5.995198, 3.35583)" fill="none" stroke-linejoin="round" d="M 381.001045 605.700554 L 466.000388 605.700554 C 469.299138 600.300397 479.299483 583.101758 474.798251 577.798545 C 469.399644 571.500755 454.998573 587.801762 454.998573 587.801762 C 454.998573 587.801762 466.100894 565.199375 458.0999 560.800975 C 448.699002 555.698832 436.099859 571.098616 436.099859 571.098616 C 436.099859 571.098616 440.400079 535.800114 426.799467 536.001184 C 413.898806 536.198663 411.698443 574.200834 411.698443 574.200834 C 411.698443 574.200834 394.099128 527.10026 382.099432 531.800264 C 369.001349 536.898816 389.698402 587.399622 389.698402 587.399622 C 389.698402 587.399622 372.501111 562.599831 363.498647 569.999913 C 352.701433 578.699768 376.000873 601.101085 381.001045 605.700554 Z M 381.001045 605.700554 " stroke="#112544" stroke-width="1.5" stroke-opacity="1" stroke-miterlimit="10"/></g><g clip-path="url(#0339c82e93)"><path stroke-linecap="round" transform="matrix(1.088244, 0, 0, 1.087931, 5.995198, 3.35583)" fill="none" stroke-linejoin="round" d="M 317.800731 605.700554 L 300.398839 605.700554 " stroke="#112544" stroke-width="1.5" stroke-opacity="1" stroke-miterlimit="10"/></g><g clip-path="url(#c4d1419e31)"><path stroke-linecap="round" transform="matrix(1.088244, 0, 0, 1.087931, 5.995198, 3.35583)" fill="none" stroke-linejoin="round" d="M 348.699141 605.700554 L 329.301487 605.700554 " stroke="#112544" stroke-width="1.5" stroke-opacity="1" stroke-miterlimit="10"/></g><g clip-path="url(#b09cf9f1c0)"><path stroke-linecap="round" transform="matrix(1.088244, 0, 0, 1.087931, 5.995198, 3.35583)" fill="none" stroke-linejoin="round" d="M 507.200661 605.700554 L 537.998565 605.700554 " stroke="#112544" stroke-width="1.5" stroke-opacity="1" stroke-miterlimit="10"/></g><g clip-path="url(#88af1ac5aa)"><path stroke-linecap="round" transform="matrix(1.088244, 0, 0, 1.087931, 5.995198, 3.35583)" fill="none" stroke-linejoin="round" d="M 550.098767 605.700554 L 562.600993 605.700554 " stroke="#112544" stroke-width="1.5" stroke-opacity="1" stroke-miterlimit="10"/></g></svg>