<svg xmlns="http://www.w3.org/2000/svg" xmlns:xlink="http://www.w3.org/1999/xlink" width="256" zoomAndPan="magnify" viewBox="0 0 192 191.999996" height="256" preserveAspectRatio="xMidYMid meet" version="1.0"><defs><clipPath id="f0bf43ad6e"><path d="M 23.199219 33.992188 L 168.699219 33.992188 L 168.699219 157.6875 L 23.199219 157.6875 Z M 23.199219 33.992188 " clip-rule="nonzero"/></clipPath></defs><g clip-path="url(#f0bf43ad6e)"><path fill="#38b6ff" d="M 64.558594 124.695312 L 64.558594 97.53125 L 83.347656 84.214844 L 83.347656 152.253906 L 84.972656 153.40625 L 86.597656 152.253906 L 86.597656 55.90625 L 95.992188 49.25 L 105.386719 55.90625 L 105.386719 135.925781 L 107.011719 137.078125 L 108.636719 135.925781 L 108.636719 33.992188 L 127.425781 47.308594 L 127.425781 124.695312 L 168.78125 127.117188 L 123.667969 127.117188 L 123.667969 49.25 L 112.394531 41.261719 L 112.394531 137.871094 L 110.261719 139.382812 L 107.011719 141.683594 L 103.761719 139.382812 L 101.628906 137.871094 L 101.628906 57.851562 L 95.992188 53.855469 L 90.355469 57.851562 L 90.355469 154.199219 L 88.222656 155.710938 L 84.972656 158.011719 L 81.722656 155.710938 L 79.589844 154.199219 L 79.589844 91.484375 L 68.316406 99.476562 L 68.316406 127.117188 L 23.199219 127.117188 L 64.558594 124.695312 " fill-opacity="1" fill-rule="nonzero"/></g></svg>