<svg xmlns="http://www.w3.org/2000/svg" xmlns:xlink="http://www.w3.org/1999/xlink" width="512" zoomAndPan="magnify" viewBox="0 0 384 383.999986" height="512" preserveAspectRatio="xMidYMid meet" version="1.0"><defs><g/><clipPath id="6613ee6216"><rect x="0" width="252" y="0" height="48"/></clipPath><clipPath id="ac56147e10"><path d="M 97.128906 74.898438 L 286.847656 74.898438 L 286.847656 236.519531 L 97.128906 236.519531 Z M 97.128906 74.898438 " clip-rule="nonzero"/></clipPath></defs><g transform="matrix(1, 0, 0, 1, 66, 246)"><g clip-path="url(#6613ee6216)"><g fill="#ffffff" fill-opacity="1"><g transform="translate(0.943431, 36.314567)"><g><path d="M 32.546875 -27.09375 L 32.546875 0 L 29.796875 0 L 29.796875 -21.671875 L 19.15625 -3.4375 L 17.796875 -3.4375 L 7.15625 -21.5625 L 7.15625 0 L 4.40625 0 L 4.40625 -27.09375 L 6.765625 -27.09375 L 18.53125 -7 L 30.1875 -27.09375 Z M 32.546875 -27.09375 "/></g></g></g><g fill="#ffffff" fill-opacity="1"><g transform="translate(35.691192, 36.314567)"><g><path d="M 4.40625 -27.09375 L 7.28125 -27.09375 L 7.28125 0 L 4.40625 0 Z M 4.40625 -27.09375 "/></g></g></g><g fill="#ffffff" fill-opacity="1"><g transform="translate(45.170905, 36.314567)"><g><path d="M 11.875 0.234375 C 9.863281 0.234375 7.9375 -0.0859375 6.09375 -0.734375 C 4.25 -1.378906 2.820312 -2.234375 1.8125 -3.296875 L 2.9375 -5.5 C 3.914062 -4.519531 5.21875 -3.722656 6.84375 -3.109375 C 8.46875 -2.503906 10.144531 -2.203125 11.875 -2.203125 C 14.300781 -2.203125 16.117188 -2.644531 17.328125 -3.53125 C 18.546875 -4.425781 19.15625 -5.582031 19.15625 -7 C 19.15625 -8.082031 18.828125 -8.945312 18.171875 -9.59375 C 17.515625 -10.238281 16.707031 -10.734375 15.75 -11.078125 C 14.789062 -11.429688 13.460938 -11.816406 11.765625 -12.234375 C 9.722656 -12.742188 8.09375 -13.238281 6.875 -13.71875 C 5.664062 -14.195312 4.628906 -14.925781 3.765625 -15.90625 C 2.910156 -16.882812 2.484375 -18.210938 2.484375 -19.890625 C 2.484375 -21.253906 2.84375 -22.5 3.5625 -23.625 C 4.28125 -24.75 5.390625 -25.644531 6.890625 -26.3125 C 8.390625 -26.988281 10.25 -27.328125 12.46875 -27.328125 C 14.007812 -27.328125 15.519531 -27.113281 17 -26.6875 C 18.488281 -26.257812 19.773438 -25.671875 20.859375 -24.921875 L 19.890625 -22.640625 C 18.753906 -23.390625 17.539062 -23.953125 16.25 -24.328125 C 14.957031 -24.703125 13.695312 -24.890625 12.46875 -24.890625 C 10.09375 -24.890625 8.300781 -24.429688 7.09375 -23.515625 C 5.894531 -22.597656 5.296875 -21.414062 5.296875 -19.96875 C 5.296875 -18.882812 5.625 -18.015625 6.28125 -17.359375 C 6.945312 -16.703125 7.773438 -16.195312 8.765625 -15.84375 C 9.753906 -15.5 11.085938 -15.117188 12.765625 -14.703125 C 14.753906 -14.210938 16.359375 -13.726562 17.578125 -13.25 C 18.804688 -12.78125 19.847656 -12.0625 20.703125 -11.09375 C 21.554688 -10.125 21.984375 -8.8125 21.984375 -7.15625 C 21.984375 -5.789062 21.613281 -4.546875 20.875 -3.421875 C 20.144531 -2.296875 19.015625 -1.40625 17.484375 -0.75 C 15.960938 -0.09375 14.09375 0.234375 11.875 0.234375 Z M 11.875 0.234375 "/></g></g></g><g fill="#ffffff" fill-opacity="1"><g transform="translate(66.762242, 36.314567)"><g/></g></g><g fill="#ffffff" fill-opacity="1"><g transform="translate(74.694142, 36.314567)"><g><path d="M 16.171875 0.234375 C 13.492188 0.234375 11.078125 -0.359375 8.921875 -1.546875 C 6.765625 -2.734375 5.070312 -4.378906 3.84375 -6.484375 C 2.625 -8.585938 2.015625 -10.941406 2.015625 -13.546875 C 2.015625 -16.148438 2.625 -18.503906 3.84375 -20.609375 C 5.070312 -22.710938 6.769531 -24.359375 8.9375 -25.546875 C 11.101562 -26.734375 13.53125 -27.328125 16.21875 -27.328125 C 18.226562 -27.328125 20.082031 -26.988281 21.78125 -26.3125 C 23.488281 -25.644531 24.9375 -24.664062 26.125 -23.375 L 24.3125 -21.5625 C 22.1875 -23.695312 19.515625 -24.765625 16.296875 -24.765625 C 14.148438 -24.765625 12.195312 -24.273438 10.4375 -23.296875 C 8.6875 -22.316406 7.316406 -20.972656 6.328125 -19.265625 C 5.335938 -17.566406 4.84375 -15.660156 4.84375 -13.546875 C 4.84375 -11.429688 5.335938 -9.519531 6.328125 -7.8125 C 7.316406 -6.113281 8.6875 -4.773438 10.4375 -3.796875 C 12.195312 -2.816406 14.148438 -2.328125 16.296875 -2.328125 C 19.546875 -2.328125 22.21875 -3.410156 24.3125 -5.578125 L 26.125 -3.75 C 24.9375 -2.457031 23.484375 -1.46875 21.765625 -0.78125 C 20.054688 -0.101562 18.191406 0.234375 16.171875 0.234375 Z M 16.171875 0.234375 "/></g></g></g><g fill="#ffffff" fill-opacity="1"><g transform="translate(100.309794, 36.314567)"><g><path d="M 15.328125 0.234375 C 11.816406 0.234375 9.082031 -0.769531 7.125 -2.78125 C 5.164062 -4.800781 4.1875 -7.734375 4.1875 -11.578125 L 4.1875 -27.09375 L 7.046875 -27.09375 L 7.046875 -11.6875 C 7.046875 -8.539062 7.753906 -6.191406 9.171875 -4.640625 C 10.585938 -3.097656 12.640625 -2.328125 15.328125 -2.328125 C 18.035156 -2.328125 20.097656 -3.097656 21.515625 -4.640625 C 22.929688 -6.191406 23.640625 -8.539062 23.640625 -11.6875 L 23.640625 -27.09375 L 26.4375 -27.09375 L 26.4375 -11.578125 C 26.4375 -7.734375 25.460938 -4.800781 23.515625 -2.78125 C 21.566406 -0.769531 18.835938 0.234375 15.328125 0.234375 Z M 15.328125 0.234375 "/></g></g></g><g fill="#ffffff" fill-opacity="1"><g transform="translate(128.750213, 36.314567)"><g><path d="M 23.5625 -2.484375 L 23.5625 0 L 4.40625 0 L 4.40625 -27.09375 L 22.984375 -27.09375 L 22.984375 -24.609375 L 7.28125 -24.609375 L 7.28125 -14.984375 L 21.28125 -14.984375 L 21.28125 -12.546875 L 7.28125 -12.546875 L 7.28125 -2.484375 Z M 23.5625 -2.484375 "/></g></g></g><g fill="#ffffff" fill-opacity="1"><g transform="translate(152.431104, 36.314567)"><g><path d="M 27.046875 -27.09375 L 27.046875 0 L 24.6875 0 L 7.28125 -21.984375 L 7.28125 0 L 4.40625 0 L 4.40625 -27.09375 L 6.765625 -27.09375 L 24.234375 -5.109375 L 24.234375 -27.09375 Z M 27.046875 -27.09375 "/></g></g></g><g fill="#ffffff" fill-opacity="1"><g transform="translate(181.684123, 36.314567)"><g><path d="M 9.671875 -24.609375 L 0.15625 -24.609375 L 0.15625 -27.09375 L 22.0625 -27.09375 L 22.0625 -24.609375 L 12.546875 -24.609375 L 12.546875 0 L 9.671875 0 Z M 9.671875 -24.609375 "/></g></g></g><g fill="#ffffff" fill-opacity="1"><g transform="translate(201.688966, 36.314567)"><g><path d="M 21.40625 -7.234375 L 6.3125 -7.234375 L 3.0625 0 L 0.078125 0 L 12.46875 -27.09375 L 15.28125 -27.09375 L 27.671875 0 L 24.65625 0 Z M 20.359375 -9.5625 L 13.859375 -24.109375 L 7.359375 -9.5625 Z M 20.359375 -9.5625 "/></g></g></g><g fill="#ffffff" fill-opacity="1"><g transform="translate(227.227234, 36.314567)"><g><path d="M 11.875 0.234375 C 9.863281 0.234375 7.9375 -0.0859375 6.09375 -0.734375 C 4.25 -1.378906 2.820312 -2.234375 1.8125 -3.296875 L 2.9375 -5.5 C 3.914062 -4.519531 5.21875 -3.722656 6.84375 -3.109375 C 8.46875 -2.503906 10.144531 -2.203125 11.875 -2.203125 C 14.300781 -2.203125 16.117188 -2.644531 17.328125 -3.53125 C 18.546875 -4.425781 19.15625 -5.582031 19.15625 -7 C 19.15625 -8.082031 18.828125 -8.945312 18.171875 -9.59375 C 17.515625 -10.238281 16.707031 -10.734375 15.75 -11.078125 C 14.789062 -11.429688 13.460938 -11.816406 11.765625 -12.234375 C 9.722656 -12.742188 8.09375 -13.238281 6.875 -13.71875 C 5.664062 -14.195312 4.628906 -14.925781 3.765625 -15.90625 C 2.910156 -16.882812 2.484375 -18.210938 2.484375 -19.890625 C 2.484375 -21.253906 2.84375 -22.5 3.5625 -23.625 C 4.28125 -24.75 5.390625 -25.644531 6.890625 -26.3125 C 8.390625 -26.988281 10.25 -27.328125 12.46875 -27.328125 C 14.007812 -27.328125 15.519531 -27.113281 17 -26.6875 C 18.488281 -26.257812 19.773438 -25.671875 20.859375 -24.921875 L 19.890625 -22.640625 C 18.753906 -23.390625 17.539062 -23.953125 16.25 -24.328125 C 14.957031 -24.703125 13.695312 -24.890625 12.46875 -24.890625 C 10.09375 -24.890625 8.300781 -24.429688 7.09375 -23.515625 C 5.894531 -22.597656 5.296875 -21.414062 5.296875 -19.96875 C 5.296875 -18.882812 5.625 -18.015625 6.28125 -17.359375 C 6.945312 -16.703125 7.773438 -16.195312 8.765625 -15.84375 C 9.753906 -15.5 11.085938 -15.117188 12.765625 -14.703125 C 14.753906 -14.210938 16.359375 -13.726562 17.578125 -13.25 C 18.804688 -12.78125 19.847656 -12.0625 20.703125 -11.09375 C 21.554688 -10.125 21.984375 -8.8125 21.984375 -7.15625 C 21.984375 -5.789062 21.613281 -4.546875 20.875 -3.421875 C 20.144531 -2.296875 19.015625 -1.40625 17.484375 -0.75 C 15.960938 -0.09375 14.09375 0.234375 11.875 0.234375 Z M 11.875 0.234375 "/></g></g></g></g></g><g clip-path="url(#ac56147e10)"><path fill="#38b6ff" d="M 151.023438 193.101562 L 151.023438 157.703125 L 175.511719 140.347656 L 175.511719 229.015625 L 177.628906 230.519531 L 179.746094 229.015625 L 179.746094 103.457031 L 191.988281 94.78125 L 204.234375 103.457031 L 204.234375 207.738281 L 206.347656 209.238281 L 208.46875 207.738281 L 208.46875 74.894531 L 232.953125 92.25 L 232.953125 193.101562 L 286.847656 196.261719 L 228.054688 196.261719 L 228.054688 94.78125 L 213.363281 84.371094 L 213.363281 210.273438 L 210.585938 212.242188 L 206.347656 215.242188 L 202.113281 212.242188 L 199.335938 210.273438 L 199.335938 105.988281 L 191.988281 100.785156 L 184.644531 105.988281 L 184.644531 231.550781 L 181.863281 233.519531 L 177.628906 236.523438 L 173.394531 233.519531 L 170.613281 231.550781 L 170.613281 149.824219 L 155.921875 160.234375 L 155.921875 196.261719 L 97.128906 196.261719 L 151.023438 193.101562 " fill-opacity="1" fill-rule="nonzero"/></g></svg>