<svg xmlns="http://www.w3.org/2000/svg" xmlns:xlink="http://www.w3.org/1999/xlink" width="256" zoomAndPan="magnify" viewBox="0 0 192 191.999996" height="256" preserveAspectRatio="xMidYMid meet" version="1.0"><defs><g/><clipPath id="ef3a734786"><path d="M 48.5625 37.449219 L 143.0625 37.449219 L 143.0625 118.253906 L 48.5625 118.253906 Z M 48.5625 37.449219 " clip-rule="nonzero"/></clipPath></defs><g fill="#ffffff" fill-opacity="1"><g transform="translate(33.471714, 141.157294)"><g><path d="M 16.265625 -13.546875 L 16.265625 0 L 14.890625 0 L 14.890625 -10.828125 L 9.578125 -1.71875 L 8.890625 -1.71875 L 3.578125 -10.78125 L 3.578125 0 L 2.203125 0 L 2.203125 -13.546875 L 3.390625 -13.546875 L 9.265625 -3.5 L 15.09375 -13.546875 Z M 16.265625 -13.546875 "/></g></g></g><g fill="#ffffff" fill-opacity="1"><g transform="translate(50.845595, 141.157294)"><g><path d="M 2.203125 -13.546875 L 3.640625 -13.546875 L 3.640625 0 L 2.203125 0 Z M 2.203125 -13.546875 "/></g></g></g><g fill="#ffffff" fill-opacity="1"><g transform="translate(55.585452, 141.157294)"><g><path d="M 5.9375 0.109375 C 4.9375 0.109375 3.972656 -0.046875 3.046875 -0.359375 C 2.117188 -0.679688 1.40625 -1.109375 0.90625 -1.640625 L 1.46875 -2.75 C 1.957031 -2.257812 2.609375 -1.863281 3.421875 -1.5625 C 4.234375 -1.257812 5.070312 -1.109375 5.9375 -1.109375 C 7.144531 -1.109375 8.050781 -1.328125 8.65625 -1.765625 C 9.269531 -2.210938 9.578125 -2.789062 9.578125 -3.5 C 9.578125 -4.039062 9.410156 -4.472656 9.078125 -4.796875 C 8.753906 -5.117188 8.351562 -5.363281 7.875 -5.53125 C 7.394531 -5.707031 6.726562 -5.898438 5.875 -6.109375 C 4.863281 -6.367188 4.050781 -6.617188 3.4375 -6.859375 C 2.832031 -7.097656 2.3125 -7.460938 1.875 -7.953125 C 1.445312 -8.441406 1.234375 -9.101562 1.234375 -9.9375 C 1.234375 -10.625 1.414062 -11.25 1.78125 -11.8125 C 2.144531 -12.375 2.695312 -12.820312 3.4375 -13.15625 C 4.1875 -13.488281 5.117188 -13.65625 6.234375 -13.65625 C 7.003906 -13.65625 7.757812 -13.546875 8.5 -13.328125 C 9.238281 -13.117188 9.878906 -12.828125 10.421875 -12.453125 L 9.9375 -11.3125 C 9.375 -11.6875 8.769531 -11.96875 8.125 -12.15625 C 7.476562 -12.34375 6.847656 -12.4375 6.234375 -12.4375 C 5.046875 -12.4375 4.148438 -12.207031 3.546875 -11.75 C 2.953125 -11.289062 2.65625 -10.703125 2.65625 -9.984375 C 2.65625 -9.441406 2.816406 -9.003906 3.140625 -8.671875 C 3.472656 -8.347656 3.882812 -8.097656 4.375 -7.921875 C 4.875 -7.742188 5.546875 -7.550781 6.390625 -7.34375 C 7.378906 -7.101562 8.175781 -6.863281 8.78125 -6.625 C 9.394531 -6.382812 9.914062 -6.019531 10.34375 -5.53125 C 10.769531 -5.050781 10.984375 -4.398438 10.984375 -3.578125 C 10.984375 -2.890625 10.800781 -2.265625 10.4375 -1.703125 C 10.070312 -1.148438 9.507812 -0.707031 8.75 -0.375 C 7.988281 -0.0507812 7.050781 0.109375 5.9375 0.109375 Z M 5.9375 0.109375 "/></g></g></g><g fill="#ffffff" fill-opacity="1"><g transform="translate(66.381121, 141.157294)"><g/></g></g><g fill="#ffffff" fill-opacity="1"><g transform="translate(70.34707, 141.157294)"><g><path d="M 8.078125 0.109375 C 6.742188 0.109375 5.535156 -0.179688 4.453125 -0.765625 C 3.378906 -1.359375 2.535156 -2.179688 1.921875 -3.234375 C 1.304688 -4.285156 1 -5.460938 1 -6.765625 C 1 -8.066406 1.304688 -9.242188 1.921875 -10.296875 C 2.535156 -11.347656 3.382812 -12.171875 4.46875 -12.765625 C 5.550781 -13.359375 6.765625 -13.65625 8.109375 -13.65625 C 9.109375 -13.65625 10.035156 -13.488281 10.890625 -13.15625 C 11.742188 -12.820312 12.46875 -12.332031 13.0625 -11.6875 L 12.140625 -10.78125 C 11.085938 -11.84375 9.753906 -12.375 8.140625 -12.375 C 7.066406 -12.375 6.09375 -12.128906 5.21875 -11.640625 C 4.34375 -11.148438 3.65625 -10.476562 3.15625 -9.625 C 2.664062 -8.78125 2.421875 -7.828125 2.421875 -6.765625 C 2.421875 -5.710938 2.664062 -4.757812 3.15625 -3.90625 C 3.65625 -3.050781 4.34375 -2.378906 5.21875 -1.890625 C 6.09375 -1.398438 7.066406 -1.15625 8.140625 -1.15625 C 9.765625 -1.15625 11.097656 -1.695312 12.140625 -2.78125 L 13.0625 -1.875 C 12.46875 -1.226562 11.738281 -0.734375 10.875 -0.390625 C 10.019531 -0.0546875 9.085938 0.109375 8.078125 0.109375 Z M 8.078125 0.109375 "/></g></g></g><g fill="#ffffff" fill-opacity="1"><g transform="translate(83.154897, 141.157294)"><g><path d="M 7.65625 0.109375 C 5.90625 0.109375 4.539062 -0.390625 3.5625 -1.390625 C 2.582031 -2.398438 2.09375 -3.863281 2.09375 -5.78125 L 2.09375 -13.546875 L 3.515625 -13.546875 L 3.515625 -5.84375 C 3.515625 -4.269531 3.867188 -3.09375 4.578125 -2.3125 C 5.285156 -1.539062 6.3125 -1.15625 7.65625 -1.15625 C 9.007812 -1.15625 10.039062 -1.539062 10.75 -2.3125 C 11.457031 -3.09375 11.8125 -4.269531 11.8125 -5.84375 L 11.8125 -13.546875 L 13.21875 -13.546875 L 13.21875 -5.78125 C 13.21875 -3.863281 12.726562 -2.398438 11.75 -1.390625 C 10.78125 -0.390625 9.414062 0.109375 7.65625 0.109375 Z M 7.65625 0.109375 "/></g></g></g><g fill="#ffffff" fill-opacity="1"><g transform="translate(97.375107, 141.157294)"><g><path d="M 11.78125 -1.234375 L 11.78125 0 L 2.203125 0 L 2.203125 -13.546875 L 11.484375 -13.546875 L 11.484375 -12.296875 L 3.640625 -12.296875 L 3.640625 -7.484375 L 10.640625 -7.484375 L 10.640625 -6.265625 L 3.640625 -6.265625 L 3.640625 -1.234375 Z M 11.78125 -1.234375 "/></g></g></g><g fill="#ffffff" fill-opacity="1"><g transform="translate(109.215553, 141.157294)"><g><path d="M 13.515625 -13.546875 L 13.515625 0 L 12.34375 0 L 3.640625 -10.984375 L 3.640625 0 L 2.203125 0 L 2.203125 -13.546875 L 3.390625 -13.546875 L 12.109375 -2.546875 L 12.109375 -13.546875 Z M 13.515625 -13.546875 "/></g></g></g><g fill="#ffffff" fill-opacity="1"><g transform="translate(123.842062, 141.157294)"><g><path d="M 4.84375 -12.296875 L 0.078125 -12.296875 L 0.078125 -13.546875 L 11.03125 -13.546875 L 11.03125 -12.296875 L 6.265625 -12.296875 L 6.265625 0 L 4.84375 0 Z M 4.84375 -12.296875 "/></g></g></g><g fill="#ffffff" fill-opacity="1"><g transform="translate(133.844484, 141.157294)"><g><path d="M 10.703125 -3.625 L 3.15625 -3.625 L 1.53125 0 L 0.03125 0 L 6.234375 -13.546875 L 7.640625 -13.546875 L 13.828125 0 L 12.328125 0 Z M 10.171875 -4.78125 L 6.921875 -12.046875 L 3.671875 -4.78125 Z M 10.171875 -4.78125 "/></g></g></g><g fill="#ffffff" fill-opacity="1"><g transform="translate(146.613618, 141.157294)"><g><path d="M 5.9375 0.109375 C 4.9375 0.109375 3.972656 -0.046875 3.046875 -0.359375 C 2.117188 -0.679688 1.40625 -1.109375 0.90625 -1.640625 L 1.46875 -2.75 C 1.957031 -2.257812 2.609375 -1.863281 3.421875 -1.5625 C 4.234375 -1.257812 5.070312 -1.109375 5.9375 -1.109375 C 7.144531 -1.109375 8.050781 -1.328125 8.65625 -1.765625 C 9.269531 -2.210938 9.578125 -2.789062 9.578125 -3.5 C 9.578125 -4.039062 9.410156 -4.472656 9.078125 -4.796875 C 8.753906 -5.117188 8.351562 -5.363281 7.875 -5.53125 C 7.394531 -5.707031 6.726562 -5.898438 5.875 -6.109375 C 4.863281 -6.367188 4.050781 -6.617188 3.4375 -6.859375 C 2.832031 -7.097656 2.3125 -7.460938 1.875 -7.953125 C 1.445312 -8.441406 1.234375 -9.101562 1.234375 -9.9375 C 1.234375 -10.625 1.414062 -11.25 1.78125 -11.8125 C 2.144531 -12.375 2.695312 -12.820312 3.4375 -13.15625 C 4.1875 -13.488281 5.117188 -13.65625 6.234375 -13.65625 C 7.003906 -13.65625 7.757812 -13.546875 8.5 -13.328125 C 9.238281 -13.117188 9.878906 -12.828125 10.421875 -12.453125 L 9.9375 -11.3125 C 9.375 -11.6875 8.769531 -11.96875 8.125 -12.15625 C 7.476562 -12.34375 6.847656 -12.4375 6.234375 -12.4375 C 5.046875 -12.4375 4.148438 -12.207031 3.546875 -11.75 C 2.953125 -11.289062 2.65625 -10.703125 2.65625 -9.984375 C 2.65625 -9.441406 2.816406 -9.003906 3.140625 -8.671875 C 3.472656 -8.347656 3.882812 -8.097656 4.375 -7.921875 C 4.875 -7.742188 5.546875 -7.550781 6.390625 -7.34375 C 7.378906 -7.101562 8.175781 -6.863281 8.78125 -6.625 C 9.394531 -6.382812 9.914062 -6.019531 10.34375 -5.53125 C 10.769531 -5.050781 10.984375 -4.398438 10.984375 -3.578125 C 10.984375 -2.890625 10.800781 -2.265625 10.4375 -1.703125 C 10.070312 -1.148438 9.507812 -0.707031 8.75 -0.375 C 7.988281 -0.0507812 7.050781 0.109375 5.9375 0.109375 Z M 5.9375 0.109375 "/></g></g></g><g clip-path="url(#ef3a734786)"><path fill="#38b6ff" d="M 75.511719 96.546875 L 75.511719 78.847656 L 87.753906 70.171875 L 87.753906 114.503906 L 88.8125 115.253906 L 89.871094 114.503906 L 89.871094 51.726562 L 95.992188 47.390625 L 102.113281 51.726562 L 102.113281 103.867188 L 103.171875 104.613281 L 104.230469 103.867188 L 104.230469 37.449219 L 116.472656 46.125 L 116.472656 96.546875 L 143.417969 98.125 L 114.023438 98.125 L 114.023438 47.390625 L 106.679688 42.183594 L 106.679688 105.132812 L 105.289062 106.117188 L 103.171875 107.617188 L 101.054688 106.117188 L 99.664062 105.132812 L 99.664062 52.992188 L 95.992188 50.390625 L 92.320312 52.992188 L 92.320312 115.769531 L 90.929688 116.753906 L 88.8125 118.253906 L 86.695312 116.753906 L 85.304688 115.769531 L 85.304688 74.910156 L 77.960938 80.113281 L 77.960938 98.125 L 48.5625 98.125 L 75.511719 96.546875 " fill-opacity="1" fill-rule="nonzero"/></g></svg>