<svg xmlns="http://www.w3.org/2000/svg" xmlns:xlink="http://www.w3.org/1999/xlink" width="512" zoomAndPan="magnify" viewBox="0 0 384 383.999986" height="512" preserveAspectRatio="xMidYMid meet" version="1.0"><defs><clipPath id="7b57164798"><path d="M 46.402344 67.992188 L 337.402344 67.992188 L 337.402344 316.03125 L 46.402344 316.03125 Z M 46.402344 67.992188 " clip-rule="nonzero"/></clipPath></defs><g clip-path="url(#7b57164798)"><path fill="#38b6ff" d="M 129.117188 249.394531 L 129.117188 195.070312 L 166.691406 168.4375 L 166.691406 304.515625 L 169.945312 306.820312 L 173.195312 304.515625 L 173.195312 111.820312 L 191.980469 98.503906 L 210.773438 111.820312 L 210.773438 271.859375 L 214.019531 274.164062 L 217.273438 271.859375 L 217.273438 67.988281 L 254.851562 94.621094 L 254.851562 249.394531 L 337.5625 254.242188 L 247.332031 254.242188 L 247.332031 98.503906 L 224.789062 82.527344 L 224.789062 275.746094 L 220.523438 278.773438 L 214.019531 283.375 L 207.519531 278.773438 L 203.253906 275.746094 L 203.253906 115.707031 L 191.980469 107.71875 L 180.710938 115.707031 L 180.710938 308.402344 L 176.445312 311.425781 L 169.945312 316.03125 L 163.441406 311.425781 L 159.175781 308.402344 L 159.175781 182.976562 L 136.632812 198.957031 L 136.632812 254.242188 L 46.402344 254.242188 L 129.117188 249.394531 " fill-opacity="1" fill-rule="nonzero"/></g></svg>